<?xml version="1.0" encoding="UTF-8" standalone="no"?>
<!DOCTYPE svg PUBLIC "-//W3C//DTD SVG 1.1//EN" "http://www.w3.org/Graphics/SVG/1.1/DTD/svg11.dtd">
<svg width="100%" height="100%" viewBox="0 0 101 101" version="1.1" xmlns="http://www.w3.org/2000/svg" xmlns:xlink="http://www.w3.org/1999/xlink" xml:space="preserve" xmlns:serif="http://www.serif.com/" style="fill-rule:evenodd;clip-rule:evenodd;stroke-linecap:round;stroke-linejoin:round;stroke-miterlimit:1.5;">
    <rect id="_0-Flasks" serif:id="0 Flasks" x="0.558" y="0.552" width="100" height="100" style="fill:none;"/>
    <g id="Flask">
        <path d="M58.802,20.06C61.168,22.583 68.622,28.789 71.516,29.583C73.422,30.105 81.918,31.936 76.365,24.047C74.722,21.711 66.435,16.353 63.261,14.753C61.491,13.86 58.52,12.756 57.322,14.442C55.918,16.418 57.477,18.647 58.802,20.06Z" style="fill:none;"/>
        <clipPath id="_clip1">
            <path d="M58.802,20.06C61.168,22.583 68.622,28.789 71.516,29.583C73.422,30.105 81.918,31.936 76.365,24.047C74.722,21.711 66.435,16.353 63.261,14.753C61.491,13.86 58.52,12.756 57.322,14.442C55.918,16.418 57.477,18.647 58.802,20.06Z"/>
        </clipPath>
        <g clip-path="url(#_clip1)">
            <path d="M100.272,41.933L44.816,-2.131L12.99,37.924L68.445,81.988L100.272,41.933Z" style="fill:#2affbc;fill-opacity:0.501961;"/>
        </g>
        <path d="M58.802,20.06C61.168,22.583 68.622,28.789 71.516,29.583C73.422,30.105 81.918,31.936 76.365,24.047C74.722,21.711 66.435,16.353 63.261,14.753C61.491,13.86 58.52,12.756 57.322,14.442C55.918,16.418 57.477,18.647 58.802,20.06Z" style="fill:none;stroke:#000;stroke-width:0.75px;"/>
        <g>
            <path d="M76.847,68.15L93.535,78.983C90.455,78.991 85.48,82.835 83.157,84.689C80.554,86.765 75.541,90.426 74.476,92.543L67.783,75.948C70.278,70.922 71.81,69.812 76.847,68.15Z" style="fill:#4b3a04;"/>
            <path d="M93.535,78.983C89.143,77.74 75.953,88.905 74.476,92.542C76.215,93.966 83.045,89.64 85.449,87.59C87.543,85.805 93.997,81.653 93.535,78.983Z" style="fill:#927c37;"/>
        </g>
        <path d="M58.802,20.06C56.8,26.377 46.949,37.61 45.582,39.15C45.486,39.257 45.336,39.297 45.2,39.251C31.255,34.599 21.273,36.909 12.431,44.925C10.104,47.297 8.029,49.923 6.239,52.835C-2.824,67.241 6.482,83.116 15.334,90.1C22.974,96.129 41.436,103.398 54.849,89.988C57.146,87.812 59.143,85.304 60.917,82.547C66.63,72.609 65.588,61.405 57.71,48.918C57.616,48.769 57.59,48.586 57.639,48.416C58.57,45.578 63.619,35.778 71.785,29.573" style="fill:none;"/>
        <clipPath id="_clip2">
            <path d="M58.802,20.06C56.8,26.377 46.949,37.61 45.582,39.15C45.486,39.257 45.336,39.297 45.2,39.251C31.255,34.599 21.273,36.909 12.431,44.925C10.104,47.297 8.029,49.923 6.239,52.835C-2.824,67.241 6.482,83.116 15.334,90.1C22.974,96.129 41.436,103.398 54.849,89.988C57.146,87.812 59.143,85.304 60.917,82.547C66.63,72.609 65.588,61.405 57.71,48.918C57.616,48.769 57.59,48.586 57.639,48.416C58.57,45.578 63.619,35.778 71.785,29.573"/>
        </clipPath>
        <g clip-path="url(#_clip2)">
            <path d="M96.119,47.16C86.501,39.818 76.834,32.29 64.669,25.602C63.46,24.937 62.571,24 61.496,22.868C54.877,15.898 47.764,10.129 40.663,3.096L-11.828,69.157L43.628,113.221L96.119,47.16Z" style="fill:#2affbc;fill-opacity:0.501961;"/>
        </g>
        <path d="M58.802,20.06C56.8,26.377 46.949,37.61 45.582,39.15C45.486,39.257 45.336,39.297 45.2,39.251C31.255,34.599 21.273,36.909 12.431,44.925C10.104,47.297 8.029,49.923 6.239,52.835C-2.824,67.241 6.482,83.116 15.334,90.1C22.974,96.129 41.436,103.398 54.849,89.988C57.146,87.812 59.143,85.304 60.917,82.547C66.63,72.609 65.588,61.405 57.71,48.918C57.616,48.769 57.59,48.586 57.639,48.416C58.57,45.578 63.619,35.778 71.785,29.573" style="fill:none;stroke:#000;stroke-width:0.75px;"/>
        <path d="M60.349,18.382L59.648,20.349C62.698,24.467 66.318,26.873 71.159,28.906L72.943,27.63C68.063,24.903 64.137,22.323 60.349,18.382Z" style="fill:#2affbc;fill-opacity:0.501961;"/>
        <path d="M58.802,20.06C62.234,24.229 66.394,27.388 71.785,29.573" style="fill:none;stroke:#000;stroke-width:0.75px;"/>
        <path d="M75.622,25.751C76.025,26.245 76.073,26.626 76.008,27.355C75.997,27.495 75.909,27.616 75.78,27.669C74.998,27.984 74.124,28.149 72.339,27.244C69.589,25.849 64.014,22.157 60.791,18.63C59.58,17.436 59.473,16.785 59.686,16.226C60.031,15.323 61.024,16.056 61.172,16.11" style="fill:none;stroke:#000;stroke-width:0.24px;stroke-linecap:butt;"/>
        <g id="crack">
            <path d="M33.375,36.736C31.824,40.238 30.584,43.744 29.948,47.253C32.161,50.71 34.891,53.762 38.02,56.501L25.223,62.709C22.712,64.702 20.703,67.14 19.522,70.311C19.253,74.582 19.366,77.613 19.775,79.687C18.332,81.073 16.539,81.65 14.58,81.841" style="fill:none;stroke:#000;stroke-width:0.35px;stroke-linecap:butt;stroke-linejoin:miter;"/>
            <path d="M38.02,56.548C40.428,55.586 42.409,53.97 44.036,51.813C43.942,50.99 44.024,49.856 44.194,48.565C46.158,48.278 48.214,48.269 50.371,48.565C52.384,51.024 53.419,53.525 53.38,56.073L51.955,59.288L49.262,64.15" style="fill:none;stroke:#000;stroke-width:0.35px;stroke-linecap:butt;stroke-linejoin:miter;"/>
            <path d="M53.38,56.357L56.072,59.288" style="fill:none;stroke:#000;stroke-width:0.35px;stroke-linecap:butt;stroke-linejoin:miter;"/>
            <path d="M25.223,62.709C27.455,66.077 30.182,68.544 33.375,70.169C36.541,71.009 39.579,71.559 42.427,71.675" style="fill:none;stroke:#000;stroke-width:0.35px;stroke-linecap:butt;stroke-linejoin:miter;"/>
        </g>
    </g>
</svg>
