<?xml version="1.0" encoding="UTF-8" standalone="no"?>
<!DOCTYPE svg PUBLIC "-//W3C//DTD SVG 1.1//EN" "http://www.w3.org/Graphics/SVG/1.1/DTD/svg11.dtd">
<svg width="100%" height="100%" viewBox="0 0 101 101" version="1.1" xmlns="http://www.w3.org/2000/svg" xmlns:xlink="http://www.w3.org/1999/xlink" xml:space="preserve" xmlns:serif="http://www.serif.com/" style="fill-rule:evenodd;clip-rule:evenodd;stroke-linecap:round;stroke-linejoin:round;stroke-miterlimit:1.5;">
    <rect id="_1-Flask" serif:id="1 Flask" x="0.511" y="0.548" width="100" height="100" style="fill:none;"/>
    <g id="Flask">
        <path d="M40.674,18.169C44.096,18.673 53.792,18.894 56.552,17.715C58.369,16.938 66.16,13.086 56.905,10.364C54.165,9.558 44.344,10.518 40.863,11.239C38.922,11.641 35.909,12.625 36.02,14.691C36.15,17.112 38.758,17.887 40.674,18.169Z" style="fill:none;"/>
        <clipPath id="_clip1">
            <path d="M40.674,18.169C44.096,18.673 53.792,18.894 56.552,17.715C58.369,16.938 66.16,13.086 56.905,10.364C54.165,9.558 44.344,10.518 40.863,11.239C38.922,11.641 35.909,12.625 36.02,14.691C36.15,17.112 38.758,17.887 40.674,18.169Z"/>
        </clipPath>
        <g clip-path="url(#_clip1)">
            <rect x="15.919" y="9.495" width="70.83" height="51.16" style="fill:#ff94f8;"/>
        </g>
        <path d="M40.674,18.169C44.096,18.673 53.792,18.894 56.552,17.715C58.369,16.938 66.16,13.086 56.905,10.364C54.165,9.558 44.344,10.518 40.863,11.239C38.922,11.641 35.909,12.625 36.02,14.691C36.15,17.112 38.758,17.887 40.674,18.169Z" style="fill:none;stroke:#000;stroke-width:0.75px;"/>
        <path d="M42.801,21.667L36.42,2.822C38.842,4.725 45.129,4.792 48.1,4.778C51.43,4.762 57.634,4.997 59.781,3.996L54.747,21.166C49.673,23.564 47.783,23.486 42.801,21.667Z" style="fill:#4b3a04;"/>
        <path d="M36.42,2.822C39.096,6.52 56.367,5.935 59.781,3.997C59.298,1.801 51.258,0.962 48.1,1.08C45.35,1.183 37.712,0.44 36.42,2.822Z" style="fill:#927c37;"/>
        <path d="M40.674,18.169C43.036,24.36 42.312,39.284 42.199,41.339C42.191,41.482 42.098,41.607 41.963,41.656C28.151,46.689 21.773,54.707 19.836,66.485C19.49,69.789 19.499,73.136 19.909,76.529C21.776,93.446 38.937,100.086 50.213,100.047C59.945,100.014 78.922,94.22 81.082,75.377C81.525,72.245 81.529,69.039 81.203,65.777C79.494,54.442 71.707,46.317 57.772,41.442C57.605,41.384 57.471,41.257 57.403,41.094C56.367,38.292 54.223,27.478 56.756,17.54" style="fill:none;"/>
        <clipPath id="_clip2">
            <path d="M40.674,18.169C43.036,24.36 42.312,39.284 42.199,41.339C42.191,41.482 42.098,41.607 41.963,41.656C28.151,46.689 21.773,54.707 19.836,66.485C19.49,69.789 19.499,73.136 19.909,76.529C21.776,93.446 38.937,100.086 50.213,100.047C59.945,100.014 78.922,94.22 81.082,75.377C81.525,72.245 81.529,69.039 81.203,65.777C79.494,54.442 71.707,46.317 57.772,41.442C57.605,41.384 57.471,41.257 57.403,41.094C56.367,38.292 54.223,27.478 56.756,17.54"/>
        </clipPath>
        <g clip-path="url(#_clip2)">
            <rect x="15.919" y="60.655" width="67.274" height="43.266" style="fill:#5d003a;"/>
            <path d="M86.749,17.54C74.651,17.66 62.4,17.721 48.715,18.913C47.355,19.031 45.969,19.396 44.636,19.163C35.543,17.57 25.854,18.096 15.919,17.54L15.919,60.655L86.749,60.655L86.749,17.54Z" style="fill:#ff2af1;fill-opacity:0.501961;"/>
        </g>
        <path d="M40.674,18.169C43.036,24.36 42.312,39.284 42.199,41.339C42.191,41.482 42.098,41.607 41.963,41.656C28.151,46.689 21.773,54.707 19.836,66.485C19.49,69.789 19.499,73.136 19.909,76.529C21.776,93.446 38.937,100.086 50.213,100.047C59.945,100.014 78.922,94.22 81.082,75.377C81.525,72.245 81.529,69.039 81.203,65.777C79.494,54.442 71.707,46.317 57.772,41.442C57.605,41.384 57.471,41.257 57.403,41.094C56.367,38.292 54.223,27.478 56.756,17.54" style="fill:none;stroke:#000;stroke-width:0.75px;"/>
        <path d="M40.841,15.893L41.516,17.869C46.466,19.196 50.797,18.827 55.852,17.408L56.455,15.299C50.938,16.199 46.258,16.622 40.841,15.893Z" style="fill:#ff2af1;fill-opacity:0.501961;"/>
        <path d="M40.674,18.169C45.954,19.298 51.176,19.183 56.756,17.54" style="fill:none;stroke:#000;stroke-width:0.75px;"/>
        <path d="M50.615,56.212C66.52,56.163 78.96,58.296 79.552,60.655C80.085,62.778 66.586,65.099 50.615,65.099C34.645,65.099 21.218,62.866 21.679,60.655C22.093,58.668 34.698,56.261 50.615,56.212Z" style="fill:#d00082;"/>
        <path d="M57.383,12.16C58.006,12.297 58.28,12.565 58.683,13.177C58.761,13.293 58.768,13.443 58.7,13.565C58.284,14.297 57.702,14.97 55.742,15.372C52.72,15.991 46.058,16.568 41.341,15.811C39.65,15.631 39.161,15.188 38.98,14.617C38.689,13.695 39.923,13.652 40.072,13.602" style="fill:none;stroke:#000;stroke-width:0.24px;stroke-linecap:butt;"/>
    </g>
</svg>
