<?xml version="1.0" encoding="UTF-8" standalone="no"?>
<!DOCTYPE svg PUBLIC "-//W3C//DTD SVG 1.1//EN" "http://www.w3.org/Graphics/SVG/1.1/DTD/svg11.dtd">
<svg width="100%" height="100%" viewBox="0 0 101 101" version="1.1" xmlns="http://www.w3.org/2000/svg" xmlns:xlink="http://www.w3.org/1999/xlink" xml:space="preserve" xmlns:serif="http://www.serif.com/" style="fill-rule:evenodd;clip-rule:evenodd;stroke-linecap:round;stroke-linejoin:round;stroke-miterlimit:1.5;">
    <rect id="_1-Flask" serif:id="1 Flask" x="0.214" y="0.745" width="100" height="100" style="fill:none;"/>
    <g id="Flask">
        <path d="M40.377,18.367C43.799,18.871 53.496,19.092 56.256,17.912C58.072,17.136 65.863,13.284 56.609,10.562C53.869,9.756 44.048,10.716 40.567,11.437C38.626,11.839 35.612,12.823 35.723,14.889C35.854,17.309 38.461,18.084 40.377,18.367Z" style="fill:none;"/>
        <clipPath id="_clip1">
            <path d="M40.377,18.367C43.799,18.871 53.496,19.092 56.256,17.912C58.072,17.136 65.863,13.284 56.609,10.562C53.869,9.756 44.048,10.716 40.567,11.437C38.626,11.839 35.612,12.823 35.723,14.889C35.854,17.309 38.461,18.084 40.377,18.367Z"/>
        </clipPath>
        <g clip-path="url(#_clip1)">
            <rect x="15.622" y="9.693" width="70.83" height="51.16" style="fill:#2affbc;fill-opacity:0.501961;"/>
        </g>
        <path d="M40.377,18.367C43.799,18.871 53.496,19.092 56.256,17.912C58.072,17.136 65.863,13.284 56.609,10.562C53.869,9.756 44.048,10.716 40.567,11.437C38.626,11.839 35.612,12.823 35.723,14.889C35.854,17.309 38.461,18.084 40.377,18.367Z" style="fill:none;stroke:#000;stroke-width:0.75px;"/>
        <path d="M42.504,21.865L36.124,3.02C38.545,4.923 44.833,4.99 47.804,4.976C51.134,4.959 57.337,5.195 59.484,4.193L54.45,21.364C49.377,23.761 47.486,23.683 42.504,21.865Z" style="fill:#4b3a04;"/>
        <path d="M36.124,3.02C38.799,6.718 56.071,6.133 59.484,4.194C59.002,1.999 50.962,1.16 47.804,1.278C45.054,1.381 37.416,0.638 36.124,3.02Z" style="fill:#927c37;"/>
        <path d="M40.377,18.367C42.739,24.558 42.015,39.481 41.902,41.537C41.894,41.68 41.802,41.804 41.667,41.854C27.855,46.887 21.476,54.905 19.54,66.682C19.194,69.987 19.202,73.333 19.613,76.727C21.479,93.643 38.641,100.283 49.917,100.245C59.649,100.212 78.625,94.418 80.785,75.575C81.229,72.443 81.233,69.236 80.907,65.974C79.197,54.639 71.411,46.515 57.475,41.64C57.308,41.582 57.174,41.455 57.107,41.291C56.07,38.489 53.927,27.676 56.46,17.738" style="fill:none;"/>
        <clipPath id="_clip2">
            <path d="M40.377,18.367C42.739,24.558 42.015,39.481 41.902,41.537C41.894,41.68 41.802,41.804 41.667,41.854C27.855,46.887 21.476,54.905 19.54,66.682C19.194,69.987 19.202,73.333 19.613,76.727C21.479,93.643 38.641,100.283 49.917,100.245C59.649,100.212 78.625,94.418 80.785,75.575C81.229,72.443 81.233,69.236 80.907,65.974C79.197,54.639 71.411,46.515 57.475,41.64C57.308,41.582 57.174,41.455 57.107,41.291C56.07,38.489 53.927,27.676 56.46,17.738"/>
        </clipPath>
        <g clip-path="url(#_clip2)">
            <rect x="15.622" y="60.853" width="67.274" height="43.266" style="fill:#0bfaaf;"/>
            <path d="M86.453,17.738C74.355,17.858 62.104,17.919 48.418,19.11C47.059,19.229 45.673,19.594 44.34,19.36C35.247,17.768 25.557,18.294 15.622,17.738L15.622,60.853L86.453,60.853L86.453,17.738Z" style="fill:#2affbc;fill-opacity:0.501961;"/>
        </g>
        <path d="M40.377,18.367C42.739,24.558 42.015,39.481 41.902,41.537C41.894,41.68 41.802,41.804 41.667,41.854C27.855,46.887 21.476,54.905 19.54,66.682C19.194,69.987 19.202,73.333 19.613,76.727C21.479,93.643 38.641,100.283 49.917,100.245C59.649,100.212 78.625,94.418 80.785,75.575C81.229,72.443 81.233,69.236 80.907,65.974C79.197,54.639 71.411,46.515 57.475,41.64C57.308,41.582 57.174,41.455 57.107,41.291C56.07,38.489 53.927,27.676 56.46,17.738" style="fill:none;stroke:#000;stroke-width:0.75px;"/>
        <path d="M40.544,16.09L41.219,18.067C46.169,19.394 50.5,19.025 55.555,17.605L56.159,15.496C50.641,16.397 45.962,16.82 40.544,16.09Z" style="fill:#2affbc;fill-opacity:0.501961;"/>
        <path d="M40.377,18.367C45.657,19.495 50.879,19.381 56.46,17.738" style="fill:none;stroke:#000;stroke-width:0.75px;"/>
        <path d="M50.319,56.41C66.224,56.361 78.663,58.494 79.256,60.853C79.789,62.976 66.289,65.296 50.319,65.296C34.348,65.296 20.922,63.064 21.382,60.853C21.796,58.866 34.401,56.459 50.319,56.41Z" style="fill:#007b54;"/>
        <path d="M57.087,12.358C57.709,12.495 57.984,12.763 58.387,13.375C58.465,13.49 58.471,13.64 58.403,13.762C57.987,14.495 57.405,15.168 55.445,15.57C52.423,16.188 45.762,16.766 41.045,16.009C39.354,15.829 38.865,15.385 38.684,14.814C38.392,13.893 39.627,13.849 39.776,13.8" style="fill:none;stroke:#000;stroke-width:0.24px;stroke-linecap:butt;"/>
    </g>
</svg>
