<?xml version="1.0" encoding="UTF-8" standalone="no"?>
<!DOCTYPE svg PUBLIC "-//W3C//DTD SVG 1.1//EN" "http://www.w3.org/Graphics/SVG/1.1/DTD/svg11.dtd">
<svg width="100%" height="100%" viewBox="0 0 101 101" version="1.1" xmlns="http://www.w3.org/2000/svg" xmlns:xlink="http://www.w3.org/1999/xlink" xml:space="preserve" xmlns:serif="http://www.serif.com/" style="fill-rule:evenodd;clip-rule:evenodd;stroke-linecap:round;stroke-linejoin:round;stroke-miterlimit:1.5;">
    <rect id="_2-Flasks" serif:id="2 Flasks" x="0.578" y="0.745" width="100" height="100" style="fill:none;"/>
    <g id="Flask">
        <path d="M63.646,20.833C66.785,21.712 75.822,23.061 78.542,22.269C80.333,21.748 88.073,19.017 79.746,15.354C77.281,14.269 67.987,14.024 64.648,14.297C62.785,14.45 59.851,15.027 59.71,16.995C59.543,19.301 61.889,20.341 63.646,20.833Z" style="fill:none;"/>
        <clipPath id="_clip1">
            <path d="M63.646,20.833C66.785,21.712 75.822,23.061 78.542,22.269C80.333,21.748 88.073,19.017 79.746,15.354C77.281,14.269 67.987,14.024 64.648,14.297C62.785,14.45 59.851,15.027 59.71,16.995C59.543,19.301 61.889,20.341 63.646,20.833Z"/>
        </clipPath>
        <g clip-path="url(#_clip1)">
            <path d="M107.746,18.037L41.539,9.716L35.453,58.135L101.66,66.457L107.746,18.037Z" style="fill:#2affbc;fill-opacity:0.501961;"/>
        </g>
        <path d="M63.646,20.833C66.785,21.712 75.822,23.061 78.542,22.269C80.333,21.748 88.073,19.017 79.746,15.354C77.281,14.269 67.987,14.024 64.648,14.297C62.785,14.45 59.851,15.027 59.71,16.995C59.543,19.301 61.889,20.341 63.646,20.833Z" style="fill:none;stroke:#000;stroke-width:0.75px;"/>
        <path d="M65.218,24.394L61.496,5.809C63.533,7.894 69.402,8.697 72.181,9.032C75.295,9.408 81.066,10.36 83.192,9.664L76.444,25.324C71.417,26.996 69.659,26.7 65.218,24.394Z" style="fill:#4b3a04;"/>
        <path d="M61.496,5.809C63.557,9.623 79.77,11.099 83.192,9.665C83.002,7.531 75.586,5.792 72.621,5.533C70.038,5.307 62.987,3.706 61.496,5.809Z" style="fill:#927c37;"/>
        <path d="M63.646,20.833C65.115,26.96 62.674,40.962 62.317,42.932C62.291,43.072 62.185,43.184 62.046,43.216C48.544,46.358 41.632,53.197 38.422,64.113C37.705,67.2 37.315,70.368 37.295,73.628C37.027,89.857 52.279,98.158 62.823,99.446C71.924,100.559 90.351,97.304 94.611,79.724C95.399,76.812 95.784,73.778 95.867,70.652C95.618,59.728 89.311,51.127 76.874,44.876C76.716,44.797 76.6,44.653 76.554,44.483C75.919,41.689 75.209,31.222 78.754,22.127" style="fill:none;"/>
        <clipPath id="_clip2">
            <path d="M63.646,20.833C65.115,26.96 62.674,40.962 62.317,42.932C62.291,43.072 62.185,43.184 62.046,43.216C48.544,46.358 41.632,53.197 38.422,64.113C37.705,67.2 37.315,70.368 37.295,73.628C37.027,89.857 52.279,98.158 62.823,99.446C71.924,100.559 90.351,97.304 94.611,79.724C95.399,76.812 95.784,73.778 95.867,70.652C95.618,59.728 89.311,51.127 76.874,44.876C76.716,44.797 76.6,44.653 76.554,44.483C75.919,41.689 75.209,31.222 78.754,22.127"/>
        </clipPath>
        <g clip-path="url(#_clip2)">
            <path d="M98.336,66.039L35.453,58.135L30.306,99.083L93.19,106.987L98.336,66.039Z" style="fill:#0bfaaf;"/>
            <path d="M106.789,25.651C95.466,24.343 84.008,22.962 71.074,22.482C69.789,22.434 68.45,22.617 67.232,22.239C58.921,19.664 49.802,19.024 40.582,17.33L35.453,58.135L101.66,66.457L106.789,25.651Z" style="fill:#2affbc;fill-opacity:0.501961;"/>
        </g>
        <path d="M63.646,20.833C65.115,26.96 62.674,40.962 62.317,42.932C62.291,43.072 62.185,43.184 62.046,43.216C48.544,46.358 41.632,53.197 38.422,64.113C37.705,67.2 37.315,70.368 37.295,73.628C37.027,89.857 52.279,98.158 62.823,99.446C71.924,100.559 90.351,97.304 94.611,79.724C95.399,76.812 95.784,73.778 95.867,70.652C95.618,59.728 89.311,51.127 76.874,44.876C76.716,44.797 76.6,44.653 76.554,44.483C75.919,41.689 75.209,31.222 78.754,22.127" style="fill:none;stroke:#000;stroke-width:0.75px;"/>
        <path d="M64.073,18.699L64.469,20.649C68.938,22.486 73.03,22.646 77.924,21.896L78.739,19.971C73.474,20.175 69.05,20.025 64.073,18.699Z" style="fill:#2affbc;fill-opacity:0.501961;"/>
        <path d="M63.646,20.833C68.447,22.522 73.342,23.027 78.754,22.127" style="fill:none;stroke:#000;stroke-width:0.75px;"/>
        <path d="M68.414,58.006C83.286,59.829 94.66,63.309 94.933,65.611C95.179,67.683 82.285,68.293 67.356,66.417C52.428,64.541 40.144,60.851 40.837,58.812C41.46,56.98 53.529,56.183 68.414,58.006Z" style="fill:#007b54;"/>
        <path d="M79.98,17.11C80.543,17.312 80.768,17.596 81.07,18.216C81.132,18.34 81.12,18.488 81.038,18.6C80.563,19.242 79.937,19.807 78.063,19.956C75.165,20.187 68.87,19.951 64.551,18.68C62.991,18.311 62.587,17.834 62.486,17.272C62.323,16.366 63.482,16.47 63.627,16.44" style="fill:none;stroke:#000;stroke-width:0.24px;stroke-linecap:butt;"/>
    </g>
    <g id="Flask1" serif:id="Flask">
        <path d="M22.327,22.47C25.587,22.51 34.664,21.465 37.083,19.974C38.674,18.993 45.43,14.284 36.431,12.871C33.766,12.453 24.731,14.649 21.579,15.792C19.821,16.43 17.141,17.766 17.52,19.735C17.965,22.042 20.501,22.448 22.327,22.47Z" style="fill:none;"/>
        <clipPath id="_clip3">
            <path d="M22.327,22.47C25.587,22.51 34.664,21.465 37.083,19.974C38.674,18.993 45.43,14.284 36.431,12.871C33.766,12.453 24.731,14.649 21.579,15.792C19.821,16.43 17.141,17.766 17.52,19.735C17.965,22.042 20.501,22.448 22.327,22.47Z"/>
        </clipPath>
        <g clip-path="url(#_clip3)">
            <path d="M64.163,8.166L-1.93,17.354L4.898,66.47L70.991,57.282L64.163,8.166Z" style="fill:#2affbc;fill-opacity:0.501961;"/>
        </g>
        <path d="M22.327,22.47C25.587,22.51 34.664,21.465 37.083,19.974C38.674,18.993 45.43,14.284 36.431,12.871C33.766,12.453 24.731,14.649 21.579,15.792C19.821,16.43 17.141,17.766 17.52,19.735C17.965,22.042 20.501,22.448 22.327,22.47Z" style="fill:none;stroke:#000;stroke-width:0.75px;"/>
        <path d="M24.779,25.553L16.31,8.288C18.823,9.801 24.699,9.05 27.47,8.651C30.575,8.203 36.394,7.624 38.264,6.384L35.859,23.522C31.444,26.482 29.67,26.652 24.779,25.553Z" style="fill:#4b3a04;"/>
        <path d="M16.31,8.288C19.3,11.491 35.338,8.69 38.264,6.385C37.521,4.34 29.907,4.578 26.976,5.101C24.424,5.556 17.197,5.834 16.31,8.288Z" style="fill:#927c37;"/>
        <path d="M22.327,22.47C25.355,28.103 26.671,42.503 26.842,44.511C26.854,44.653 26.78,44.788 26.655,44.856C14.446,51.479 9.567,60.003 9.332,71.558C9.45,74.776 9.905,77.987 10.74,81.192C14.74,97.191 31.64,101.339 42.156,99.84C51.233,98.545 68.167,90.521 67.667,72.151C67.663,69.086 67.239,66.007 66.499,62.918C63.393,52.262 55.048,45.473 41.403,42.598C41.23,42.562 41.08,42.453 40.993,42.3C39.648,39.73 36.213,29.639 37.25,19.78" style="fill:none;"/>
        <clipPath id="_clip4">
            <path d="M22.327,22.47C25.355,28.103 26.671,42.503 26.842,44.511C26.854,44.653 26.78,44.788 26.655,44.856C14.446,51.479 9.567,60.003 9.332,71.558C9.45,74.776 9.905,77.987 10.74,81.192C14.74,97.191 31.64,101.339 42.156,99.84C51.233,98.545 68.167,90.521 67.667,72.151C67.663,69.086 67.239,66.007 66.499,62.918C63.393,52.262 55.048,45.473 41.403,42.598C41.23,42.562 41.08,42.453 40.993,42.3C39.648,39.73 36.213,29.639 37.25,19.78"/>
        </clipPath>
        <g clip-path="url(#_clip4)">
            <path d="M67.673,57.743L4.898,66.47L10.673,108.007L73.447,99.28L67.673,57.743Z" style="fill:#0bfaaf;"/>
            <path d="M65.236,15.889C53.964,17.574 42.54,19.222 29.929,22.141C28.676,22.431 27.432,22.961 26.157,22.91C17.459,22.561 8.488,24.323 -0.856,25.077L4.898,66.47L70.991,57.282L65.236,15.889Z" style="fill:#2affbc;fill-opacity:0.501961;"/>
        </g>
        <path d="M22.327,22.47C25.355,28.103 26.671,42.503 26.842,44.511C26.854,44.653 26.78,44.788 26.655,44.856C14.446,51.479 9.567,60.003 9.332,71.558C9.45,74.776 9.905,77.987 10.74,81.192C14.74,97.191 31.64,101.339 42.156,99.84C51.233,98.545 68.167,90.521 67.667,72.151C67.663,69.086 67.239,66.007 66.499,62.918C63.393,52.262 55.048,45.473 41.403,42.598C41.23,42.562 41.08,42.453 40.993,42.3C39.648,39.73 36.213,29.639 37.25,19.78" style="fill:none;stroke:#000;stroke-width:0.75px;"/>
        <path d="M22.179,20.263L23.072,22.073C27.869,22.705 31.861,21.789 36.388,19.77L36.669,17.667C31.641,19.248 27.331,20.26 22.179,20.263Z" style="fill:#2affbc;fill-opacity:0.501961;"/>
        <path d="M22.327,22.47C27.404,22.869 32.262,22.081 37.25,19.78" style="fill:none;stroke:#000;stroke-width:0.75px;"/>
        <path d="M36.681,57.703C51.515,55.593 63.407,56.027 64.275,58.215C65.056,60.184 52.769,64.163 37.867,66.235C22.965,68.307 10.138,67.905 10.273,65.723C10.394,63.761 21.834,59.815 36.681,57.703Z" style="fill:#007b54;"/>
        <path d="M37.117,14.534C37.715,14.585 38.007,14.806 38.464,15.339C38.554,15.442 38.58,15.585 38.532,15.713C38.241,16.47 37.787,17.191 36.014,17.83C33.277,18.816 27.138,20.235 22.635,20.12C21.033,20.166 20.518,19.804 20.273,19.279C19.877,18.433 21.023,18.231 21.156,18.163" style="fill:none;stroke:#000;stroke-width:0.24px;stroke-linecap:butt;"/>
    </g>
</svg>
