<?xml version="1.0" encoding="UTF-8" standalone="no"?>
<!DOCTYPE svg PUBLIC "-//W3C//DTD SVG 1.1//EN" "http://www.w3.org/Graphics/SVG/1.1/DTD/svg11.dtd">
<svg width="100%" height="100%" viewBox="0 0 101 101" version="1.1" xmlns="http://www.w3.org/2000/svg" xmlns:xlink="http://www.w3.org/1999/xlink" xml:space="preserve" xmlns:serif="http://www.serif.com/" style="fill-rule:evenodd;clip-rule:evenodd;stroke-linecap:round;stroke-linejoin:round;stroke-miterlimit:1.5;">
    <rect id="_2-Flasks" serif:id="2 Flasks" x="0.875" y="0.048" width="100" height="100" style="fill:none;"/>
    <g id="Flask">
        <path d="M63.942,20.136C67.081,21.015 76.118,22.363 78.839,21.571C80.629,21.05 88.37,18.32 80.043,14.656C77.578,13.571 68.284,13.326 64.944,13.599C63.082,13.752 60.148,14.329 60.006,16.297C59.84,18.604 62.185,19.643 63.942,20.136Z" style="fill:none;"/>
        <clipPath id="_clip1">
            <path d="M63.942,20.136C67.081,21.015 76.118,22.363 78.839,21.571C80.629,21.05 88.37,18.32 80.043,14.656C77.578,13.571 68.284,13.326 64.944,13.599C63.082,13.752 60.148,14.329 60.006,16.297C59.84,18.604 62.185,19.643 63.942,20.136Z"/>
        </clipPath>
        <g clip-path="url(#_clip1)">
            <path d="M108.042,17.34L41.835,9.018L35.749,57.438L101.957,65.759L108.042,17.34Z" style="fill:#ff94f8;fill-opacity:0.501961;"/>
        </g>
        <path d="M63.942,20.136C67.081,21.015 76.118,22.363 78.839,21.571C80.629,21.05 88.37,18.32 80.043,14.656C77.578,13.571 68.284,13.326 64.944,13.599C63.082,13.752 60.148,14.329 60.006,16.297C59.84,18.604 62.185,19.643 63.942,20.136Z" style="fill:none;stroke:#000;stroke-width:0.75px;"/>
        <path d="M65.515,23.697L61.792,5.112C63.829,7.197 69.698,7.999 72.478,8.335C75.592,8.71 81.362,9.662 83.488,8.966L76.74,24.626C71.713,26.299 69.955,26.003 65.515,23.697Z" style="fill:#4b3a04;"/>
        <path d="M61.792,5.112C63.853,8.925 80.067,10.401 83.488,8.967C83.299,6.833 75.883,5.094 72.917,4.835C70.335,4.609 63.283,3.009 61.792,5.112Z" style="fill:#927c37;"/>
        <path d="M63.942,20.136C65.411,26.262 62.97,40.264 62.614,42.234C62.588,42.374 62.481,42.486 62.342,42.519C48.841,45.661 41.928,52.499 38.718,63.415C38.001,66.502 37.611,69.67 37.591,72.93C37.324,89.16 52.575,97.46 63.12,98.749C72.22,99.861 90.647,96.607 94.908,79.027C95.695,76.114 96.081,73.08 96.164,69.954C95.914,59.03 89.607,50.429 77.171,44.178C77.013,44.099 76.896,43.956 76.85,43.785C76.216,40.991 75.506,30.524 79.05,21.43" style="fill:none;"/>
        <clipPath id="_clip2">
            <path d="M63.942,20.136C65.411,26.262 62.97,40.264 62.614,42.234C62.588,42.374 62.481,42.486 62.342,42.519C48.841,45.661 41.928,52.499 38.718,63.415C38.001,66.502 37.611,69.67 37.591,72.93C37.324,89.16 52.575,97.46 63.12,98.749C72.22,99.861 90.647,96.607 94.908,79.027C95.695,76.114 96.081,73.08 96.164,69.954C95.914,59.03 89.607,50.429 77.171,44.178C77.013,44.099 76.896,43.956 76.85,43.785C76.216,40.991 75.506,30.524 79.05,21.43"/>
        </clipPath>
        <g clip-path="url(#_clip2)">
            <path d="M98.633,65.341L35.749,57.438L30.603,98.386L93.486,106.289L98.633,65.341Z" style="fill:#5d003a;"/>
            <path d="M107.086,24.953C95.763,23.646 84.304,22.264 71.37,21.784C70.085,21.737 68.746,21.919 67.528,21.542C59.218,18.966 50.098,18.326 40.878,16.632L35.749,57.438L101.957,65.759L107.086,24.953Z" style="fill:#ff2af1;fill-opacity:0.501961;"/>
        </g>
        <path d="M63.942,20.136C65.411,26.262 62.97,40.264 62.614,42.234C62.588,42.374 62.481,42.486 62.342,42.519C48.841,45.661 41.928,52.499 38.718,63.415C38.001,66.502 37.611,69.67 37.591,72.93C37.324,89.16 52.575,97.46 63.12,98.749C72.22,99.861 90.647,96.607 94.908,79.027C95.695,76.114 96.081,73.08 96.164,69.954C95.914,59.03 89.607,50.429 77.171,44.178C77.013,44.099 76.896,43.956 76.85,43.785C76.216,40.991 75.506,30.524 79.05,21.43" style="fill:none;stroke:#000;stroke-width:0.75px;"/>
        <path d="M64.369,18.001L64.765,19.951C69.234,21.788 73.327,21.948 78.221,21.198L79.035,19.273C73.771,19.477 69.347,19.328 64.369,18.001Z" style="fill:#ff2af1;fill-opacity:0.501961;"/>
        <path d="M63.942,20.136C68.744,21.824 73.639,22.329 79.05,21.43" style="fill:none;stroke:#000;stroke-width:0.75px;"/>
        <path d="M68.71,57.309C83.583,59.131 94.956,62.611 95.229,64.914C95.475,66.985 82.581,67.596 67.653,65.719C52.725,63.843 40.44,60.153 41.134,58.115C41.757,56.282 53.825,55.485 68.71,57.309Z" style="fill:#d00082;"/>
        <path d="M80.276,16.412C80.839,16.614 81.065,16.898 81.366,17.519C81.429,17.642 81.416,17.791 81.335,17.903C80.859,18.544 80.233,19.11 78.36,19.259C75.462,19.489 69.166,19.253 64.847,17.983C63.288,17.614 62.884,17.136 62.782,16.575C62.619,15.668 63.778,15.772 63.924,15.743" style="fill:none;stroke:#000;stroke-width:0.24px;stroke-linecap:butt;"/>
    </g>
    <g id="Flask1" serif:id="Flask">
        <path d="M22.623,21.772C25.884,21.812 34.961,20.767 37.379,19.276C38.971,18.295 45.726,13.587 36.727,12.174C34.063,11.755 25.027,13.951 21.875,15.095C20.117,15.733 17.437,17.068 17.816,19.037C18.261,21.344 20.798,21.75 22.623,21.772Z" style="fill:none;"/>
        <clipPath id="_clip3">
            <path d="M22.623,21.772C25.884,21.812 34.961,20.767 37.379,19.276C38.971,18.295 45.726,13.587 36.727,12.174C34.063,11.755 25.027,13.951 21.875,15.095C20.117,15.733 17.437,17.068 17.816,19.037C18.261,21.344 20.798,21.75 22.623,21.772Z"/>
        </clipPath>
        <g clip-path="url(#_clip3)">
            <path d="M64.459,7.468L-1.634,16.656L5.195,65.772L71.287,56.584L64.459,7.468Z" style="fill:#ff94f8;fill-opacity:0.501961;"/>
        </g>
        <path d="M22.623,21.772C25.884,21.812 34.961,20.767 37.379,19.276C38.971,18.295 45.726,13.587 36.727,12.174C34.063,11.755 25.027,13.951 21.875,15.095C20.117,15.733 17.437,17.068 17.816,19.037C18.261,21.344 20.798,21.75 22.623,21.772Z" style="fill:none;stroke:#000;stroke-width:0.75px;"/>
        <path d="M25.075,24.855L16.606,7.591C19.12,9.103 24.995,8.352 27.766,7.953C30.871,7.505 36.691,6.927 38.56,5.687L36.155,22.824C31.741,25.784 29.966,25.954 25.075,24.855Z" style="fill:#4b3a04;"/>
        <path d="M16.606,7.591C19.596,10.793 35.634,7.992 38.561,5.688C37.818,3.642 30.203,3.88 27.273,4.403C24.72,4.858 17.494,5.136 16.606,7.591Z" style="fill:#927c37;"/>
        <path d="M22.623,21.772C25.651,27.405 26.967,41.805 27.138,43.814C27.15,43.955 27.077,44.091 26.952,44.159C14.742,50.782 9.863,59.306 9.628,70.861C9.746,74.078 10.201,77.29 11.037,80.494C15.036,96.493 31.936,100.641 42.453,99.142C51.529,97.848 68.463,89.823 67.964,71.453C67.96,68.388 67.536,65.31 66.796,62.22C63.689,51.564 55.344,44.776 41.699,41.901C41.526,41.864 41.377,41.756 41.289,41.602C39.945,39.032 36.51,28.941 37.546,19.082" style="fill:none;"/>
        <clipPath id="_clip4">
            <path d="M22.623,21.772C25.651,27.405 26.967,41.805 27.138,43.814C27.15,43.955 27.077,44.091 26.952,44.159C14.742,50.782 9.863,59.306 9.628,70.861C9.746,74.078 10.201,77.29 11.037,80.494C15.036,96.493 31.936,100.641 42.453,99.142C51.529,97.848 68.463,89.823 67.964,71.453C67.96,68.388 67.536,65.31 66.796,62.22C63.689,51.564 55.344,44.776 41.699,41.901C41.526,41.864 41.377,41.756 41.289,41.602C39.945,39.032 36.51,28.941 37.546,19.082"/>
        </clipPath>
        <g clip-path="url(#_clip4)">
            <path d="M67.969,57.045L5.195,65.772L10.969,107.309L73.744,98.582L67.969,57.045Z" style="fill:#5d003a;"/>
            <path d="M65.533,15.191C54.26,16.876 42.837,18.524 30.226,21.443C28.973,21.733 27.728,22.263 26.454,22.212C17.756,21.863 8.785,23.625 -0.56,24.38L5.195,65.772L71.287,56.584L65.533,15.191Z" style="fill:#ff2af1;fill-opacity:0.501961;"/>
        </g>
        <path d="M22.623,21.772C25.651,27.405 26.967,41.805 27.138,43.814C27.15,43.955 27.077,44.091 26.952,44.159C14.742,50.782 9.863,59.306 9.628,70.861C9.746,74.078 10.201,77.29 11.037,80.494C15.036,96.493 31.936,100.641 42.453,99.142C51.529,97.848 68.463,89.823 67.964,71.453C67.96,68.388 67.536,65.31 66.796,62.22C63.689,51.564 55.344,44.776 41.699,41.901C41.526,41.864 41.377,41.756 41.289,41.602C39.945,39.032 36.51,28.941 37.546,19.082" style="fill:none;stroke:#000;stroke-width:0.75px;"/>
        <path d="M22.475,19.565L23.369,21.375C28.165,22.007 32.157,21.091 36.685,19.072L36.966,16.969C31.938,18.55 27.628,19.563 22.475,19.565Z" style="fill:#ff2af1;fill-opacity:0.501961;"/>
        <path d="M22.623,21.772C27.701,22.171 32.558,21.384 37.546,19.082" style="fill:none;stroke:#000;stroke-width:0.75px;"/>
        <path d="M36.977,57.006C51.812,54.896 63.704,55.33 64.572,57.518C65.352,59.487 53.066,63.466 38.164,65.537C23.261,67.609 10.435,67.208 10.569,65.025C10.69,63.064 22.131,59.117 36.977,57.006Z" style="fill:#d00082;"/>
        <path d="M37.413,13.836C38.012,13.887 38.304,14.108 38.76,14.641C38.85,14.744 38.876,14.888 38.828,15.015C38.538,15.772 38.084,16.493 36.31,17.132C33.573,18.118 27.434,19.537 22.932,19.422C21.33,19.469 20.814,19.106 20.569,18.582C20.174,17.735 21.32,17.533 21.453,17.466" style="fill:none;stroke:#000;stroke-width:0.24px;stroke-linecap:butt;"/>
    </g>
</svg>
