<?xml version="1.0" encoding="UTF-8" standalone="no"?>
<!DOCTYPE svg PUBLIC "-//W3C//DTD SVG 1.1//EN" "http://www.w3.org/Graphics/SVG/1.1/DTD/svg11.dtd">
<svg width="100%" height="100%" viewBox="0 0 101 101" version="1.1" xmlns="http://www.w3.org/2000/svg" xmlns:xlink="http://www.w3.org/1999/xlink" xml:space="preserve" xmlns:serif="http://www.serif.com/" style="fill-rule:evenodd;clip-rule:evenodd;stroke-linecap:round;stroke-linejoin:round;stroke-miterlimit:1.5;">
    <rect id="_3-Flasks" serif:id="3 Flasks" x="0.443" y="0.745" width="100" height="100" style="fill:none;"/>
    <g id="Flask">
        <path d="M49.349,16.337C51.785,17.02 58.8,18.067 60.911,17.452C62.301,17.047 68.309,14.928 61.846,12.084C59.932,11.242 52.718,11.052 50.126,11.264C48.681,11.383 46.404,11.831 46.294,13.358C46.165,15.148 47.985,15.955 49.349,16.337Z" style="fill:none;"/>
        <clipPath id="_clip1">
            <path d="M49.349,16.337C51.785,17.02 58.8,18.067 60.911,17.452C62.301,17.047 68.309,14.928 61.846,12.084C59.932,11.242 52.718,11.052 50.126,11.264C48.681,11.383 46.404,11.831 46.294,13.358C46.165,15.148 47.985,15.955 49.349,16.337Z"/>
        </clipPath>
        <g clip-path="url(#_clip1)">
            <path d="M83.579,14.167L32.189,7.708L27.466,45.291L78.855,51.75L83.579,14.167Z" style="fill:#2affbc;fill-opacity:0.501961;"/>
        </g>
        <path d="M49.349,16.337C51.785,17.02 58.8,18.067 60.911,17.452C62.301,17.047 68.309,14.928 61.846,12.084C59.932,11.242 52.718,11.052 50.126,11.264C48.681,11.383 46.404,11.831 46.294,13.358C46.165,15.148 47.985,15.955 49.349,16.337Z" style="fill:none;stroke:#000;stroke-width:0.75px;"/>
        <path d="M50.569,19.102L47.68,4.676C49.261,6.294 53.817,6.917 55.974,7.178C58.391,7.469 62.87,8.208 64.52,7.668L59.283,19.823C55.38,21.121 54.016,20.891 50.569,19.102Z" style="fill:#4b3a04;"/>
        <path d="M47.68,4.676C49.28,7.636 61.865,8.782 64.52,7.669C64.373,6.012 58.617,4.662 56.315,4.461C54.31,4.286 48.837,3.044 47.68,4.676Z" style="fill:#927c37;"/>
        <path d="M49.349,16.337C50.477,21.042 48.634,31.73 48.327,33.438C48.301,33.578 48.195,33.69 48.056,33.723C37.61,36.167 32.257,41.472 29.77,49.931C29.214,52.327 28.911,54.786 28.895,57.316C28.688,69.914 40.526,76.356 48.71,77.357C55.774,78.22 70.077,75.694 73.384,62.048C73.995,59.788 74.294,57.433 74.359,55.007C74.166,46.544 69.289,39.878 59.674,35.028C59.516,34.949 59.399,34.805 59.354,34.634C58.866,32.378 58.349,24.337 61.075,17.342" style="fill:none;"/>
        <clipPath id="_clip2">
            <path d="M49.349,16.337C50.477,21.042 48.634,31.73 48.327,33.438C48.301,33.578 48.195,33.69 48.056,33.723C37.61,36.167 32.257,41.472 29.77,49.931C29.214,52.327 28.911,54.786 28.895,57.316C28.688,69.914 40.526,76.356 48.71,77.357C55.774,78.22 70.077,75.694 73.384,62.048C73.995,59.788 74.294,57.433 74.359,55.007C74.166,46.544 69.289,39.878 59.674,35.028C59.516,34.949 59.399,34.805 59.354,34.634C58.866,32.378 58.349,24.337 61.075,17.342"/>
        </clipPath>
        <g clip-path="url(#_clip2)">
            <path d="M76.275,51.426L27.466,45.291L23.471,77.075L72.281,83.209L76.275,51.426Z" style="fill:#0bfaaf;"/>
            <path d="M82.836,20.077C74.048,19.062 65.154,17.99 55.114,17.617C54.117,17.58 53.078,17.722 52.132,17.429C45.682,15.43 38.603,14.933 31.447,13.618L27.466,45.291L78.855,51.75L82.836,20.077Z" style="fill:#2affbc;fill-opacity:0.501961;"/>
        </g>
        <path d="M49.349,16.337C50.477,21.042 48.634,31.73 48.327,33.438C48.301,33.578 48.195,33.69 48.056,33.723C37.61,36.167 32.257,41.472 29.77,49.931C29.214,52.327 28.911,54.786 28.895,57.316C28.688,69.914 40.526,76.356 48.71,77.357C55.774,78.22 70.077,75.694 73.384,62.048C73.995,59.788 74.294,57.433 74.359,55.007C74.166,46.544 69.289,39.878 59.674,35.028C59.516,34.949 59.399,34.805 59.354,34.634C58.866,32.378 58.349,24.337 61.075,17.342" style="fill:none;stroke:#000;stroke-width:0.75px;"/>
        <path d="M49.68,14.68L49.988,16.194C53.456,17.62 56.633,17.744 60.432,17.162L61.064,15.668C56.978,15.827 53.544,15.71 49.68,14.68Z" style="fill:#2affbc;fill-opacity:0.501961;"/>
        <path d="M49.349,16.337C53.076,17.648 56.875,18.04 61.075,17.342" style="fill:none;stroke:#000;stroke-width:0.75px;"/>
        <path d="M53.049,45.191C64.593,46.605 73.422,49.307 73.634,51.094C73.824,52.702 63.816,53.176 52.229,51.719C40.642,50.263 31.106,47.399 31.645,45.816C32.129,44.394 41.496,43.775 53.049,45.191Z" style="fill:#007b54;"/>
        <path d="M62.027,13.447C62.449,13.599 62.626,13.809 62.849,14.256C62.913,14.381 62.901,14.533 62.817,14.646C62.451,15.127 61.953,15.544 60.54,15.657C58.29,15.836 53.404,15.653 50.051,14.666C48.841,14.38 48.527,14.009 48.448,13.574C48.322,12.87 49.221,12.951 49.334,12.928" style="fill:none;stroke:#000;stroke-width:0.24px;stroke-linecap:butt;"/>
    </g>
    <g id="Flask1" serif:id="Flask">
        <path d="M72.349,35.337C74.785,36.02 81.8,37.067 83.911,36.452C85.301,36.047 91.309,33.928 84.846,31.084C82.932,30.242 75.718,30.052 73.126,30.264C71.681,30.383 69.404,30.831 69.294,32.358C69.165,34.148 70.985,34.955 72.349,35.337Z" style="fill:none;"/>
        <clipPath id="_clip3">
            <path d="M72.349,35.337C74.785,36.02 81.8,37.067 83.911,36.452C85.301,36.047 91.309,33.928 84.846,31.084C82.932,30.242 75.718,30.052 73.126,30.264C71.681,30.383 69.404,30.831 69.294,32.358C69.165,34.148 70.985,34.955 72.349,35.337Z"/>
        </clipPath>
        <g clip-path="url(#_clip3)">
            <path d="M106.579,33.167L55.189,26.708L50.466,64.291L101.855,70.75L106.579,33.167Z" style="fill:#2affbc;fill-opacity:0.501961;"/>
        </g>
        <path d="M72.349,35.337C74.785,36.02 81.8,37.067 83.911,36.452C85.301,36.047 91.309,33.928 84.846,31.084C82.932,30.242 75.718,30.052 73.126,30.264C71.681,30.383 69.404,30.831 69.294,32.358C69.165,34.148 70.985,34.955 72.349,35.337Z" style="fill:none;stroke:#000;stroke-width:0.75px;"/>
        <path d="M73.569,38.102L70.68,23.676C72.261,25.294 76.817,25.917 78.974,26.178C81.391,26.469 85.87,27.208 87.52,26.668L82.283,38.823C78.38,40.121 77.016,39.891 73.569,38.102Z" style="fill:#4b3a04;"/>
        <path d="M70.68,23.676C72.28,26.636 84.865,27.782 87.52,26.669C87.373,25.012 81.617,23.662 79.315,23.461C77.31,23.286 71.837,22.044 70.68,23.676Z" style="fill:#927c37;"/>
        <path d="M72.349,35.337C73.477,40.042 71.634,50.73 71.327,52.438C71.301,52.578 71.195,52.69 71.056,52.723C60.61,55.167 55.257,60.472 52.77,68.931C52.214,71.327 51.911,73.786 51.895,76.316C51.688,88.914 63.526,95.356 71.71,96.357C78.774,97.22 93.077,94.694 96.384,81.048C96.995,78.788 97.294,76.433 97.359,74.007C97.166,65.544 92.289,58.878 82.674,54.028C82.516,53.949 82.399,53.805 82.354,53.634C81.866,51.378 81.349,43.337 84.075,36.342" style="fill:none;"/>
        <clipPath id="_clip4">
            <path d="M72.349,35.337C73.477,40.042 71.634,50.73 71.327,52.438C71.301,52.578 71.195,52.69 71.056,52.723C60.61,55.167 55.257,60.472 52.77,68.931C52.214,71.327 51.911,73.786 51.895,76.316C51.688,88.914 63.526,95.356 71.71,96.357C78.774,97.22 93.077,94.694 96.384,81.048C96.995,78.788 97.294,76.433 97.359,74.007C97.166,65.544 92.289,58.878 82.674,54.028C82.516,53.949 82.399,53.805 82.354,53.634C81.866,51.378 81.349,43.337 84.075,36.342"/>
        </clipPath>
        <g clip-path="url(#_clip4)">
            <path d="M99.275,70.426L50.466,64.291L46.471,96.075L95.281,102.209L99.275,70.426Z" style="fill:#0bfaaf;"/>
            <path d="M105.836,39.077C97.048,38.062 88.154,36.99 78.114,36.617C77.117,36.58 76.078,36.722 75.132,36.429C68.682,34.43 61.603,33.933 54.447,32.618L50.466,64.291L101.855,70.75L105.836,39.077Z" style="fill:#2affbc;fill-opacity:0.501961;"/>
        </g>
        <path d="M72.349,35.337C73.477,40.042 71.634,50.73 71.327,52.438C71.301,52.578 71.195,52.69 71.056,52.723C60.61,55.167 55.257,60.472 52.77,68.931C52.214,71.327 51.911,73.786 51.895,76.316C51.688,88.914 63.526,95.356 71.71,96.357C78.774,97.22 93.077,94.694 96.384,81.048C96.995,78.788 97.294,76.433 97.359,74.007C97.166,65.544 92.289,58.878 82.674,54.028C82.516,53.949 82.399,53.805 82.354,53.634C81.866,51.378 81.349,43.337 84.075,36.342" style="fill:none;stroke:#000;stroke-width:0.75px;"/>
        <path d="M72.68,33.68L72.988,35.194C76.456,36.62 79.633,36.744 83.432,36.162L84.064,34.668C79.978,34.827 76.544,34.71 72.68,33.68Z" style="fill:#2affbc;fill-opacity:0.501961;"/>
        <path d="M72.349,35.337C76.076,36.648 79.875,37.04 84.075,36.342" style="fill:none;stroke:#000;stroke-width:0.75px;"/>
        <path d="M76.049,64.191C87.593,65.605 96.422,68.307 96.634,70.094C96.824,71.702 86.816,72.176 75.229,70.719C63.642,69.263 54.106,66.399 54.645,64.816C55.129,63.394 64.496,62.775 76.049,64.191Z" style="fill:#007b54;"/>
        <path d="M85.027,32.447C85.449,32.599 85.626,32.809 85.849,33.256C85.913,33.381 85.901,33.533 85.817,33.646C85.451,34.127 84.953,34.544 83.54,34.657C81.29,34.836 76.404,34.653 73.051,33.666C71.841,33.38 71.527,33.009 71.448,32.574C71.322,31.87 72.221,31.951 72.334,31.928" style="fill:none;stroke:#000;stroke-width:0.24px;stroke-linecap:butt;"/>
    </g>
    <g id="Flask2" serif:id="Flask">
        <path d="M10.879,36.919C13.339,36.323 19.965,33.794 21.498,32.209C22.506,31.166 26.683,26.327 19.644,26.992C17.56,27.189 11.186,30.575 9.035,32.041C7.835,32.858 6.076,34.377 6.739,35.785C7.517,37.435 9.502,37.253 10.879,36.919Z" style="fill:none;"/>
        <clipPath id="_clip5">
            <path d="M10.879,36.919C13.339,36.323 19.965,33.794 21.498,32.209C22.506,31.166 26.683,26.327 19.644,26.992C17.56,27.189 11.186,30.575 9.035,32.041C7.835,32.858 6.076,34.377 6.739,35.785C7.517,37.435 9.502,37.253 10.879,36.919Z"/>
        </clipPath>
        <g clip-path="url(#_clip5)">
            <path d="M39.596,18.129L-8.346,37.729L6.22,73.357L54.162,53.756L39.596,18.129Z" style="fill:#2affbc;fill-opacity:0.501961;"/>
        </g>
        <path d="M10.879,36.919C13.339,36.323 19.965,33.794 21.498,32.209C22.506,31.166 26.683,26.327 19.644,26.992C17.56,27.189 11.186,30.575 9.035,32.041C7.835,32.858 6.076,34.377 6.739,35.785C7.517,37.435 9.502,37.253 10.879,36.919Z" style="fill:none;stroke:#000;stroke-width:0.75px;"/>
        <path d="M13.315,38.767L3.631,27.409C5.812,28.064 10.087,26.371 12.094,25.539C14.343,24.606 18.609,23.053 19.777,21.762L21.258,35.112C18.507,38.185 17.205,38.654 13.315,38.767Z" style="fill:#4b3a04;"/>
        <path d="M3.631,27.409C6.495,29.243 18.019,24.057 19.777,21.762C18.826,20.367 13.144,22.007 11.041,22.963C9.209,23.796 3.827,25.392 3.631,27.409Z" style="fill:#927c37;"/>
        <path d="M10.879,36.919C14.203,40.535 17.914,50.929 18.49,52.579C18.536,52.714 18.499,52.863 18.395,52.96C10.516,60.273 8.493,67.611 10.532,76.332C11.238,78.729 12.197,81.057 13.441,83.307C19.52,94.571 33.027,94.446 40.648,91.299C47.226,88.583 58.42,79.297 54.518,65.577C53.926,63.273 53.016,61.039 51.866,58.857C47.493,51.454 39.935,47.951 29.155,48.392C28.978,48.399 28.806,48.33 28.683,48.203C27.14,46.45 22.69,39.576 21.586,32.031" style="fill:none;"/>
        <clipPath id="_clip6">
            <path d="M10.879,36.919C14.203,40.535 17.914,50.929 18.49,52.579C18.536,52.714 18.499,52.863 18.395,52.96C10.516,60.273 8.493,67.611 10.532,76.332C11.238,78.729 12.197,81.057 13.441,83.307C19.52,94.571 33.027,94.446 40.648,91.299C47.226,88.583 58.42,79.297 54.518,65.577C53.926,63.273 53.016,61.039 51.866,58.857C47.493,51.454 39.935,47.951 29.155,48.392C28.978,48.399 28.806,48.33 28.683,48.203C27.14,46.45 22.69,39.576 21.586,32.031"/>
        </clipPath>
        <g clip-path="url(#_clip6)">
            <path d="M51.755,54.74L6.22,73.357L18.538,103.487L64.074,84.87L51.755,54.74Z" style="fill:#0bfaaf;"/>
            <path d="M41.887,23.731C33.732,27.162 25.458,30.595 16.534,35.212C15.647,35.671 14.813,36.308 13.845,36.514C7.236,37.922 0.828,40.97 -6.055,43.331L6.22,73.357L54.162,53.756L41.887,23.731Z" style="fill:#2affbc;fill-opacity:0.501961;"/>
        </g>
        <path d="M10.879,36.919C14.203,40.535 17.914,50.929 18.49,52.579C18.536,52.714 18.499,52.863 18.395,52.96C10.516,60.273 8.493,67.611 10.532,76.332C11.238,78.729 12.197,81.057 13.441,83.307C19.52,94.571 33.027,94.446 40.648,91.299C47.226,88.583 58.42,79.297 54.518,65.577C53.926,63.273 53.016,61.039 51.866,58.857C47.493,51.454 39.935,47.951 29.155,48.392C28.978,48.399 28.806,48.33 28.683,48.203C27.14,46.45 22.69,39.576 21.586,32.031" style="fill:none;stroke:#000;stroke-width:0.75px;"/>
        <path d="M10.344,35.288L11.364,36.477C15.092,36.031 17.919,34.576 20.936,32.189L20.744,30.553C17.266,32.707 14.219,34.296 10.344,35.288Z" style="fill:#2affbc;fill-opacity:0.501961;"/>
        <path d="M10.879,36.919C14.775,36.244 18.277,34.719 21.586,32.031" style="fill:none;stroke:#000;stroke-width:0.75px;"/>
        <path d="M28.44,60.661C39.191,56.226 48.218,54.269 49.291,55.748C50.256,57.079 41.78,62.43 30.97,66.85C20.16,71.269 10.437,73.43 10.119,71.763C9.833,70.264 17.68,65.1 28.44,60.661Z" style="fill:#007b54;"/>
        <path d="M20.479,28.111C20.923,28.037 21.182,28.137 21.601,28.427C21.717,28.504 21.78,28.639 21.764,28.777C21.684,29.386 21.46,30.003 20.282,30.802C18.413,32.069 14.068,34.314 10.66,35.093C9.464,35.435 9.007,35.261 8.722,34.914C8.262,34.353 9.085,33.981 9.172,33.905" style="fill:none;stroke:#000;stroke-width:0.24px;stroke-linecap:butt;"/>
    </g>
</svg>
