<?xml version="1.0" encoding="UTF-8" standalone="no"?>
<!DOCTYPE svg PUBLIC "-//W3C//DTD SVG 1.1//EN" "http://www.w3.org/Graphics/SVG/1.1/DTD/svg11.dtd">
<svg width="100%" height="100%" viewBox="0 0 101 101" version="1.1" xmlns="http://www.w3.org/2000/svg" xmlns:xlink="http://www.w3.org/1999/xlink" xml:space="preserve" xmlns:serif="http://www.serif.com/" style="fill-rule:evenodd;clip-rule:evenodd;stroke-linecap:round;stroke-linejoin:round;stroke-miterlimit:1.5;">
    <rect id="_3-Flasks" serif:id="3 Flasks" x="0.042" y="0.898" width="100" height="100" style="fill:none;"/>
    <g id="Flask">
        <path d="M48.948,16.49C51.384,17.173 58.399,18.22 60.511,17.605C61.9,17.2 67.908,15.081 61.445,12.237C59.532,11.395 52.318,11.205 49.726,11.417C48.28,11.535 46.003,11.984 45.893,13.511C45.764,15.301 47.584,16.108 48.948,16.49Z" style="fill:none;"/>
        <clipPath id="_clip1">
            <path d="M48.948,16.49C51.384,17.173 58.399,18.22 60.511,17.605C61.9,17.2 67.908,15.081 61.445,12.237C59.532,11.395 52.318,11.205 49.726,11.417C48.28,11.535 46.003,11.984 45.893,13.511C45.764,15.301 47.584,16.108 48.948,16.49Z"/>
        </clipPath>
        <g clip-path="url(#_clip1)">
            <path d="M83.178,14.32L31.788,7.861L27.065,45.444L78.455,51.903L83.178,14.32Z" style="fill:#ff94f8;fill-opacity:0.501961;"/>
        </g>
        <path d="M48.948,16.49C51.384,17.173 58.399,18.22 60.511,17.605C61.9,17.2 67.908,15.081 61.445,12.237C59.532,11.395 52.318,11.205 49.726,11.417C48.28,11.535 46.003,11.984 45.893,13.511C45.764,15.301 47.584,16.108 48.948,16.49Z" style="fill:none;stroke:#000;stroke-width:0.75px;"/>
        <path d="M50.168,19.254L47.279,4.829C48.86,6.447 53.416,7.07 55.573,7.331C57.99,7.622 62.469,8.361 64.119,7.821L58.882,19.976C54.98,21.274 53.615,21.044 50.168,19.254Z" style="fill:#4b3a04;"/>
        <path d="M47.279,4.829C48.879,7.789 61.464,8.935 64.119,7.822C63.972,6.165 58.216,4.815 55.914,4.614C53.91,4.439 48.437,3.197 47.279,4.829Z" style="fill:#927c37;"/>
        <path d="M48.948,16.49C50.076,21.195 48.234,31.883 47.926,33.591C47.9,33.731 47.794,33.843 47.655,33.876C37.209,36.32 31.857,41.625 29.369,50.084C28.813,52.48 28.51,54.939 28.494,57.469C28.287,70.066 40.125,76.509 48.31,77.509C55.373,78.373 69.676,75.847 72.983,62.201C73.595,59.941 73.894,57.586 73.958,55.159C73.765,46.697 68.888,40.031 59.274,35.181C59.115,35.101 58.999,34.958 58.953,34.787C58.465,32.531 57.948,24.49 60.675,17.495" style="fill:none;"/>
        <clipPath id="_clip2">
            <path d="M48.948,16.49C50.076,21.195 48.234,31.883 47.926,33.591C47.9,33.731 47.794,33.843 47.655,33.876C37.209,36.32 31.857,41.625 29.369,50.084C28.813,52.48 28.51,54.939 28.494,57.469C28.287,70.066 40.125,76.509 48.31,77.509C55.373,78.373 69.676,75.847 72.983,62.201C73.595,59.941 73.894,57.586 73.958,55.159C73.765,46.697 68.888,40.031 59.274,35.181C59.115,35.101 58.999,34.958 58.953,34.787C58.465,32.531 57.948,24.49 60.675,17.495"/>
        </clipPath>
        <g clip-path="url(#_clip2)">
            <path d="M75.875,51.579L27.065,45.444L23.07,77.228L71.88,83.362L75.875,51.579Z" style="fill:#5d003a;"/>
            <path d="M82.435,20.23C73.647,19.215 64.753,18.143 54.714,17.77C53.716,17.733 52.677,17.875 51.732,17.582C45.281,15.583 38.202,15.086 31.046,13.771L27.065,45.444L78.455,51.903L82.435,20.23Z" style="fill:#ff2af1;fill-opacity:0.501961;"/>
        </g>
        <path d="M48.948,16.49C50.076,21.195 48.234,31.883 47.926,33.591C47.9,33.731 47.794,33.843 47.655,33.876C37.209,36.32 31.857,41.625 29.369,50.084C28.813,52.48 28.51,54.939 28.494,57.469C28.287,70.066 40.125,76.509 48.31,77.509C55.373,78.373 69.676,75.847 72.983,62.201C73.595,59.941 73.894,57.586 73.958,55.159C73.765,46.697 68.888,40.031 59.274,35.181C59.115,35.101 58.999,34.958 58.953,34.787C58.465,32.531 57.948,24.49 60.675,17.495" style="fill:none;stroke:#000;stroke-width:0.75px;"/>
        <path d="M49.28,14.833L49.587,16.347C53.056,17.773 56.232,17.897 60.031,17.315L60.663,15.821C56.577,15.979 53.143,15.863 49.28,14.833Z" style="fill:#ff2af1;fill-opacity:0.501961;"/>
        <path d="M48.948,16.49C52.675,17.801 56.474,18.193 60.675,17.495" style="fill:none;stroke:#000;stroke-width:0.75px;"/>
        <path d="M52.649,45.344C64.193,46.758 73.021,49.46 73.233,51.247C73.424,52.855 63.415,53.329 51.828,51.872C40.241,50.416 30.706,47.552 31.244,45.969C31.728,44.547 41.095,43.928 52.649,45.344Z" style="fill:#d00082;"/>
        <path d="M61.626,13.6C62.048,13.751 62.226,13.962 62.448,14.409C62.513,14.534 62.501,14.686 62.416,14.799C62.051,15.28 61.552,15.697 60.139,15.81C57.889,15.989 53.003,15.805 49.65,14.819C48.44,14.533 48.126,14.162 48.048,13.726C47.921,13.023 48.821,13.104 48.934,13.081" style="fill:none;stroke:#000;stroke-width:0.24px;stroke-linecap:butt;"/>
    </g>
    <g id="Flask1" serif:id="Flask">
        <path d="M71.948,35.49C74.384,36.173 81.399,37.22 83.511,36.605C84.9,36.2 90.908,34.081 84.445,31.237C82.532,30.395 75.318,30.205 72.726,30.417C71.28,30.535 69.003,30.984 68.893,32.511C68.764,34.301 70.584,35.108 71.948,35.49Z" style="fill:none;"/>
        <clipPath id="_clip3">
            <path d="M71.948,35.49C74.384,36.173 81.399,37.22 83.511,36.605C84.9,36.2 90.908,34.081 84.445,31.237C82.532,30.395 75.318,30.205 72.726,30.417C71.28,30.535 69.003,30.984 68.893,32.511C68.764,34.301 70.584,35.108 71.948,35.49Z"/>
        </clipPath>
        <g clip-path="url(#_clip3)">
            <path d="M106.178,33.32L54.788,26.861L50.065,64.444L101.455,70.903L106.178,33.32Z" style="fill:#ff94f8;fill-opacity:0.501961;"/>
        </g>
        <path d="M71.948,35.49C74.384,36.173 81.399,37.22 83.511,36.605C84.9,36.2 90.908,34.081 84.445,31.237C82.532,30.395 75.318,30.205 72.726,30.417C71.28,30.535 69.003,30.984 68.893,32.511C68.764,34.301 70.584,35.108 71.948,35.49Z" style="fill:none;stroke:#000;stroke-width:0.75px;"/>
        <path d="M73.168,38.254L70.279,23.829C71.86,25.447 76.416,26.07 78.573,26.331C80.99,26.622 85.469,27.361 87.119,26.821L81.882,38.976C77.98,40.274 76.615,40.044 73.168,38.254Z" style="fill:#4b3a04;"/>
        <path d="M70.279,23.829C71.879,26.789 84.464,27.935 87.119,26.822C86.972,25.165 81.216,23.815 78.914,23.614C76.91,23.439 71.437,22.197 70.279,23.829Z" style="fill:#927c37;"/>
        <path d="M71.948,35.49C73.076,40.195 71.234,50.883 70.926,52.591C70.9,52.731 70.794,52.843 70.655,52.876C60.209,55.32 54.857,60.625 52.369,69.084C51.813,71.48 51.51,73.939 51.494,76.469C51.287,89.066 63.125,95.509 71.31,96.509C78.373,97.373 92.676,94.847 95.983,81.201C96.595,78.941 96.894,76.586 96.958,74.159C96.765,65.697 91.888,59.031 82.274,54.181C82.115,54.101 81.999,53.958 81.953,53.787C81.465,51.531 80.948,43.49 83.675,36.495" style="fill:none;"/>
        <clipPath id="_clip4">
            <path d="M71.948,35.49C73.076,40.195 71.234,50.883 70.926,52.591C70.9,52.731 70.794,52.843 70.655,52.876C60.209,55.32 54.857,60.625 52.369,69.084C51.813,71.48 51.51,73.939 51.494,76.469C51.287,89.066 63.125,95.509 71.31,96.509C78.373,97.373 92.676,94.847 95.983,81.201C96.595,78.941 96.894,76.586 96.958,74.159C96.765,65.697 91.888,59.031 82.274,54.181C82.115,54.101 81.999,53.958 81.953,53.787C81.465,51.531 80.948,43.49 83.675,36.495"/>
        </clipPath>
        <g clip-path="url(#_clip4)">
            <path d="M98.875,70.579L50.065,64.444L46.07,96.228L94.88,102.362L98.875,70.579Z" style="fill:#5d003a;"/>
            <path d="M105.435,39.23C96.647,38.215 87.753,37.143 77.714,36.77C76.716,36.733 75.677,36.875 74.732,36.582C68.281,34.583 61.202,34.086 54.046,32.771L50.065,64.444L101.455,70.903L105.435,39.23Z" style="fill:#ff2af1;fill-opacity:0.501961;"/>
        </g>
        <path d="M71.948,35.49C73.076,40.195 71.234,50.883 70.926,52.591C70.9,52.731 70.794,52.843 70.655,52.876C60.209,55.32 54.857,60.625 52.369,69.084C51.813,71.48 51.51,73.939 51.494,76.469C51.287,89.066 63.125,95.509 71.31,96.509C78.373,97.373 92.676,94.847 95.983,81.201C96.595,78.941 96.894,76.586 96.958,74.159C96.765,65.697 91.888,59.031 82.274,54.181C82.115,54.101 81.999,53.958 81.953,53.787C81.465,51.531 80.948,43.49 83.675,36.495" style="fill:none;stroke:#000;stroke-width:0.75px;"/>
        <path d="M72.28,33.833L72.587,35.347C76.056,36.773 79.232,36.897 83.031,36.315L83.663,34.821C79.577,34.979 76.143,34.863 72.28,33.833Z" style="fill:#ff2af1;fill-opacity:0.501961;"/>
        <path d="M71.948,35.49C75.675,36.801 79.474,37.193 83.675,36.495" style="fill:none;stroke:#000;stroke-width:0.75px;"/>
        <path d="M75.649,64.344C87.193,65.758 96.021,68.46 96.233,70.247C96.424,71.855 86.415,72.329 74.828,70.872C63.241,69.416 53.706,66.552 54.244,64.969C54.728,63.547 64.095,62.928 75.649,64.344Z" style="fill:#d00082;"/>
        <path d="M84.626,32.6C85.048,32.751 85.226,32.962 85.448,33.409C85.513,33.534 85.501,33.686 85.416,33.799C85.051,34.28 84.552,34.697 83.139,34.81C80.889,34.989 76.003,34.805 72.65,33.819C71.44,33.533 71.126,33.162 71.048,32.726C70.921,32.023 71.821,32.104 71.934,32.081" style="fill:none;stroke:#000;stroke-width:0.24px;stroke-linecap:butt;"/>
    </g>
    <g id="Flask2" serif:id="Flask">
        <path d="M10.478,37.072C12.938,36.476 19.564,33.947 21.097,32.362C22.105,31.318 26.282,26.48 19.243,27.145C17.159,27.342 10.785,30.728 8.634,32.194C7.434,33.011 5.675,34.53 6.338,35.938C7.116,37.588 9.101,37.406 10.478,37.072Z" style="fill:none;"/>
        <clipPath id="_clip5">
            <path d="M10.478,37.072C12.938,36.476 19.564,33.947 21.097,32.362C22.105,31.318 26.282,26.48 19.243,27.145C17.159,27.342 10.785,30.728 8.634,32.194C7.434,33.011 5.675,34.53 6.338,35.938C7.116,37.588 9.101,37.406 10.478,37.072Z"/>
        </clipPath>
        <g clip-path="url(#_clip5)">
            <path d="M39.196,18.281L-8.747,37.882L5.819,73.51L53.761,53.909L39.196,18.281Z" style="fill:#ff94f8;fill-opacity:0.501961;"/>
        </g>
        <path d="M10.478,37.072C12.938,36.476 19.564,33.947 21.097,32.362C22.105,31.318 26.282,26.48 19.243,27.145C17.159,27.342 10.785,30.728 8.634,32.194C7.434,33.011 5.675,34.53 6.338,35.938C7.116,37.588 9.101,37.406 10.478,37.072Z" style="fill:none;stroke:#000;stroke-width:0.75px;"/>
        <path d="M12.914,38.92L3.23,27.562C5.411,28.217 9.686,26.524 11.693,25.691C13.942,24.759 18.208,23.206 19.376,21.915L20.857,35.265C18.106,38.338 16.804,38.807 12.914,38.92Z" style="fill:#4b3a04;"/>
        <path d="M3.23,27.562C6.094,29.396 17.618,24.21 19.376,21.915C18.425,20.52 12.744,22.16 10.64,23.116C8.808,23.949 3.427,25.545 3.23,27.562Z" style="fill:#927c37;"/>
        <path d="M10.478,37.072C13.802,40.688 17.513,51.082 18.089,52.732C18.135,52.866 18.098,53.016 17.994,53.112C10.115,60.426 8.092,67.764 10.131,76.485C10.837,78.882 11.796,81.21 13.04,83.46C19.12,94.724 32.626,94.599 40.247,91.452C46.825,88.736 58.02,79.45 54.117,65.73C53.525,63.426 52.615,61.192 51.466,59.01C47.092,51.607 39.534,48.104 28.754,48.545C28.577,48.552 28.406,48.483 28.283,48.356C26.739,46.603 22.289,39.729 21.185,32.184" style="fill:none;"/>
        <clipPath id="_clip6">
            <path d="M10.478,37.072C13.802,40.688 17.513,51.082 18.089,52.732C18.135,52.866 18.098,53.016 17.994,53.112C10.115,60.426 8.092,67.764 10.131,76.485C10.837,78.882 11.796,81.21 13.04,83.46C19.12,94.724 32.626,94.599 40.247,91.452C46.825,88.736 58.02,79.45 54.117,65.73C53.525,63.426 52.615,61.192 51.466,59.01C47.092,51.607 39.534,48.104 28.754,48.545C28.577,48.552 28.406,48.483 28.283,48.356C26.739,46.603 22.289,39.729 21.185,32.184"/>
        </clipPath>
        <g clip-path="url(#_clip6)">
            <path d="M51.355,54.893L5.819,73.51L18.137,103.64L63.673,85.023L51.355,54.893Z" style="fill:#5d003a;"/>
            <path d="M41.486,23.884C33.332,27.315 25.057,30.748 16.133,35.365C15.246,35.824 14.412,36.461 13.444,36.667C6.835,38.075 0.427,41.122 -6.456,43.484L5.819,73.51L53.761,53.909L41.486,23.884Z" style="fill:#ff2af1;fill-opacity:0.501961;"/>
        </g>
        <path d="M10.478,37.072C13.802,40.688 17.513,51.082 18.089,52.732C18.135,52.866 18.098,53.016 17.994,53.112C10.115,60.426 8.092,67.764 10.131,76.485C10.837,78.882 11.796,81.21 13.04,83.46C19.12,94.724 32.626,94.599 40.247,91.452C46.825,88.736 58.02,79.45 54.117,65.73C53.525,63.426 52.615,61.192 51.466,59.01C47.092,51.607 39.534,48.104 28.754,48.545C28.577,48.552 28.406,48.483 28.283,48.356C26.739,46.603 22.289,39.729 21.185,32.184" style="fill:none;stroke:#000;stroke-width:0.75px;"/>
        <path d="M9.944,35.441L10.963,36.63C14.691,36.184 17.518,34.729 20.535,32.342L20.343,30.706C16.865,32.86 13.818,34.449 9.944,35.441Z" style="fill:#ff2af1;fill-opacity:0.501961;"/>
        <path d="M10.478,37.072C14.374,36.397 17.876,34.872 21.185,32.184" style="fill:none;stroke:#000;stroke-width:0.75px;"/>
        <path d="M28.039,60.814C38.79,56.379 47.817,54.422 48.89,55.901C49.855,57.232 41.379,62.583 30.569,67.003C19.759,71.422 10.036,73.583 9.718,71.916C9.432,70.417 17.279,65.253 28.039,60.814Z" style="fill:#d00082;"/>
        <path d="M20.078,28.264C20.522,28.19 20.782,28.29 21.2,28.579C21.316,28.657 21.379,28.792 21.363,28.93C21.284,29.538 21.059,30.156 19.881,30.954C18.012,32.222 13.668,34.467 10.259,35.245C9.063,35.588 8.606,35.414 8.321,35.067C7.861,34.506 8.684,34.134 8.771,34.058" style="fill:none;stroke:#000;stroke-width:0.24px;stroke-linecap:butt;"/>
    </g>
</svg>
