<?xml version="1.0" encoding="UTF-8" standalone="no"?>
<!DOCTYPE svg PUBLIC "-//W3C//DTD SVG 1.1//EN" "http://www.w3.org/Graphics/SVG/1.1/DTD/svg11.dtd">
<svg width="100%" height="100%" viewBox="0 0 101 101" version="1.1" xmlns="http://www.w3.org/2000/svg" xmlns:xlink="http://www.w3.org/1999/xlink" xml:space="preserve" xmlns:serif="http://www.serif.com/" style="fill-rule:evenodd;clip-rule:evenodd;stroke-linecap:round;stroke-linejoin:round;stroke-miterlimit:1.5;">
    <rect id="_4-Flasks" serif:id="4 Flasks" x="0.741" y="0.745" width="100" height="100" style="fill:none;"/>
    <g id="Flask">
        <path d="M38.233,20.602C40.295,21.268 46.262,22.397 48.089,21.942C49.292,21.642 54.503,20.029 49.068,17.38C47.459,16.596 41.292,16.192 39.067,16.287C37.826,16.34 35.863,16.648 35.718,17.951C35.548,19.479 37.078,20.23 38.233,20.602Z" style="fill:none;"/>
        <clipPath id="_clip1">
            <path d="M38.233,20.602C40.295,21.268 46.262,22.397 48.089,21.942C49.292,21.642 54.503,20.029 49.068,17.38C47.459,16.596 41.292,16.192 39.067,16.287C37.826,16.34 35.863,16.648 35.718,17.951C35.548,19.479 37.078,20.23 38.233,20.602Z"/>
        </clipPath>
        <g clip-path="url(#_clip1)">
            <path d="M67.594,19.887L23.838,12.646L18.542,44.647L62.299,51.888L67.594,19.887Z" style="fill:#2affbc;fill-opacity:0.501961;"/>
        </g>
        <path d="M38.233,20.602C40.295,21.268 46.262,22.397 48.089,21.942C49.292,21.642 54.503,20.029 49.068,17.38C47.459,16.596 41.292,16.192 39.067,16.287C37.826,16.34 35.863,16.648 35.718,17.951C35.548,19.479 37.078,20.23 38.233,20.602Z" style="fill:none;stroke:#000;stroke-width:0.75px;"/>
        <path d="M39.185,23.008L37.194,10.569C38.493,12.006 42.37,12.691 44.207,12.986C46.266,13.316 50.073,14.097 51.503,13.691L46.616,23.916C43.234,24.897 42.074,24.655 39.185,23.008Z" style="fill:#4b3a04;"/>
        <path d="M37.194,10.569C38.464,13.155 49.194,14.555 51.503,13.691C51.433,12.269 46.553,10.922 44.59,10.673C42.88,10.456 38.239,9.211 37.194,10.569Z" style="fill:#927c37;"/>
        <path d="M38.233,20.602C39.035,24.636 37.136,33.616 36.795,35.167C36.764,35.307 36.653,35.414 36.513,35.442C27.515,37.189 22.767,41.547 20.359,48.693C19.803,50.725 19.462,52.819 19.364,54.984C18.766,65.756 28.681,71.664 35.651,72.792C41.666,73.767 53.989,72.083 57.274,60.517C57.872,58.603 58.206,56.598 58.342,54.524C58.459,47.288 54.521,41.428 46.481,36.96C46.326,36.874 46.215,36.726 46.177,36.553C45.838,34.555 45.684,27.709 48.233,21.853" style="fill:none;"/>
        <clipPath id="_clip2">
            <path d="M38.233,20.602C39.035,24.636 37.136,33.616 36.795,35.167C36.764,35.307 36.653,35.414 36.513,35.442C27.515,37.189 22.767,41.547 20.359,48.693C19.803,50.725 19.462,52.819 19.364,54.984C18.766,65.756 28.681,71.664 35.651,72.792C41.666,73.767 53.989,72.083 57.274,60.517C57.872,58.603 58.206,56.598 58.342,54.524C58.459,47.288 54.521,41.428 46.481,36.96C46.326,36.874 46.215,36.726 46.177,36.553C45.838,34.555 45.684,27.709 48.233,21.853"/>
        </clipPath>
        <g clip-path="url(#_clip2)">
            <path d="M60.102,51.524L18.542,44.647L14.064,71.709L55.623,78.587L60.102,51.524Z" style="fill:#0bfaaf;"/>
            <path d="M66.762,24.92C59.276,23.758 51.701,22.544 43.123,21.89C42.271,21.825 41.377,21.911 40.578,21.629C35.125,19.704 29.085,19.042 23.005,17.678L18.542,44.647L62.299,51.888L66.762,24.92Z" style="fill:#2affbc;fill-opacity:0.501961;"/>
        </g>
        <path d="M38.233,20.602C39.035,24.636 37.136,33.616 36.795,35.167C36.764,35.307 36.653,35.414 36.513,35.442C27.515,37.189 22.767,41.547 20.359,48.693C19.803,50.725 19.462,52.819 19.364,54.984C18.766,65.756 28.681,71.664 35.651,72.792C41.666,73.767 53.989,72.083 57.274,60.517C57.872,58.603 58.206,56.598 58.342,54.524C58.459,47.288 54.521,41.428 46.481,36.96C46.326,36.874 46.215,36.726 46.177,36.553C45.838,34.555 45.684,27.709 48.233,21.853" style="fill:none;stroke:#000;stroke-width:0.75px;"/>
        <path d="M38.572,19.196L38.784,20.501C41.705,21.837 44.418,22.049 47.688,21.678L48.279,20.421C44.777,20.42 41.843,20.206 38.572,19.196Z" style="fill:#2affbc;fill-opacity:0.501961;"/>
        <path d="M38.233,20.602C41.378,21.848 44.616,22.311 48.233,21.853" style="fill:none;stroke:#000;stroke-width:0.75px;"/>
        <path d="M40.436,45.415C50.267,47.01 57.731,49.616 57.853,51.152C57.962,52.535 49.383,52.606 39.517,50.973C29.651,49.341 21.587,46.572 22.101,45.236C22.562,44.035 30.598,43.818 40.436,45.415Z" style="fill:#007b54;"/>
        <path d="M49.177,18.552C49.522,18.692 49.669,18.871 49.837,19.237C49.9,19.366 49.882,19.52 49.791,19.631C49.464,20.019 49.017,20.345 47.831,20.393C45.9,20.472 41.725,20.152 38.889,19.196C37.863,18.91 37.607,18.583 37.555,18.207C37.47,17.601 38.237,17.7 38.334,17.684" style="fill:none;stroke:#000;stroke-width:0.24px;stroke-linecap:butt;"/>
    </g>
    <g id="Flask1" serif:id="Flask">
        <path d="M74.782,25.695C76.913,26.087 82.976,26.431 84.729,25.742C85.882,25.288 90.84,23.012 85.106,21.092C83.409,20.523 77.242,20.925 75.049,21.308C73.825,21.522 71.918,22.082 71.944,23.393C71.974,24.93 73.589,25.476 74.782,25.695Z" style="fill:none;"/>
        <clipPath id="_clip3">
            <path d="M74.782,25.695C76.913,26.087 82.976,26.431 84.729,25.742C85.882,25.288 90.84,23.012 85.106,21.092C83.409,20.523 77.242,20.925 75.049,21.308C73.825,21.522 71.918,22.082 71.944,23.393C71.974,24.93 73.589,25.476 74.782,25.695Z"/>
        </clipPath>
        <g clip-path="url(#_clip3)">
            <path d="M103.802,21.17L59.475,19.677L58.383,52.094L102.71,53.588L103.802,21.17Z" style="fill:#2affbc;fill-opacity:0.501961;"/>
        </g>
        <path d="M74.782,25.695C76.913,26.087 82.976,26.431 84.729,25.742C85.882,25.288 90.84,23.012 85.106,21.092C83.409,20.523 77.242,20.925 75.049,21.308C73.825,21.522 71.918,22.082 71.944,23.393C71.974,24.93 73.589,25.476 74.782,25.695Z" style="fill:none;stroke:#000;stroke-width:0.75px;"/>
        <path d="M76.038,27.957L72.448,15.881C73.923,17.138 77.856,17.313 79.716,17.367C81.8,17.426 85.677,17.706 87.042,17.117L83.525,27.891C80.299,29.303 79.117,29.214 76.038,27.957Z" style="fill:#4b3a04;"/>
        <path d="M72.448,15.881C74.043,18.281 84.864,18.274 87.042,17.118C86.787,15.716 81.773,15.015 79.795,15.023C78.071,15.031 73.307,14.399 72.448,15.881Z" style="fill:#927c37;"/>
        <path d="M74.782,25.695C76.102,29.59 75.386,38.741 75.249,40.323C75.237,40.465 75.141,40.586 75.006,40.632C66.311,43.534 62.169,48.472 60.711,55.871C60.423,57.957 60.357,60.078 60.542,62.237C61.349,72.995 71.947,77.565 79.004,77.778C85.095,77.962 97.095,74.691 98.849,62.797C99.193,60.821 99.264,58.79 99.13,56.716C98.305,49.525 93.639,44.227 85.086,40.842C84.921,40.777 84.792,40.644 84.731,40.477C84.136,38.541 83.093,31.773 84.86,25.636" style="fill:none;"/>
        <clipPath id="_clip4">
            <path d="M74.782,25.695C76.102,29.59 75.386,38.741 75.249,40.323C75.237,40.465 75.141,40.586 75.006,40.632C66.311,43.534 62.169,48.472 60.711,55.871C60.423,57.957 60.357,60.078 60.542,62.237C61.349,72.995 71.947,77.565 79.004,77.778C85.095,77.962 97.095,74.691 98.849,62.797C99.193,60.821 99.264,58.79 99.13,56.716C98.305,49.525 93.639,44.227 85.086,40.842C84.921,40.777 84.792,40.644 84.731,40.477C84.136,38.541 83.093,31.773 84.86,25.636"/>
        </clipPath>
        <g clip-path="url(#_clip4)">
            <path d="M100.484,53.513L58.383,52.094L57.46,79.509L99.561,80.928L100.484,53.513Z" style="fill:#0bfaaf;"/>
            <path d="M103.63,26.268C96.056,26.089 88.388,25.869 79.798,26.336C78.945,26.382 78.07,26.584 77.241,26.408C71.584,25.208 65.509,25.337 59.304,24.775L58.383,52.094L102.71,53.588L103.63,26.268Z" style="fill:#2affbc;fill-opacity:0.501961;"/>
        </g>
        <path d="M74.782,25.695C76.102,29.59 75.386,38.741 75.249,40.323C75.237,40.465 75.141,40.586 75.006,40.632C66.311,43.534 62.169,48.472 60.711,55.871C60.423,57.957 60.357,60.078 60.542,62.237C61.349,72.995 71.947,77.565 79.004,77.778C85.095,77.962 97.095,74.691 98.849,62.797C99.193,60.821 99.264,58.79 99.13,56.716C98.305,49.525 93.639,44.227 85.086,40.842C84.921,40.777 84.792,40.644 84.731,40.477C84.136,38.541 83.093,31.773 84.86,25.636" style="fill:none;stroke:#000;stroke-width:0.75px;"/>
        <path d="M74.935,24.256L75.315,25.523C78.385,26.468 81.103,26.326 84.297,25.533L84.719,24.209C81.247,24.663 78.31,24.833 74.935,24.256Z" style="fill:#2affbc;fill-opacity:0.501961;"/>
        <path d="M74.782,25.695C78.062,26.522 81.333,26.559 84.86,25.636" style="fill:none;stroke:#000;stroke-width:0.75px;"/>
        <path d="M80.192,50.01C90.146,50.315 97.885,51.929 98.206,53.436C98.494,54.792 89.996,55.978 80.002,55.641C70.007,55.305 61.653,53.607 61.988,52.216C62.289,50.965 70.229,49.706 80.192,50.01Z" style="fill:#007b54;"/>
        <path d="M85.367,22.24C85.727,22.333 85.896,22.492 86.111,22.833C86.19,22.953 86.192,23.108 86.116,23.23C85.842,23.657 85.441,24.039 84.271,24.24C82.367,24.569 78.186,24.794 75.25,24.215C74.196,24.065 73.899,23.774 73.798,23.409C73.635,22.819 74.409,22.817 74.503,22.789" style="fill:none;stroke:#000;stroke-width:0.24px;stroke-linecap:butt;"/>
    </g>
    <g id="Flask2" serif:id="Flask">
        <path d="M10.396,40.105C12.564,40.097 18.585,39.304 20.176,38.288C21.223,37.619 25.662,34.417 19.666,33.575C17.891,33.325 11.91,34.881 9.828,35.675C8.666,36.118 6.899,37.035 7.173,38.339C7.493,39.867 9.183,40.11 10.396,40.105Z" style="fill:none;"/>
        <clipPath id="_clip5">
            <path d="M10.396,40.105C12.564,40.097 18.585,39.304 20.176,38.288C21.223,37.619 25.662,34.417 19.666,33.575C17.891,33.325 11.91,34.881 9.828,35.675C8.666,36.118 6.899,37.035 7.173,38.339C7.493,39.867 9.183,40.11 10.396,40.105Z"/>
        </clipPath>
        <g clip-path="url(#_clip5)">
            <path d="M38.046,30.149L-5.779,36.966L-0.714,69.534L43.111,62.717L38.046,30.149Z" style="fill:#2affbc;fill-opacity:0.501961;"/>
        </g>
        <path d="M10.396,40.105C12.564,40.097 18.585,39.304 20.176,38.288C21.223,37.619 25.662,34.417 19.666,33.575C17.891,33.325 11.91,34.881 9.828,35.675C8.666,36.118 6.899,37.035 7.173,38.339C7.493,39.867 9.183,40.11 10.396,40.105Z" style="fill:none;stroke:#000;stroke-width:0.75px;"/>
        <path d="M12.059,42.128L6.245,30.745C7.932,31.723 11.829,31.161 13.666,30.866C15.724,30.535 19.586,30.088 20.815,29.244L19.401,40.659C16.499,42.673 15.321,42.805 12.059,42.128Z" style="fill:#4b3a04;"/>
        <path d="M6.245,30.745C8.267,32.841 18.895,30.807 20.815,29.245C20.299,27.893 15.242,28.133 13.3,28.512C11.608,28.842 6.809,29.104 6.245,30.745Z" style="fill:#927c37;"/>
        <path d="M10.396,40.105C12.432,43.75 13.462,53.035 13.626,54.626C13.64,54.768 13.569,54.904 13.446,54.974C5.453,59.501 2.32,65.207 2.288,72.867C2.401,75.004 2.737,77.134 3.327,79.255C6.157,89.844 17.433,92.419 24.406,91.31C30.424,90.352 41.591,84.838 41.062,72.635C41.027,70.598 40.712,68.556 40.187,66.511C38.015,59.487 32.428,55.072 23.385,53.296C23.211,53.261 23.06,53.154 22.971,53.002C22.02,51.185 19.711,44.619 20.285,38.157" style="fill:none;"/>
        <clipPath id="_clip6">
            <path d="M10.396,40.105C12.432,43.75 13.462,53.035 13.626,54.626C13.64,54.768 13.569,54.904 13.446,54.974C5.453,59.501 2.32,65.207 2.288,72.867C2.401,75.004 2.737,77.134 3.327,79.255C6.157,89.844 17.433,92.419 24.406,91.31C30.424,90.352 41.591,84.838 41.062,72.635C41.027,70.598 40.712,68.556 40.187,66.511C38.015,59.487 32.428,55.072 23.385,53.296C23.211,53.261 23.06,53.154 22.971,53.002C22.02,51.185 19.711,44.619 20.285,38.157"/>
        </clipPath>
        <g clip-path="url(#_clip6)">
            <path d="M40.911,63.06L-0.714,69.534L3.57,97.076L45.195,90.602L40.911,63.06Z" style="fill:#0bfaaf;"/>
            <path d="M38.842,35.271C31.369,36.511 23.795,37.729 15.445,39.805C14.616,40.011 13.794,40.377 12.947,40.356C7.163,40.218 1.22,41.485 -4.982,42.087L-0.714,69.534L43.111,62.717L38.842,35.271Z" style="fill:#2affbc;fill-opacity:0.501961;"/>
        </g>
        <path d="M10.396,40.105C12.432,43.75 13.462,53.035 13.626,54.626C13.64,54.768 13.569,54.904 13.446,54.974C5.453,59.501 2.32,65.207 2.288,72.867C2.401,75.004 2.737,77.134 3.327,79.255C6.157,89.844 17.433,92.419 24.406,91.31C30.424,90.352 41.591,84.838 41.062,72.635C41.027,70.598 40.712,68.556 40.187,66.511C38.015,59.487 32.428,55.072 23.385,53.296C23.211,53.261 23.06,53.154 22.971,53.002C22.02,51.185 19.711,44.619 20.285,38.157" style="fill:none;stroke:#000;stroke-width:0.75px;"/>
        <path d="M10.274,38.64L10.888,39.833C14.082,40.201 16.725,39.55 19.712,38.16L19.877,36.759C16.552,37.864 13.699,38.583 10.274,38.64Z" style="fill:#2affbc;fill-opacity:0.501961;"/>
        <path d="M10.396,40.105C13.775,40.316 16.995,39.74 20.285,38.157" style="fill:none;stroke:#000;stroke-width:0.75px;"/>
        <path d="M20.314,63.366C30.15,61.804 38.058,61.965 38.658,63.41C39.198,64.71 31.076,67.486 21.194,69.023C11.313,70.56 2.784,70.431 2.85,68.979C2.91,67.674 10.47,64.929 20.314,63.366Z" style="fill:#007b54;"/>
        <path d="M20.14,34.672C20.514,34.698 20.71,34.826 20.988,35.13C21.085,35.233 21.115,35.381 21.066,35.514C20.878,35.993 20.558,36.452 19.443,36.874C17.634,37.559 13.57,38.568 10.576,38.54C9.512,38.588 9.166,38.353 8.997,38.007C8.725,37.448 9.485,37.302 9.572,37.256" style="fill:none;stroke:#000;stroke-width:0.24px;stroke-linecap:butt;"/>
    </g>
    <g id="Flask3" serif:id="Flask">
        <path d="M53.648,35.371C55.797,35.65 61.87,35.675 63.584,34.895C64.712,34.381 69.543,31.847 63.716,30.231C61.991,29.753 55.854,30.478 53.684,30.976C52.473,31.254 50.599,31.914 50.693,33.222C50.804,34.755 52.446,35.215 53.648,35.371Z" style="fill:none;"/>
        <clipPath id="_clip7">
            <path d="M53.648,35.371C55.797,35.65 61.87,35.675 63.584,34.895C64.712,34.381 69.543,31.847 63.716,30.231C61.991,29.753 55.854,30.478 53.684,30.976C52.473,31.254 50.599,31.914 50.693,33.222C50.804,34.755 52.446,35.215 53.648,35.371Z"/>
        </clipPath>
        <g clip-path="url(#_clip7)">
            <path d="M82.39,29.326L38.046,30.167L38.661,62.597L83.005,61.756L82.39,29.326Z" style="fill:#2affbc;fill-opacity:0.501961;"/>
        </g>
        <path d="M53.648,35.371C55.797,35.65 61.87,35.675 63.584,34.895C64.712,34.381 69.543,31.847 63.716,30.231C61.991,29.753 55.854,30.478 53.684,30.976C52.473,31.254 50.599,31.914 50.693,33.222C50.804,34.755 52.446,35.215 53.648,35.371Z" style="fill:none;stroke:#000;stroke-width:0.75px;"/>
        <path d="M55.022,37.563L50.801,25.694C52.34,26.871 56.277,26.839 58.137,26.794C60.221,26.745 64.108,26.82 65.44,26.16L62.495,37.104C59.348,38.684 58.163,38.657 55.022,37.563Z" style="fill:#4b3a04;"/>
        <path d="M50.801,25.694C52.521,28.006 63.326,27.43 65.44,26.161C65.112,24.775 60.068,24.338 58.093,24.451C56.372,24.548 51.581,24.168 50.801,25.694Z" style="fill:#927c37;"/>
        <path d="M53.648,35.371C55.171,39.191 54.938,48.367 54.885,49.954C54.88,50.097 54.79,50.223 54.657,50.275C46.127,53.631 42.251,58.78 41.184,66.245C41.007,68.344 41.053,70.465 41.35,72.612C42.722,83.313 53.546,87.318 60.605,87.16C66.697,87.023 78.508,83.125 79.634,71.155C79.874,69.164 79.838,67.132 79.594,65.068C78.393,57.931 73.454,52.885 64.735,49.955C64.567,49.898 64.431,49.773 64.362,49.609C63.666,47.707 62.268,41.003 63.709,34.781" style="fill:none;"/>
        <clipPath id="_clip8">
            <path d="M53.648,35.371C55.171,39.191 54.938,48.367 54.885,49.954C54.88,50.097 54.79,50.223 54.657,50.275C46.127,53.631 42.251,58.78 41.184,66.245C41.007,68.344 41.053,70.465 41.35,72.612C42.722,83.313 53.546,87.318 60.605,87.16C66.697,87.023 78.508,83.125 79.634,71.155C79.874,69.164 79.838,67.132 79.594,65.068C78.393,57.931 73.454,52.885 64.735,49.955C64.567,49.898 64.431,49.773 64.362,49.609C63.666,47.707 62.268,41.003 63.709,34.781"/>
        </clipPath>
        <g clip-path="url(#_clip8)">
            <path d="M80.779,61.798L38.661,62.597L39.181,90.022L81.299,89.223L80.779,61.798Z" style="fill:#0bfaaf;"/>
            <path d="M82.487,34.425C74.914,34.645 67.245,34.829 58.692,35.747C57.842,35.838 56.978,36.086 56.141,35.954C50.429,35.053 44.37,35.501 38.143,35.266L38.661,62.597L83.005,61.756L82.487,34.425Z" style="fill:#2affbc;fill-opacity:0.501961;"/>
        </g>
        <path d="M53.648,35.371C55.171,39.191 54.938,48.367 54.885,49.954C54.88,50.097 54.79,50.223 54.657,50.275C46.127,53.631 42.251,58.78 41.184,66.245C41.007,68.344 41.053,70.465 41.35,72.612C42.722,83.313 53.546,87.318 60.605,87.16C66.697,87.023 78.508,83.125 79.634,71.155C79.874,69.164 79.838,67.132 79.594,65.068C78.393,57.931 73.454,52.885 64.735,49.955C64.567,49.898 64.431,49.773 64.362,49.609C63.666,47.707 62.268,41.003 63.709,34.781" style="fill:none;stroke:#000;stroke-width:0.75px;"/>
        <path d="M53.726,33.926L54.172,35.171C57.287,35.953 59.994,35.668 63.142,34.708L63.494,33.364C60.05,34.001 57.126,34.324 53.726,33.926Z" style="fill:#2affbc;fill-opacity:0.501961;"/>
        <path d="M53.648,35.371C56.968,36.024 60.236,35.889 63.709,34.781" style="fill:none;stroke:#000;stroke-width:0.75px;"/>
        <path d="M60.33,59.368C70.286,59.148 78.1,60.353 78.499,61.841C78.858,63.18 70.435,64.812 60.437,65.001C50.438,65.191 42.006,63.935 42.267,62.528C42.503,61.264 50.365,59.588 60.33,59.368Z" style="fill:#007b54;"/>
        <path d="M64.037,31.364C64.402,31.438 64.579,31.587 64.811,31.917C64.896,32.033 64.906,32.187 64.837,32.313C64.586,32.754 64.205,33.156 63.048,33.419C61.164,33.847 57,34.292 54.038,33.869C52.977,33.774 52.666,33.499 52.546,33.139C52.352,32.559 53.124,32.517 53.217,32.483" style="fill:none;stroke:#000;stroke-width:0.24px;stroke-linecap:butt;"/>
    </g>
</svg>
