<?xml version="1.0" encoding="UTF-8" standalone="no"?>
<!DOCTYPE svg PUBLIC "-//W3C//DTD SVG 1.1//EN" "http://www.w3.org/Graphics/SVG/1.1/DTD/svg11.dtd">
<svg width="100%" height="100%" viewBox="0 0 101 101" version="1.1" xmlns="http://www.w3.org/2000/svg" xmlns:xlink="http://www.w3.org/1999/xlink" xml:space="preserve" xmlns:serif="http://www.serif.com/" style="fill-rule:evenodd;clip-rule:evenodd;stroke-linecap:round;stroke-linejoin:round;stroke-miterlimit:1.5;">
    <rect id="_4-Flasks" serif:id="4 Flasks" x="0.741" y="0.644" width="100" height="100" style="fill:none;"/>
    <g id="Flask">
        <path d="M38.233,20.501C40.295,21.166 46.262,22.296 48.089,21.84C49.292,21.541 54.503,19.928 49.068,17.279C47.459,16.494 41.292,16.091 39.067,16.186C37.826,16.239 35.863,16.547 35.718,17.85C35.548,19.377 37.078,20.129 38.233,20.501Z" style="fill:none;"/>
        <clipPath id="_clip1">
            <path d="M38.233,20.501C40.295,21.166 46.262,22.296 48.089,21.84C49.292,21.541 54.503,19.928 49.068,17.279C47.459,16.494 41.292,16.091 39.067,16.186C37.826,16.239 35.863,16.547 35.718,17.85C35.548,19.377 37.078,20.129 38.233,20.501Z"/>
        </clipPath>
        <g clip-path="url(#_clip1)">
            <path d="M67.594,19.786L23.838,12.545L18.542,44.545L62.299,51.787L67.594,19.786Z" style="fill:#ff94f8;fill-opacity:0.501961;"/>
        </g>
        <path d="M38.233,20.501C40.295,21.166 46.262,22.296 48.089,21.84C49.292,21.541 54.503,19.928 49.068,17.279C47.459,16.494 41.292,16.091 39.067,16.186C37.826,16.239 35.863,16.547 35.718,17.85C35.548,19.377 37.078,20.129 38.233,20.501Z" style="fill:none;stroke:#000;stroke-width:0.75px;"/>
        <path d="M39.185,22.907L37.194,10.467C38.493,11.905 42.37,12.59 44.207,12.884C46.266,13.215 50.073,13.996 51.503,13.589L46.616,23.815C43.234,24.796 42.074,24.553 39.185,22.907Z" style="fill:#4b3a04;"/>
        <path d="M37.194,10.467C38.464,13.054 49.194,14.454 51.503,13.59C51.433,12.167 46.553,10.82 44.59,10.572C42.88,10.355 38.239,9.109 37.194,10.467Z" style="fill:#927c37;"/>
        <path d="M38.233,20.501C39.035,24.535 37.136,33.515 36.795,35.066C36.764,35.205 36.653,35.313 36.513,35.34C27.515,37.087 22.767,41.446 20.359,48.592C19.803,50.624 19.462,52.718 19.364,54.883C18.766,65.654 28.681,71.562 35.651,72.691C41.666,73.665 53.989,71.981 57.274,60.416C57.872,58.502 58.206,56.497 58.342,54.423C58.459,47.186 54.521,41.326 46.481,36.859C46.326,36.773 46.215,36.624 46.177,36.451C45.838,34.454 45.684,27.608 48.233,21.752" style="fill:none;"/>
        <clipPath id="_clip2">
            <path d="M38.233,20.501C39.035,24.535 37.136,33.515 36.795,35.066C36.764,35.205 36.653,35.313 36.513,35.34C27.515,37.087 22.767,41.446 20.359,48.592C19.803,50.624 19.462,52.718 19.364,54.883C18.766,65.654 28.681,71.562 35.651,72.691C41.666,73.665 53.989,71.981 57.274,60.416C57.872,58.502 58.206,56.497 58.342,54.423C58.459,47.186 54.521,41.326 46.481,36.859C46.326,36.773 46.215,36.624 46.177,36.451C45.838,34.454 45.684,27.608 48.233,21.752"/>
        </clipPath>
        <g clip-path="url(#_clip2)">
            <path d="M60.102,51.423L18.542,44.545L14.064,71.608L55.623,78.486L60.102,51.423Z" style="fill:#5d003a;"/>
            <path d="M66.762,24.818C59.276,23.656 51.701,22.442 43.123,21.788C42.271,21.724 41.377,21.81 40.578,21.528C35.125,19.602 29.085,18.941 23.005,17.577L18.542,44.545L62.299,51.787L66.762,24.818Z" style="fill:#ff2af1;fill-opacity:0.501961;"/>
        </g>
        <path d="M38.233,20.501C39.035,24.535 37.136,33.515 36.795,35.066C36.764,35.205 36.653,35.313 36.513,35.34C27.515,37.087 22.767,41.446 20.359,48.592C19.803,50.624 19.462,52.718 19.364,54.883C18.766,65.654 28.681,71.562 35.651,72.691C41.666,73.665 53.989,71.981 57.274,60.416C57.872,58.502 58.206,56.497 58.342,54.423C58.459,47.186 54.521,41.326 46.481,36.859C46.326,36.773 46.215,36.624 46.177,36.451C45.838,34.454 45.684,27.608 48.233,21.752" style="fill:none;stroke:#000;stroke-width:0.75px;"/>
        <path d="M38.572,19.094L38.784,20.4C41.705,21.736 44.418,21.948 47.688,21.577L48.279,20.319C44.777,20.318 41.843,20.105 38.572,19.094Z" style="fill:#ff2af1;fill-opacity:0.501961;"/>
        <path d="M38.233,20.501C41.378,21.747 44.616,22.209 48.233,21.752" style="fill:none;stroke:#000;stroke-width:0.75px;"/>
        <path d="M40.436,45.313C50.267,46.909 57.731,49.515 57.853,51.051C57.962,52.433 49.383,52.505 39.517,50.872C29.651,49.239 21.587,46.47 22.101,45.134C22.562,43.934 30.598,43.717 40.436,45.313Z" style="fill:#d00082;"/>
        <path d="M49.177,18.451C49.522,18.59 49.669,18.769 49.837,19.136C49.9,19.265 49.882,19.419 49.791,19.53C49.464,19.918 49.017,20.244 47.831,20.292C45.9,20.37 41.725,20.05 38.889,19.095C37.863,18.809 37.607,18.482 37.555,18.106C37.47,17.5 38.237,17.599 38.334,17.583" style="fill:none;stroke:#000;stroke-width:0.24px;stroke-linecap:butt;"/>
    </g>
    <g id="Flask1" serif:id="Flask">
        <path d="M74.782,25.594C76.913,25.985 82.976,26.33 84.729,25.641C85.882,25.187 90.84,22.911 85.106,20.991C83.409,20.422 77.242,20.823 75.049,21.207C73.825,21.421 71.918,21.981 71.944,23.292C71.974,24.829 73.589,25.375 74.782,25.594Z" style="fill:none;"/>
        <clipPath id="_clip3">
            <path d="M74.782,25.594C76.913,25.985 82.976,26.33 84.729,25.641C85.882,25.187 90.84,22.911 85.106,20.991C83.409,20.422 77.242,20.823 75.049,21.207C73.825,21.421 71.918,21.981 71.944,23.292C71.974,24.829 73.589,25.375 74.782,25.594Z"/>
        </clipPath>
        <g clip-path="url(#_clip3)">
            <path d="M103.802,21.069L59.475,19.576L58.383,51.993L102.71,53.486L103.802,21.069Z" style="fill:#ff94f8;fill-opacity:0.501961;"/>
        </g>
        <path d="M74.782,25.594C76.913,25.985 82.976,26.33 84.729,25.641C85.882,25.187 90.84,22.911 85.106,20.991C83.409,20.422 77.242,20.823 75.049,21.207C73.825,21.421 71.918,21.981 71.944,23.292C71.974,24.829 73.589,25.375 74.782,25.594Z" style="fill:none;stroke:#000;stroke-width:0.75px;"/>
        <path d="M76.038,27.855L72.448,15.78C73.923,17.037 77.856,17.212 79.716,17.265C81.8,17.325 85.677,17.605 87.042,17.016L83.525,27.79C80.299,29.202 79.117,29.112 76.038,27.855Z" style="fill:#4b3a04;"/>
        <path d="M72.448,15.78C74.043,18.179 84.864,18.173 87.042,17.016C86.787,15.615 81.773,14.914 79.795,14.922C78.071,14.929 73.307,14.298 72.448,15.78Z" style="fill:#927c37;"/>
        <path d="M74.782,25.594C76.102,29.489 75.386,38.64 75.249,40.222C75.237,40.364 75.141,40.485 75.006,40.53C66.311,43.432 62.169,48.371 60.711,55.769C60.423,57.856 60.357,59.977 60.542,62.136C61.349,72.894 71.947,77.463 79.004,77.677C85.095,77.861 97.095,74.59 98.849,62.695C99.193,60.72 99.264,58.688 99.13,56.614C98.305,49.424 93.639,44.125 85.086,40.741C84.921,40.675 84.792,40.543 84.731,40.376C84.136,38.44 83.093,31.672 84.86,25.534" style="fill:none;"/>
        <clipPath id="_clip4">
            <path d="M74.782,25.594C76.102,29.489 75.386,38.64 75.249,40.222C75.237,40.364 75.141,40.485 75.006,40.53C66.311,43.432 62.169,48.371 60.711,55.769C60.423,57.856 60.357,59.977 60.542,62.136C61.349,72.894 71.947,77.463 79.004,77.677C85.095,77.861 97.095,74.59 98.849,62.695C99.193,60.72 99.264,58.688 99.13,56.614C98.305,49.424 93.639,44.125 85.086,40.741C84.921,40.675 84.792,40.543 84.731,40.376C84.136,38.44 83.093,31.672 84.86,25.534"/>
        </clipPath>
        <g clip-path="url(#_clip4)">
            <path d="M100.484,53.411L58.383,51.993L57.46,79.408L99.561,80.826L100.484,53.411Z" style="fill:#5d003a;"/>
            <path d="M103.63,26.167C96.056,25.988 88.388,25.768 79.798,26.235C78.945,26.281 78.07,26.483 77.241,26.307C71.584,25.106 65.509,25.235 59.304,24.673L58.383,51.993L102.71,53.486L103.63,26.167Z" style="fill:#ff2af1;fill-opacity:0.501961;"/>
        </g>
        <path d="M74.782,25.594C76.102,29.489 75.386,38.64 75.249,40.222C75.237,40.364 75.141,40.485 75.006,40.53C66.311,43.432 62.169,48.371 60.711,55.769C60.423,57.856 60.357,59.977 60.542,62.136C61.349,72.894 71.947,77.463 79.004,77.677C85.095,77.861 97.095,74.59 98.849,62.695C99.193,60.72 99.264,58.688 99.13,56.614C98.305,49.424 93.639,44.125 85.086,40.741C84.921,40.675 84.792,40.543 84.731,40.376C84.136,38.44 83.093,31.672 84.86,25.534" style="fill:none;stroke:#000;stroke-width:0.75px;"/>
        <path d="M74.935,24.155L75.315,25.422C78.385,26.367 81.103,26.224 84.297,25.431L84.719,24.108C81.247,24.562 78.31,24.731 74.935,24.155Z" style="fill:#ff2af1;fill-opacity:0.501961;"/>
        <path d="M74.782,25.594C78.062,26.42 81.333,26.458 84.86,25.534" style="fill:none;stroke:#000;stroke-width:0.75px;"/>
        <path d="M80.192,49.909C90.146,50.213 97.885,51.827 98.206,53.335C98.494,54.691 89.996,55.877 80.002,55.54C70.007,55.203 61.653,53.506 61.988,52.115C62.289,50.864 70.229,49.604 80.192,49.909Z" style="fill:#d00082;"/>
        <path d="M85.367,22.139C85.727,22.232 85.896,22.391 86.111,22.732C86.19,22.852 86.192,23.007 86.116,23.129C85.842,23.555 85.441,23.937 84.271,24.139C82.367,24.468 78.186,24.693 75.25,24.114C74.196,23.964 73.899,23.673 73.798,23.307C73.635,22.717 74.409,22.716 74.503,22.687" style="fill:none;stroke:#000;stroke-width:0.24px;stroke-linecap:butt;"/>
    </g>
    <g id="Flask2" serif:id="Flask">
        <path d="M10.396,40.004C12.564,39.995 18.585,39.203 20.176,38.187C21.223,37.518 25.662,34.316 19.666,33.473C17.891,33.224 11.91,34.78 9.828,35.574C8.666,36.017 6.899,36.933 7.173,38.238C7.493,39.766 9.183,40.009 10.396,40.004Z" style="fill:none;"/>
        <clipPath id="_clip5">
            <path d="M10.396,40.004C12.564,39.995 18.585,39.203 20.176,38.187C21.223,37.518 25.662,34.316 19.666,33.473C17.891,33.224 11.91,34.78 9.828,35.574C8.666,36.017 6.899,36.933 7.173,38.238C7.493,39.766 9.183,40.009 10.396,40.004Z"/>
        </clipPath>
        <g clip-path="url(#_clip5)">
            <path d="M38.046,30.048L-5.779,36.864L-0.714,69.432L43.111,62.616L38.046,30.048Z" style="fill:#ff94f8;fill-opacity:0.501961;"/>
        </g>
        <path d="M10.396,40.004C12.564,39.995 18.585,39.203 20.176,38.187C21.223,37.518 25.662,34.316 19.666,33.473C17.891,33.224 11.91,34.78 9.828,35.574C8.666,36.017 6.899,36.933 7.173,38.238C7.493,39.766 9.183,40.009 10.396,40.004Z" style="fill:none;stroke:#000;stroke-width:0.75px;"/>
        <path d="M12.059,42.026L6.245,30.644C7.932,31.622 11.829,31.06 13.666,30.765C15.724,30.434 19.586,29.987 20.815,29.143L19.401,40.558C16.499,42.572 15.321,42.704 12.059,42.026Z" style="fill:#4b3a04;"/>
        <path d="M6.245,30.644C8.267,32.74 18.895,30.706 20.815,29.143C20.299,27.792 15.242,28.032 13.3,28.411C11.608,28.741 6.809,29.003 6.245,30.644Z" style="fill:#927c37;"/>
        <path d="M10.396,40.004C12.432,43.649 13.462,52.934 13.626,54.525C13.64,54.666 13.569,54.803 13.446,54.873C5.453,59.399 2.32,65.106 2.288,72.766C2.401,74.903 2.737,77.033 3.327,79.153C6.157,89.743 17.433,92.318 24.406,91.208C30.424,90.251 41.591,84.736 41.062,72.533C41.027,70.497 40.712,68.455 40.187,66.41C38.015,59.386 32.428,54.971 23.385,53.194C23.211,53.16 23.06,53.053 22.971,52.9C22.02,51.083 19.711,44.518 20.285,38.056" style="fill:none;"/>
        <clipPath id="_clip6">
            <path d="M10.396,40.004C12.432,43.649 13.462,52.934 13.626,54.525C13.64,54.666 13.569,54.803 13.446,54.873C5.453,59.399 2.32,65.106 2.288,72.766C2.401,74.903 2.737,77.033 3.327,79.153C6.157,89.743 17.433,92.318 24.406,91.208C30.424,90.251 41.591,84.736 41.062,72.533C41.027,70.497 40.712,68.455 40.187,66.41C38.015,59.386 32.428,54.971 23.385,53.194C23.211,53.16 23.06,53.053 22.971,52.9C22.02,51.083 19.711,44.518 20.285,38.056"/>
        </clipPath>
        <g clip-path="url(#_clip6)">
            <path d="M40.911,62.958L-0.714,69.432L3.57,96.974L45.195,90.5L40.911,62.958Z" style="fill:#5d003a;"/>
            <path d="M38.842,35.169C31.369,36.41 23.795,37.628 15.445,39.703C14.616,39.91 13.794,40.275 12.947,40.255C7.163,40.117 1.22,41.384 -4.982,41.986L-0.714,69.432L43.111,62.616L38.842,35.169Z" style="fill:#ff2af1;fill-opacity:0.501961;"/>
        </g>
        <path d="M10.396,40.004C12.432,43.649 13.462,52.934 13.626,54.525C13.64,54.666 13.569,54.803 13.446,54.873C5.453,59.399 2.32,65.106 2.288,72.766C2.401,74.903 2.737,77.033 3.327,79.153C6.157,89.743 17.433,92.318 24.406,91.208C30.424,90.251 41.591,84.736 41.062,72.533C41.027,70.497 40.712,68.455 40.187,66.41C38.015,59.386 32.428,54.971 23.385,53.194C23.211,53.16 23.06,53.053 22.971,52.9C22.02,51.083 19.711,44.518 20.285,38.056" style="fill:none;stroke:#000;stroke-width:0.75px;"/>
        <path d="M10.274,38.539L10.888,39.732C14.082,40.1 16.725,39.449 19.712,38.058L19.877,36.658C16.552,37.762 13.699,38.482 10.274,38.539Z" style="fill:#ff2af1;fill-opacity:0.501961;"/>
        <path d="M10.396,40.004C13.775,40.214 16.995,39.639 20.285,38.056" style="fill:none;stroke:#000;stroke-width:0.75px;"/>
        <path d="M20.314,63.265C30.15,61.703 38.058,61.864 38.658,63.309C39.198,64.609 31.076,67.385 21.194,68.922C11.313,70.459 2.784,70.33 2.85,68.878C2.91,67.573 10.47,64.828 20.314,63.265Z" style="fill:#d00082;"/>
        <path d="M20.14,34.571C20.514,34.596 20.71,34.725 20.988,35.029C21.085,35.131 21.115,35.28 21.066,35.412C20.878,35.892 20.558,36.351 19.443,36.773C17.634,37.458 13.57,38.467 10.576,38.439C9.512,38.487 9.166,38.251 8.997,37.905C8.725,37.347 9.485,37.2 9.572,37.154" style="fill:none;stroke:#000;stroke-width:0.24px;stroke-linecap:butt;"/>
    </g>
    <g id="Flask3" serif:id="Flask">
        <path d="M53.648,35.27C55.797,35.548 61.87,35.574 63.584,34.793C64.712,34.28 69.543,31.745 63.716,30.13C61.991,29.651 55.854,30.376 53.684,30.875C52.473,31.153 50.599,31.812 50.693,33.12C50.804,34.653 52.446,35.114 53.648,35.27Z" style="fill:none;"/>
        <clipPath id="_clip7">
            <path d="M53.648,35.27C55.797,35.548 61.87,35.574 63.584,34.793C64.712,34.28 69.543,31.745 63.716,30.13C61.991,29.651 55.854,30.376 53.684,30.875C52.473,31.153 50.599,31.812 50.693,33.12C50.804,34.653 52.446,35.114 53.648,35.27Z"/>
        </clipPath>
        <g clip-path="url(#_clip7)">
            <path d="M82.39,29.224L38.046,30.065L38.661,62.495L83.005,61.654L82.39,29.224Z" style="fill:#ff94f8;fill-opacity:0.501961;"/>
        </g>
        <path d="M53.648,35.27C55.797,35.548 61.87,35.574 63.584,34.793C64.712,34.28 69.543,31.745 63.716,30.13C61.991,29.651 55.854,30.376 53.684,30.875C52.473,31.153 50.599,31.812 50.693,33.12C50.804,34.653 52.446,35.114 53.648,35.27Z" style="fill:none;stroke:#000;stroke-width:0.75px;"/>
        <path d="M55.022,37.462L50.801,25.592C52.34,26.77 56.277,26.738 58.137,26.693C60.221,26.643 64.108,26.719 65.44,26.059L62.495,37.003C59.348,38.582 58.163,38.555 55.022,37.462Z" style="fill:#4b3a04;"/>
        <path d="M50.801,25.592C52.521,27.904 63.326,27.329 65.44,26.059C65.112,24.673 60.068,24.237 58.093,24.349C56.372,24.447 51.581,24.067 50.801,25.592Z" style="fill:#927c37;"/>
        <path d="M53.648,35.27C55.171,39.09 54.938,48.266 54.885,49.853C54.88,49.996 54.79,50.122 54.657,50.174C46.127,53.529 42.251,58.679 41.184,66.144C41.007,68.243 41.053,70.364 41.35,72.51C42.722,83.211 53.546,87.216 60.605,87.058C66.697,86.922 78.508,83.024 79.634,71.054C79.874,69.063 79.838,67.03 79.594,64.966C78.393,57.829 73.454,52.784 64.735,49.853C64.567,49.797 64.431,49.671 64.362,49.508C63.666,47.606 62.268,40.902 63.709,34.68" style="fill:none;"/>
        <clipPath id="_clip8">
            <path d="M53.648,35.27C55.171,39.09 54.938,48.266 54.885,49.853C54.88,49.996 54.79,50.122 54.657,50.174C46.127,53.529 42.251,58.679 41.184,66.144C41.007,68.243 41.053,70.364 41.35,72.51C42.722,83.211 53.546,87.216 60.605,87.058C66.697,86.922 78.508,83.024 79.634,71.054C79.874,69.063 79.838,67.03 79.594,64.966C78.393,57.829 73.454,52.784 64.735,49.853C64.567,49.797 64.431,49.671 64.362,49.508C63.666,47.606 62.268,40.902 63.709,34.68"/>
        </clipPath>
        <g clip-path="url(#_clip8)">
            <path d="M80.779,61.697L38.661,62.495L39.181,89.921L81.299,89.122L80.779,61.697Z" style="fill:#5d003a;"/>
            <path d="M82.487,34.324C74.914,34.544 67.245,34.728 58.692,35.646C57.842,35.737 56.978,35.985 56.141,35.852C50.429,34.951 44.37,35.4 38.143,35.165L38.661,62.495L83.005,61.654L82.487,34.324Z" style="fill:#ff2af1;fill-opacity:0.501961;"/>
        </g>
        <path d="M53.648,35.27C55.171,39.09 54.938,48.266 54.885,49.853C54.88,49.996 54.79,50.122 54.657,50.174C46.127,53.529 42.251,58.679 41.184,66.144C41.007,68.243 41.053,70.364 41.35,72.51C42.722,83.211 53.546,87.216 60.605,87.058C66.697,86.922 78.508,83.024 79.634,71.054C79.874,69.063 79.838,67.03 79.594,64.966C78.393,57.829 73.454,52.784 64.735,49.853C64.567,49.797 64.431,49.671 64.362,49.508C63.666,47.606 62.268,40.902 63.709,34.68" style="fill:none;stroke:#000;stroke-width:0.75px;"/>
        <path d="M53.726,33.825L54.172,35.07C57.287,35.852 59.994,35.567 63.142,34.607L63.494,33.263C60.05,33.899 57.126,34.223 53.726,33.825Z" style="fill:#ff2af1;fill-opacity:0.501961;"/>
        <path d="M53.648,35.27C56.968,35.923 60.236,35.788 63.709,34.68" style="fill:none;stroke:#000;stroke-width:0.75px;"/>
        <path d="M60.33,59.267C70.286,59.047 78.1,60.251 78.499,61.74C78.858,63.079 70.435,64.71 60.437,64.9C50.438,65.09 42.006,63.834 42.267,62.427C42.503,61.162 50.365,59.487 60.33,59.267Z" style="fill:#d00082;"/>
        <path d="M64.037,31.263C64.402,31.337 64.579,31.486 64.811,31.816C64.896,31.931 64.906,32.086 64.837,32.212C64.586,32.652 64.205,33.055 63.048,33.318C61.164,33.746 57,34.191 54.038,33.767C52.977,33.673 52.666,33.398 52.546,33.038C52.352,32.457 53.124,32.415 53.217,32.382" style="fill:none;stroke:#000;stroke-width:0.24px;stroke-linecap:butt;"/>
    </g>
</svg>
