<?xml version="1.0" encoding="UTF-8" standalone="no"?>
<!DOCTYPE svg PUBLIC "-//W3C//DTD SVG 1.1//EN" "http://www.w3.org/Graphics/SVG/1.1/DTD/svg11.dtd">
<svg width="100%" height="100%" viewBox="0 0 101 101" version="1.1" xmlns="http://www.w3.org/2000/svg" xmlns:xlink="http://www.w3.org/1999/xlink" xml:space="preserve" xmlns:serif="http://www.serif.com/" style="fill-rule:evenodd;clip-rule:evenodd;stroke-linejoin:round;stroke-miterlimit:1.41421;">
    <rect id="Beth" x="0.047" y="0.506" width="100" height="100" style="fill:none;"/>
    <g id="Beth1" serif:id="Beth">
        <ellipse cx="23.699" cy="18.934" rx="4.757" ry="5.294" style="fill:#0effe8;"/>
        <ellipse cx="79.999" cy="18.842" rx="4.922" ry="5.376" style="fill:#0effe8;"/>
        <path d="M24.554,16.217C23.162,16.217 22.045,17.35 22.045,18.727C22.045,20.104 23.177,21.237 24.554,21.237C24.6,21.237 24.646,21.237 24.692,21.237C25.09,19.722 25.564,18.222 26.146,16.783C25.717,16.431 25.151,16.217 24.554,16.217Z" style="fill-rule:nonzero;"/>
        <path d="M82.126,18.681C82.126,17.288 80.993,16.171 79.616,16.171C79.05,16.171 78.53,16.355 78.116,16.676C78.729,18.13 79.218,19.66 79.616,21.206L79.631,21.206C81.009,21.206 82.126,20.074 82.126,18.681Z" style="fill-rule:nonzero;"/>
        <path d="M28.096,26.283C33.333,42.027 47.182,41.861 50.549,41.647C55.507,41.34 73.374,42.952 75.974,25.629C76.202,24.112 76.464,22.752 76.464,21.053C76.464,18.298 75.331,15.727 73.342,13.493L71,19.875C70.924,20.089 70.725,20.227 70.511,20.227C70.281,20.227 70.097,20.089 70.021,19.875L66.899,11.091C66.853,10.968 66.761,10.876 66.639,10.846C66.516,10.815 66.379,10.846 66.287,10.938L64.221,12.973C64.114,13.08 63.961,13.141 63.792,13.126C63.639,13.111 63.502,13.034 63.41,12.896L61.053,9.422C60.992,9.331 60.885,9.269 60.778,9.254C60.67,9.239 60.563,9.285 60.472,9.361L57.61,12.269C57.518,12.376 57.38,12.422 57.242,12.422C57.105,12.422 56.967,12.361 56.875,12.269L53.876,9.269C53.738,9.132 53.508,9.116 53.355,9.269L50.8,11.718C50.616,11.902 50.31,11.917 50.111,11.749L47.004,9.239C46.867,9.116 46.653,9.132 46.515,9.254L43.745,11.902C43.561,12.07 43.301,12.101 43.087,11.963L40.087,9.943C40.011,9.882 39.904,9.866 39.812,9.882C39.72,9.897 39.628,9.958 39.582,10.05L37.975,12.483C37.899,12.606 37.777,12.682 37.639,12.713C37.501,12.743 37.363,12.713 37.241,12.636L35.695,11.596C35.588,11.534 35.466,11.519 35.359,11.55C35.251,11.596 35.16,11.687 35.129,11.81L33.461,18.115C33.4,18.344 33.201,18.497 32.971,18.513C32.726,18.513 32.527,18.375 32.451,18.145L30.905,13.371C28.855,15.636 27.382,18.253 27.382,21.038C27.382,22.889 27.54,24.608 28.096,26.283Z" style="fill:#363648;fill-rule:nonzero;"/>
        <path d="M50.023,35.795C63.887,35.513 70.846,31.713 70.892,31.697C70.938,31.682 71.829,27.882 71.829,27.882C69.319,26.704 66.547,24.971 63.93,24.175C59.155,22.736 54.105,22.384 49.147,22.691C45.796,22.889 42.413,23.395 39.292,24.649C37.547,25.353 35.925,26.287 34.287,27.19C34.012,27.343 29.762,30.119 29.411,30.517C29.411,30.517 45.323,35.89 50.023,35.795Z" style="fill:#f01324;fill-rule:nonzero;"/>
        <path d="M31.028,13.279L32.604,18.084C32.665,18.283 32.834,18.344 32.971,18.344C33.094,18.344 33.262,18.268 33.323,18.069L34.991,11.764C35.037,11.596 35.16,11.473 35.313,11.412C35.481,11.351 35.649,11.366 35.787,11.473L37.333,12.514C37.409,12.575 37.516,12.59 37.608,12.575C37.7,12.56 37.792,12.498 37.853,12.407L39.429,9.973C39.506,9.851 39.628,9.774 39.766,9.744C39.904,9.713 40.041,9.744 40.164,9.82L43.163,11.825C43.316,11.917 43.5,11.902 43.622,11.779L46.392,9.132C46.576,8.948 46.882,8.933 47.081,9.101L50.188,11.611C50.325,11.733 50.54,11.718 50.677,11.596L53.233,9.162C53.447,8.963 53.769,8.963 53.968,9.178L56.967,12.177C57.044,12.254 57.135,12.284 57.227,12.284C57.334,12.284 57.426,12.238 57.487,12.177L60.349,9.269C60.456,9.162 60.609,9.101 60.778,9.116C60.931,9.132 61.084,9.208 61.16,9.346L63.517,12.835C63.578,12.927 63.685,12.988 63.792,13.003C63.899,13.019 64.007,12.973 64.083,12.896L66.149,10.861C66.272,10.739 66.455,10.677 66.639,10.723C66.807,10.769 66.96,10.892 67.021,11.06L70.143,19.844C70.204,20.028 70.373,20.089 70.495,20.089C70.618,20.089 70.786,20.028 70.847,19.844L73.173,13.401L73.25,13.432C69.057,8.764 61.13,5.627 52.055,5.627C43.041,5.627 35.175,8.719 30.951,13.325L31.028,13.279Z" style="fill:#76ff7b;fill-rule:nonzero;"/>
        <path d="M75.897,25.751L72.867,23.456C72.821,23.425 72.775,23.425 72.73,23.44C72.684,23.456 72.653,23.502 72.638,23.548L71.092,30.74C71.077,30.832 71.016,30.909 70.939,30.939C70.863,30.985 70.755,30.985 70.679,30.939L66.073,28.659C65.996,28.628 65.92,28.659 65.889,28.72L63.762,32.745C63.716,32.821 63.655,32.883 63.563,32.898C63.471,32.913 63.394,32.898 63.318,32.837L58.911,29.47C58.88,29.439 58.849,29.439 58.803,29.439C58.773,29.439 58.727,29.47 58.712,29.501L55.758,33.663C55.712,33.724 55.636,33.77 55.559,33.786C55.544,33.786 55.529,33.786 55.513,33.786C55.452,33.786 55.391,33.77 55.33,33.724L50.861,30.205C50.8,30.159 50.723,30.159 50.677,30.22L47.295,33.694C47.234,33.755 47.173,33.786 47.081,33.786C47.004,33.786 46.928,33.755 46.867,33.694L43.393,29.96C43.347,29.914 43.27,29.898 43.209,29.944L39.062,32.745C38.94,32.837 38.756,32.806 38.664,32.684L35.925,29.164C35.879,29.118 35.818,29.103 35.756,29.118L32.328,30.434C32.237,30.465 32.145,30.465 32.068,30.403C31.992,30.358 31.946,30.266 31.931,30.174L31.334,23.364C31.334,23.303 31.288,23.257 31.242,23.241C31.196,23.226 31.135,23.241 31.089,23.272L28.273,26.103L28.227,26.057C30.569,35.821 40.363,36.479 52.07,36.479C63.838,36.479 73.663,35.27 75.959,25.705L75.897,25.751Z" style="fill:#76ff7b;fill-rule:nonzero;"/>
        <path d="M72.225,58.898C71.521,59.618 71.153,60.612 70.786,61.638C70.388,62.74 69.96,63.887 69.087,64.744C68.322,65.479 67.266,65.862 66.21,65.862C65.583,65.862 64.955,65.724 64.404,65.448C63.685,65.081 63.211,64.545 63.042,63.933C62.966,63.643 62.966,63.367 62.997,63.107C62.124,63.382 61.053,63.092 60.364,62.357C59.676,61.607 59.339,60.475 59.37,59.006C59.385,58.24 59.492,57.108 60.196,56.297C60.563,55.868 61.114,55.593 61.665,55.532C61.42,55.21 61.221,54.874 61.114,54.491C60.854,53.542 61.13,52.532 61.788,51.966C62.216,51.599 62.813,51.4 63.548,51.384C64.558,51.354 65.522,51.691 66.18,52.287C66.838,52.884 67.174,53.757 67.083,54.568C67.832,54.644 68.674,54.43 69.424,53.971C69.929,53.665 70.373,53.267 70.771,52.869C67.557,48.477 60.854,45.462 52.07,45.615C42.964,45.768 36.292,48.538 33.17,52.624C33.614,53.114 34.134,53.603 34.731,53.971C35.496,54.43 36.338,54.644 37.073,54.568C36.981,53.757 37.317,52.884 37.975,52.287C38.634,51.691 39.582,51.369 40.608,51.384C41.342,51.4 41.939,51.599 42.368,51.966C43.041,52.532 43.301,53.542 43.041,54.491C42.934,54.874 42.735,55.21 42.49,55.532C43.041,55.593 43.592,55.868 43.959,56.297C44.678,57.123 44.77,58.24 44.785,59.006C44.816,60.475 44.479,61.607 43.791,62.357C43.117,63.092 42.031,63.382 41.159,63.107C41.189,63.367 41.189,63.658 41.113,63.933C40.944,64.545 40.47,65.081 39.751,65.448C39.2,65.724 38.572,65.862 37.945,65.862C36.889,65.862 35.833,65.479 35.068,64.744C34.18,63.903 33.767,62.755 33.369,61.638C32.987,60.597 32.635,59.618 31.931,58.898C31.716,58.684 31.487,58.501 31.227,58.317C31.227,58.761 31.273,59.22 31.334,59.679C33.981,77.232 40.623,73.758 52.101,73.758C63.578,73.758 71.735,76.712 72.867,59.679C72.898,59.25 72.898,58.822 72.867,58.409C72.607,58.547 72.408,58.715 72.225,58.898Z" style="fill:#0effe8;fill-rule:nonzero;"/>
        <rect x="23.575" y="40.838" width="57.417" height="34.853" style="fill:#0effe8;"/>
        <path d="M83.656,78.334C83.911,75.837 83.594,73.314 83.564,70.805C83.534,68.211 83.521,65.415 83.473,62.77C83.425,60.158 83.274,54.95 83.274,54.935C83.182,52.425 83.072,49.924 82.922,47.421C82.769,44.865 82.624,42.201 82.355,39.601C82.011,36.265 81.498,31.459 80.856,27.404C80.718,26.562 80.58,25.721 80.427,24.879C83.381,24.481 85.676,21.956 85.676,18.895C85.676,15.559 82.968,12.85 79.631,12.85C78.53,12.85 77.504,13.141 76.617,13.662C76.433,13.34 76.234,13.019 76.02,12.713C65.568,-2.836 38.863,-2.958 28.334,12.713C28.105,13.049 27.89,13.401 27.676,13.753C26.773,13.202 25.702,12.896 24.57,12.896C21.233,12.896 18.525,15.605 18.525,18.941C18.525,22.048 20.882,24.619 23.896,24.955C23.743,25.767 23.606,26.593 23.483,27.404C22.84,31.444 21.432,47.421 21.402,47.421C21.249,49.931 21.142,52.44 21.05,54.95C21.065,54.95 21.08,54.95 21.111,54.95L21.111,54.935C21.111,54.95 20.882,62.77 20.851,62.77C20.805,65.448 20.774,68.142 20.759,70.82C20.774,70.82 20.598,75.906 20.744,78.426C20.889,80.944 22.474,83.562 21.631,85.94C20.68,88.625 17.777,92.058 15.034,94.54C9.771,99.304 25.888,93.722 28.468,95.163C31.922,97.093 37.555,99.561 39.238,93.868C39.483,93.041 44.906,101.732 45.317,98.991C45.71,96.367 48.422,95.089 49.952,95.089C54.191,95.089 53.814,98.52 57.181,92.39C61.413,84.684 59.347,97.36 60.276,99.652C61.205,101.944 67.591,92.328 68.361,92.715C74.88,95.991 76.411,97.786 79.349,96.307C81.57,95.19 84.243,93.42 85.756,91.446C87.279,89.457 83.355,81.28 83.656,78.334ZM79.616,14.381C82.111,14.381 84.131,16.401 84.131,18.895C84.131,21.221 82.371,23.134 80.121,23.379C79.509,20.472 78.667,17.61 77.336,14.993C78.009,14.61 78.79,14.381 79.616,14.381ZM24.172,23.44C21.861,23.257 20.025,21.313 20.025,18.941C20.025,16.447 22.045,14.427 24.539,14.427C25.411,14.427 26.222,14.672 26.911,15.1C25.61,17.702 24.784,20.548 24.172,23.44ZM52.07,5.597C65.537,5.597 76.448,12.498 76.448,21.022C76.448,34.872 65.537,36.448 52.07,36.448C38.603,36.448 27.676,35.591 27.676,21.038C27.676,12.514 38.603,5.597 52.07,5.597ZM74.199,57.598C73.709,57.858 73.235,58.103 72.806,58.393C72.837,58.807 72.837,59.235 72.806,59.664C71.689,76.696 63.517,73.743 52.039,73.743C40.562,73.743 33.935,77.217 31.273,59.664C31.196,59.205 31.165,58.745 31.165,58.302C30.783,58.041 30.354,57.812 29.895,57.582C29.451,57.353 28.977,57.108 28.549,56.817C26.314,55.317 25.243,52.823 24.172,49.946L24.891,49.686C25.916,52.425 26.926,54.812 28.977,56.19C29.375,56.45 29.819,56.679 30.247,56.909C30.569,57.077 30.89,57.246 31.196,57.429C31.625,57.69 32.053,57.98 32.42,58.348C33.247,59.189 33.645,60.291 34.042,61.362C34.44,62.434 34.808,63.444 35.558,64.178C36.537,65.127 38.144,65.372 39.368,64.744C39.674,64.591 40.194,64.255 40.332,63.719C40.393,63.459 40.378,63.168 40.271,62.74C40.225,62.541 40.302,62.326 40.47,62.204C40.638,62.082 40.868,62.082 41.036,62.204C41.618,62.602 42.628,62.418 43.179,61.806C43.73,61.194 44.005,60.245 43.974,58.975C43.959,57.934 43.745,57.23 43.332,56.756C42.964,56.343 42.352,56.144 41.878,56.282C41.679,56.343 41.465,56.266 41.342,56.083C41.235,55.899 41.25,55.669 41.403,55.516C41.771,55.119 42.138,54.705 42.26,54.231C42.444,53.573 42.26,52.869 41.832,52.502C41.465,52.18 40.929,52.104 40.546,52.104C39.72,52.088 38.97,52.333 38.465,52.808C37.945,53.282 37.7,54.017 37.853,54.629C37.884,54.767 37.868,54.904 37.792,55.027C37.715,55.149 37.608,55.226 37.47,55.241C36.46,55.44 35.343,55.21 34.318,54.598C33.69,54.216 33.155,53.726 32.696,53.236C32.42,52.93 32.175,52.639 31.946,52.364C30.416,50.436 29.191,48.278 28.35,45.952L29.069,45.692C29.895,47.926 31.074,50.022 32.558,51.89C32.742,52.119 32.941,52.349 33.155,52.593C36.277,48.507 42.949,45.738 52.055,45.584C60.839,45.431 67.542,48.446 70.755,52.838C71.061,52.517 71.337,52.18 71.582,51.89C73.066,50.022 74.245,47.926 75.071,45.692L75.79,45.952C74.933,48.263 73.724,50.42 72.194,52.364C71.918,52.716 71.597,53.098 71.215,53.481C70.817,53.894 70.358,54.277 69.837,54.598C68.812,55.226 67.695,55.455 66.685,55.241C66.547,55.21 66.44,55.134 66.363,55.027C66.287,54.904 66.272,54.767 66.302,54.629C66.455,54.017 66.195,53.282 65.69,52.808C65.185,52.349 64.42,52.088 63.609,52.104C63.226,52.119 62.691,52.196 62.323,52.502C61.879,52.869 61.711,53.588 61.895,54.231C62.017,54.69 62.384,55.119 62.752,55.516C62.889,55.669 62.92,55.899 62.813,56.083C62.706,56.266 62.476,56.343 62.277,56.282C61.803,56.129 61.191,56.343 60.823,56.756C60.41,57.246 60.196,57.95 60.181,58.975C60.165,60.245 60.426,61.194 60.977,61.806C61.527,62.403 62.522,62.587 63.119,62.204C63.287,62.082 63.517,62.097 63.685,62.204C63.854,62.326 63.93,62.525 63.884,62.74C63.777,63.168 63.762,63.459 63.823,63.719C63.961,64.255 64.481,64.591 64.787,64.744C66.011,65.357 67.603,65.127 68.598,64.178C69.348,63.459 69.73,62.434 70.113,61.362C70.511,60.291 70.908,59.189 71.735,58.348C72.041,58.026 72.408,57.766 72.775,57.536C73.143,57.307 73.525,57.108 73.908,56.909C74.336,56.695 74.78,56.465 75.178,56.19C77.229,54.812 78.239,52.44 79.264,49.686L79.983,49.946C78.912,52.823 77.841,55.317 75.607,56.817C75.117,57.139 74.642,57.368 74.199,57.598Z" style="fill:#b000c5;fill-rule:nonzero;"/>
    </g>
</svg>
