<?xml version="1.0" encoding="UTF-8" standalone="no"?>
<!DOCTYPE svg PUBLIC "-//W3C//DTD SVG 1.1//EN" "http://www.w3.org/Graphics/SVG/1.1/DTD/svg11.dtd">
<svg width="100%" height="100%" viewBox="0 0 101 101" version="1.1" xmlns="http://www.w3.org/2000/svg" xmlns:xlink="http://www.w3.org/1999/xlink" xml:space="preserve" xmlns:serif="http://www.serif.com/" style="fill-rule:evenodd;clip-rule:evenodd;stroke-linejoin:round;stroke-miterlimit:1.41421;">
    <rect x="0.047" y="0.129" width="100" height="100" style="fill:none;"/>
    <g id="Beth">
        <ellipse cx="23.699" cy="18.558" rx="4.757" ry="5.294" style="fill:#e24b83;"/>
        <ellipse cx="79.999" cy="18.465" rx="4.922" ry="5.376" style="fill:#e24b83;"/>
        <path d="M24.554,15.841C23.162,15.841 22.045,16.973 22.045,18.351C22.045,19.728 23.177,20.86 24.554,20.86C24.6,20.86 24.646,20.86 24.692,20.86C25.09,19.345 25.564,17.846 26.146,16.407C25.717,16.055 25.151,15.841 24.554,15.841Z" style="fill-rule:nonzero;"/>
        <path d="M82.126,18.305C82.126,16.912 80.993,15.795 79.616,15.795C79.05,15.795 78.53,15.979 78.116,16.3C78.729,17.754 79.218,19.284 79.616,20.83L79.631,20.83C81.009,20.83 82.126,19.697 82.126,18.305Z" style="fill-rule:nonzero;"/>
        <path d="M28.096,25.906C33.333,41.65 47.182,41.484 50.549,41.27C55.507,40.964 73.374,42.575 75.974,25.252C76.202,23.735 76.464,22.375 76.464,20.677C76.464,17.922 75.331,15.351 73.342,13.117L71,19.498C70.924,19.713 70.725,19.85 70.511,19.85C70.281,19.85 70.097,19.713 70.021,19.498L66.899,10.714C66.853,10.592 66.761,10.5 66.639,10.469C66.516,10.439 66.379,10.469 66.287,10.561L64.221,12.596C64.114,12.704 63.961,12.765 63.792,12.749C63.639,12.734 63.502,12.658 63.41,12.52L61.053,9.046C60.992,8.954 60.885,8.893 60.778,8.878C60.67,8.862 60.563,8.908 60.472,8.985L57.61,11.892C57.518,12 57.38,12.046 57.242,12.046C57.105,12.046 56.967,11.984 56.875,11.892L53.876,8.893C53.738,8.755 53.508,8.74 53.355,8.893L50.8,11.342C50.616,11.525 50.31,11.541 50.111,11.372L47.004,8.862C46.867,8.74 46.653,8.755 46.515,8.878L43.745,11.525C43.561,11.694 43.301,11.724 43.087,11.586L40.087,9.566C40.011,9.505 39.904,9.49 39.812,9.505C39.72,9.52 39.628,9.582 39.582,9.673L37.975,12.107C37.899,12.229 37.777,12.306 37.639,12.336C37.501,12.367 37.363,12.336 37.241,12.26L35.695,11.219C35.588,11.158 35.466,11.143 35.359,11.173C35.251,11.219 35.16,11.311 35.129,11.433L33.461,17.738C33.4,17.968 33.201,18.121 32.971,18.136C32.726,18.136 32.527,17.999 32.451,17.769L30.905,12.994C28.855,15.259 27.382,17.876 27.382,20.661C27.382,22.513 27.54,24.232 28.096,25.906Z" style="fill:#363648;fill-rule:nonzero;"/>
        <path d="M50.023,35.418C63.887,35.136 70.846,31.336 70.892,31.321C70.938,31.306 71.829,27.506 71.829,27.506C69.319,26.327 66.547,24.594 63.93,23.799C59.155,22.36 54.105,22.008 49.147,22.314C45.796,22.513 42.413,23.018 39.292,24.273C37.547,24.977 35.925,25.91 34.287,26.813C34.012,26.966 29.762,29.742 29.411,30.14C29.411,30.14 45.323,35.514 50.023,35.418Z" style="fill:#d5a3a7;fill-rule:nonzero;"/>
        <path d="M31.028,12.903L32.604,17.708C32.665,17.907 32.834,17.968 32.971,17.968C33.094,17.968 33.262,17.891 33.323,17.692L34.991,11.387C35.037,11.219 35.16,11.097 35.313,11.036C35.481,10.974 35.649,10.99 35.787,11.097L37.333,12.137C37.409,12.199 37.516,12.214 37.608,12.199C37.7,12.183 37.792,12.122 37.853,12.03L39.429,9.597C39.506,9.475 39.628,9.398 39.766,9.367C39.904,9.337 40.041,9.367 40.164,9.444L43.163,11.449C43.316,11.541 43.5,11.525 43.622,11.403L46.392,8.755C46.576,8.572 46.882,8.556 47.081,8.725L50.188,11.234C50.325,11.357 50.54,11.342 50.677,11.219L53.233,8.786C53.447,8.587 53.769,8.587 53.968,8.801L56.967,11.801C57.044,11.877 57.135,11.908 57.227,11.908C57.334,11.908 57.426,11.862 57.487,11.801L60.349,8.893C60.456,8.786 60.609,8.725 60.778,8.74C60.931,8.755 61.084,8.832 61.16,8.97L63.517,12.459C63.578,12.551 63.685,12.612 63.792,12.627C63.899,12.642 64.007,12.596 64.083,12.52L66.149,10.485C66.272,10.362 66.455,10.301 66.639,10.347C66.807,10.393 66.96,10.515 67.021,10.684L70.143,19.468C70.204,19.651 70.373,19.713 70.495,19.713C70.618,19.713 70.786,19.651 70.847,19.468L73.173,13.025L73.25,13.056C69.057,8.388 61.13,5.251 52.055,5.251C43.041,5.251 35.175,8.342 30.951,12.948L31.028,12.903Z" style="fill:#fff;fill-rule:nonzero;"/>
        <path d="M75.897,25.375L72.867,23.079C72.821,23.049 72.775,23.049 72.73,23.064C72.684,23.079 72.653,23.125 72.638,23.171L71.092,30.364C71.077,30.456 71.016,30.532 70.939,30.563C70.863,30.609 70.755,30.609 70.679,30.563L66.073,28.282C65.996,28.252 65.92,28.282 65.889,28.344L63.762,32.368C63.716,32.445 63.655,32.506 63.563,32.522C63.471,32.537 63.394,32.522 63.318,32.46L58.911,29.094C58.88,29.063 58.849,29.063 58.803,29.063C58.773,29.063 58.727,29.094 58.712,29.124L55.758,33.287C55.712,33.348 55.636,33.394 55.559,33.409C55.544,33.409 55.529,33.409 55.513,33.409C55.452,33.409 55.391,33.394 55.33,33.348L50.861,29.828C50.8,29.782 50.723,29.782 50.677,29.843L47.295,33.317C47.234,33.379 47.173,33.409 47.081,33.409C47.004,33.409 46.928,33.379 46.867,33.317L43.393,29.583C43.347,29.537 43.27,29.522 43.209,29.568L39.062,32.368C38.94,32.46 38.756,32.43 38.664,32.307L35.925,28.787C35.879,28.742 35.818,28.726 35.756,28.742L32.328,30.058C32.237,30.088 32.145,30.088 32.068,30.027C31.992,29.981 31.946,29.889 31.931,29.798L31.334,22.987C31.334,22.926 31.288,22.88 31.242,22.865C31.196,22.85 31.135,22.865 31.089,22.896L28.273,25.727L28.227,25.681C30.569,35.444 40.363,36.103 52.07,36.103C63.838,36.103 73.663,34.894 75.959,25.329L75.897,25.375Z" style="fill:#fff;fill-rule:nonzero;"/>
        <path d="M72.225,58.522C71.521,59.241 71.153,60.236 70.786,61.261C70.388,62.363 69.96,63.511 69.087,64.368C68.322,65.103 67.266,65.485 66.21,65.485C65.583,65.485 64.955,65.347 64.404,65.072C63.685,64.705 63.211,64.169 63.042,63.557C62.966,63.266 62.966,62.991 62.997,62.731C62.124,63.006 61.053,62.715 60.364,61.981C59.676,61.231 59.339,60.098 59.37,58.629C59.385,57.864 59.492,56.732 60.196,55.92C60.563,55.492 61.114,55.217 61.665,55.155C61.42,54.834 61.221,54.497 61.114,54.115C60.854,53.166 61.13,52.156 61.788,51.59C62.216,51.222 62.813,51.023 63.548,51.008C64.558,50.977 65.522,51.314 66.18,51.911C66.838,52.508 67.174,53.38 67.083,54.191C67.832,54.268 68.674,54.053 69.424,53.594C69.929,53.288 70.373,52.89 70.771,52.493C67.557,48.1 60.854,45.086 52.07,45.239C42.964,45.392 36.292,48.162 33.17,52.248C33.614,52.737 34.134,53.227 34.731,53.594C35.496,54.053 36.338,54.268 37.073,54.191C36.981,53.38 37.317,52.508 37.975,51.911C38.634,51.314 39.582,50.993 40.608,51.008C41.342,51.023 41.939,51.222 42.368,51.59C43.041,52.156 43.301,53.166 43.041,54.115C42.934,54.497 42.735,54.834 42.49,55.155C43.041,55.217 43.592,55.492 43.959,55.92C44.678,56.747 44.77,57.864 44.785,58.629C44.816,60.098 44.479,61.231 43.791,61.981C43.117,62.715 42.031,63.006 41.159,62.731C41.189,62.991 41.189,63.281 41.113,63.557C40.944,64.169 40.47,64.705 39.751,65.072C39.2,65.347 38.572,65.485 37.945,65.485C36.889,65.485 35.833,65.103 35.068,64.368C34.18,63.526 33.767,62.379 33.369,61.261C32.987,60.221 32.635,59.241 31.931,58.522C31.716,58.308 31.487,58.124 31.227,57.941C31.227,58.384 31.273,58.843 31.334,59.303C33.981,76.856 40.623,73.382 52.101,73.382C63.578,73.382 71.735,76.335 72.867,59.303C72.898,58.874 72.898,58.446 72.867,58.032C72.607,58.17 72.408,58.338 72.225,58.522Z" style="fill:#e24b83;fill-rule:nonzero;"/>
        <rect x="23.575" y="40.461" width="57.417" height="34.853" style="fill:#e24b83;"/>
        <path d="M83.656,77.957C83.911,75.46 83.594,72.938 83.564,70.428C83.534,67.834 83.521,65.039 83.473,62.394C83.425,59.782 83.274,54.574 83.274,54.558C83.182,52.049 83.072,49.547 82.922,47.044C82.769,44.489 82.624,41.824 82.355,39.224C82.011,35.888 81.498,31.083 80.856,27.028C80.718,26.186 80.58,25.344 80.427,24.503C83.381,24.105 85.676,21.58 85.676,18.519C85.676,15.183 82.968,12.474 79.631,12.474C78.53,12.474 77.504,12.765 76.617,13.285C76.433,12.964 76.234,12.642 76.02,12.336C65.568,-3.212 38.863,-3.334 28.334,12.336C28.105,12.673 27.89,13.025 27.676,13.377C26.773,12.826 25.702,12.52 24.57,12.52C21.233,12.52 18.525,15.229 18.525,18.565C18.525,21.671 20.882,24.242 23.896,24.579C23.743,25.39 23.606,26.217 23.483,27.028C22.84,31.068 21.432,47.044 21.402,47.044C21.249,49.554 21.142,52.064 21.05,54.574C21.065,54.574 21.08,54.574 21.111,54.574L21.111,54.558C21.111,54.574 20.882,62.394 20.851,62.394C20.805,65.072 20.774,67.765 20.759,70.443C20.774,70.443 20.598,75.529 20.744,78.049C20.889,80.567 22.474,83.186 21.631,85.563C20.68,88.249 17.777,91.681 15.034,94.164C9.771,98.928 25.888,93.345 28.468,94.787C31.922,96.716 37.555,99.184 39.238,93.491C39.483,92.665 44.906,101.355 45.317,98.615C45.71,95.99 48.422,94.713 49.952,94.713C54.191,94.713 53.814,98.143 57.181,92.014C61.413,84.307 59.347,96.984 60.276,99.276C61.205,101.567 67.591,91.952 68.361,92.339C74.88,95.614 76.411,97.409 79.349,95.931C81.57,94.813 84.243,93.043 85.756,91.069C87.279,89.081 83.355,80.903 83.656,77.957ZM79.616,14.004C82.111,14.004 84.131,16.024 84.131,18.519C84.131,20.845 82.371,22.758 80.121,23.003C79.509,20.095 78.667,17.233 77.336,14.617C78.009,14.234 78.79,14.004 79.616,14.004ZM24.172,23.064C21.861,22.88 20.025,20.937 20.025,18.565C20.025,16.07 22.045,14.05 24.539,14.05C25.411,14.05 26.222,14.295 26.911,14.724C25.61,17.325 24.784,20.172 24.172,23.064ZM52.07,5.22C65.537,5.22 76.448,12.122 76.448,20.646C76.448,34.496 65.537,36.072 52.07,36.072C38.603,36.072 27.676,35.215 27.676,20.661C27.676,12.137 38.603,5.22 52.07,5.22ZM74.199,57.221C73.709,57.481 73.235,57.726 72.806,58.017C72.837,58.43 72.837,58.859 72.806,59.287C71.689,76.32 63.517,73.366 52.039,73.366C40.562,73.366 33.935,76.84 31.273,59.287C31.196,58.828 31.165,58.369 31.165,57.925C30.783,57.665 30.354,57.436 29.895,57.206C29.451,56.976 28.977,56.732 28.549,56.441C26.314,54.941 25.243,52.447 24.172,49.57L24.891,49.309C25.916,52.049 26.926,54.436 28.977,55.813C29.375,56.074 29.819,56.303 30.247,56.533C30.569,56.701 30.89,56.869 31.196,57.053C31.625,57.313 32.053,57.604 32.42,57.971C33.247,58.813 33.645,59.915 34.042,60.986C34.44,62.057 34.808,63.067 35.558,63.802C36.537,64.751 38.144,64.995 39.368,64.368C39.674,64.215 40.194,63.878 40.332,63.343C40.393,63.082 40.378,62.792 40.271,62.363C40.225,62.164 40.302,61.95 40.47,61.828C40.638,61.705 40.868,61.705 41.036,61.828C41.618,62.226 42.628,62.042 43.179,61.43C43.73,60.818 44.005,59.869 43.974,58.599C43.959,57.558 43.745,56.854 43.332,56.38C42.964,55.966 42.352,55.767 41.878,55.905C41.679,55.966 41.465,55.89 41.342,55.706C41.235,55.523 41.25,55.293 41.403,55.14C41.771,54.742 42.138,54.329 42.26,53.855C42.444,53.196 42.26,52.493 41.832,52.125C41.465,51.804 40.929,51.727 40.546,51.727C39.72,51.712 38.97,51.957 38.465,52.431C37.945,52.906 37.7,53.64 37.853,54.252C37.884,54.39 37.868,54.528 37.792,54.65C37.715,54.773 37.608,54.849 37.47,54.865C36.46,55.063 35.343,54.834 34.318,54.222C33.69,53.839 33.155,53.35 32.696,52.86C32.42,52.554 32.175,52.263 31.946,51.988C30.416,50.059 29.191,47.901 28.35,45.575L29.069,45.315C29.895,47.55 31.074,49.646 32.558,51.513C32.742,51.743 32.941,51.972 33.155,52.217C36.277,48.131 42.949,45.361 52.055,45.208C60.839,45.055 67.542,48.07 70.755,52.462C71.061,52.141 71.337,51.804 71.582,51.513C73.066,49.646 74.245,47.55 75.071,45.315L75.79,45.575C74.933,47.886 73.724,50.044 72.194,51.988C71.918,52.339 71.597,52.722 71.215,53.105C70.817,53.518 70.358,53.9 69.837,54.222C68.812,54.849 67.695,55.079 66.685,54.865C66.547,54.834 66.44,54.757 66.363,54.65C66.287,54.528 66.272,54.39 66.302,54.252C66.455,53.64 66.195,52.906 65.69,52.431C65.185,51.972 64.42,51.712 63.609,51.727C63.226,51.743 62.691,51.819 62.323,52.125C61.879,52.493 61.711,53.212 61.895,53.855C62.017,54.314 62.384,54.742 62.752,55.14C62.889,55.293 62.92,55.523 62.813,55.706C62.706,55.89 62.476,55.966 62.277,55.905C61.803,55.752 61.191,55.966 60.823,56.38C60.41,56.869 60.196,57.573 60.181,58.599C60.165,59.869 60.426,60.818 60.977,61.43C61.527,62.027 62.522,62.21 63.119,61.828C63.287,61.705 63.517,61.72 63.685,61.828C63.854,61.95 63.93,62.149 63.884,62.363C63.777,62.792 63.762,63.082 63.823,63.343C63.961,63.878 64.481,64.215 64.787,64.368C66.011,64.98 67.603,64.751 68.598,63.802C69.348,63.082 69.73,62.057 70.113,60.986C70.511,59.915 70.908,58.813 71.735,57.971C72.041,57.65 72.408,57.39 72.775,57.16C73.143,56.931 73.525,56.732 73.908,56.533C74.336,56.318 74.78,56.089 75.178,55.813C77.229,54.436 78.239,52.064 79.264,49.309L79.983,49.57C78.912,52.447 77.841,54.941 75.607,56.441C75.117,56.762 74.642,56.992 74.199,57.221Z" style="fill:#18051a;fill-rule:nonzero;"/>
    </g>
</svg>
