<?xml version="1.0" encoding="UTF-8" standalone="no"?>
<!DOCTYPE svg PUBLIC "-//W3C//DTD SVG 1.1//EN" "http://www.w3.org/Graphics/SVG/1.1/DTD/svg11.dtd">
<svg width="100%" height="100%" viewBox="0 0 101 101" version="1.1" xmlns="http://www.w3.org/2000/svg" xmlns:xlink="http://www.w3.org/1999/xlink" xml:space="preserve" xmlns:serif="http://www.serif.com/" style="fill-rule:evenodd;clip-rule:evenodd;stroke-linejoin:round;stroke-miterlimit:1.41421;">
    <rect id="Bjorn" x="0.303" y="0.129" width="100" height="100" style="fill:none;"/>
    <g id="Bjorn1" serif:id="Bjorn">
        <path d="M89.616,56.541C89.2,56.221 88.704,56.045 88.192,55.917C87.007,55.629 85.823,55.661 84.623,55.741C84.255,55.757 82.75,56.061 82.494,55.693L69.644,37.897C69.628,37.865 69.612,37.833 69.596,37.785C68.747,31.656 68.667,25.142 64.907,19.957C63.946,18.629 62.794,17.428 61.514,16.388C61.546,16.26 61.562,16.164 61.578,16.116C61.77,15.268 61.978,14.42 62.266,13.62C62.81,12.083 63.37,10.531 64.202,9.123C65.995,6.082 69.564,3.938 73.1,5.378C74.461,5.922 75.549,6.914 76.653,7.858C77.069,8.226 79.054,9.875 79.518,8.691C79.774,8.018 78.782,6.226 78.462,5.65C77.901,4.642 77.149,3.746 76.253,3.025C68.539,-3.168 59.049,3.826 56.073,11.411C56.073,11.427 56.057,11.443 56.057,11.459C55.849,11.987 55.657,12.563 55.545,13.14C52.12,11.987 48.647,11.955 45.206,13.076C45.094,12.531 44.918,11.971 44.71,11.459C44.71,11.443 44.694,11.427 44.694,11.411C41.734,3.81 32.26,-3.184 24.53,3.009C23.634,3.73 22.866,4.626 22.321,5.634C22.001,6.21 21.009,8.002 21.265,8.675C21.729,9.875 23.714,8.21 24.13,7.842C25.234,6.898 26.322,5.906 27.683,5.362C31.219,3.922 34.788,6.066 36.581,9.107C37.413,10.515 37.973,12.083 38.517,13.604C38.805,14.42 39.029,15.268 39.205,16.1C39.205,16.132 39.221,16.164 39.237,16.228C37.893,17.3 36.677,18.549 35.668,19.925C31.892,25.11 31.827,31.624 30.979,37.753C30.979,37.785 30.963,37.833 30.931,37.865L18.081,55.661C17.824,56.013 16.32,55.725 15.952,55.709C14.736,55.629 13.568,55.597 12.383,55.885C11.871,56.013 11.375,56.189 10.959,56.509C10.351,56.989 10.223,57.645 10.207,58.365C10.191,60.094 12.383,60.686 13.776,60.526C15.136,60.366 16.384,59.774 17.616,59.181C17.824,59.085 18.033,59.31 17.92,59.502C17.776,59.774 17.664,60.046 17.584,60.174C17.248,60.702 17.04,61.118 16.912,61.726C16.736,62.542 16.384,63.374 16.464,64.223C16.608,65.743 18.865,65.967 19.905,65.295C20.721,64.767 21.041,63.646 21.137,62.734C21.201,62.19 21.201,61.646 21.185,61.118C21.185,61.022 21.201,60.862 21.201,60.702C21.217,60.478 21.521,60.398 21.633,60.59C22.241,61.614 22.93,62.83 23.906,63.23C24.482,63.47 25.33,63.55 25.938,63.358C26.754,63.102 26.882,62.062 26.834,61.342C26.722,60.062 26.146,59.149 25.058,58.461C24.85,58.333 23.058,57.389 22.305,57.101C22.161,57.053 22.113,56.861 22.209,56.733C23.378,55.245 28.739,48.411 30.259,46.475C30.387,46.299 30.675,46.395 30.675,46.619C30.675,46.619 18.761,93.765 19.866,95.007C23.146,98.692 23.064,96.871 28.066,98.506C29.315,98.915 34.513,101.62 41.63,96.79C44.958,94.531 48.365,97.36 53.953,96.887C57.991,96.545 60.047,100.087 66.401,99.076C74.688,97.759 74.268,93.011 74.397,91.797C75.197,84.27 69.932,46.619 69.932,46.619C69.932,46.395 70.22,46.299 70.348,46.475C71.868,48.411 77.229,55.229 78.398,56.733C78.494,56.861 78.446,57.037 78.302,57.101C77.549,57.389 75.757,58.333 75.549,58.461C74.461,59.149 73.885,60.046 73.773,61.342C73.709,62.062 73.853,63.102 74.669,63.358C75.261,63.55 76.125,63.47 76.701,63.23C77.677,62.83 78.366,61.614 78.974,60.574C79.086,60.382 79.39,60.446 79.406,60.686C79.422,60.862 79.422,61.022 79.422,61.102C79.406,61.646 79.406,62.19 79.47,62.718C79.582,63.63 79.886,64.751 80.702,65.279C81.742,65.951 84.015,65.711 84.143,64.207C84.223,63.358 83.871,62.51 83.695,61.71C83.567,61.102 83.343,60.686 83.023,60.158C82.943,60.03 82.814,59.758 82.686,59.486C82.59,59.293 82.798,59.069 82.991,59.165C84.223,59.742 85.471,60.35 86.831,60.51C88.224,60.67 90.416,60.078 90.4,58.349C90.352,57.661 90.208,57.005 89.616,56.541Z" style="fill:#00211c;fill-rule:nonzero;"/>
        <path d="M50.456,61.133C46.424,61.133 43.157,64.416 43.157,68.431C43.157,72.447 46.44,75.73 50.456,75.73C54.471,75.73 57.754,72.447 57.754,68.431C57.754,64.416 54.487,61.133 50.456,61.133Z" style="fill:#a5b0ff;fill-rule:nonzero;"/>
        <path d="M50.456,40.795C46.416,40.795 43.143,44.084 43.143,48.107C43.143,52.13 46.432,55.419 50.456,55.419C54.479,55.419 57.768,52.13 57.768,48.107C57.768,44.084 54.495,40.795 50.456,40.795Z" style="fill:#a5b0ff;fill-rule:nonzero;"/>
        <path d="M50.456,20.321C46.422,20.321 43.153,23.605 43.153,27.623C43.153,31.64 46.438,34.925 50.456,34.925C54.473,34.925 57.758,31.64 57.758,27.623C57.758,23.605 54.489,20.321 50.456,20.321Z" style="fill:#a5b0ff;fill-rule:nonzero;"/>
        <path d="M47.719,25.894C47.575,26.246 47.495,26.614 47.495,27.015C47.495,28.631 48.807,29.943 50.423,29.943C52.04,29.943 53.352,28.631 53.352,27.015C53.352,26.614 53.272,26.246 53.128,25.894L47.719,25.894Z" style="fill:#061010;fill-rule:nonzero;"/>
        <path d="M47.719,46.507C47.575,46.859 47.495,47.227 47.495,47.627C47.495,49.243 48.807,50.556 50.423,50.556C52.04,50.556 53.352,49.243 53.352,47.627C53.352,47.227 53.272,46.859 53.128,46.507L47.719,46.507Z" style="fill:#061010;fill-rule:nonzero;"/>
        <path d="M47.719,66.463C47.575,66.815 47.495,67.183 47.495,67.583C47.495,69.2 48.807,70.512 50.423,70.512C52.04,70.512 53.352,69.2 53.352,67.583C53.352,67.183 53.272,66.815 53.128,66.463L47.719,66.463Z" style="fill:#061010;fill-rule:nonzero;"/>
        <path d="M50.456,20.293C47.015,20.293 44.118,22.678 43.334,25.894L57.593,25.894C56.809,22.678 53.896,20.293 50.456,20.293Z" style="fill:#00ff1f;fill-rule:nonzero;"/>
        <path d="M50.456,40.778C46.967,40.778 44.038,43.242 43.302,46.507L57.609,46.507C56.889,43.226 53.944,40.778 50.456,40.778Z" style="fill:#00ff1f;fill-rule:nonzero;"/>
        <path d="M50.456,61.102C47.095,61.102 44.262,63.374 43.398,66.463L57.529,66.463C56.649,63.374 53.816,61.102 50.456,61.102Z" style="fill:#00ff1f;fill-rule:nonzero;"/>
    </g>
</svg>
