<?xml version="1.0" encoding="UTF-8" standalone="no"?>
<!DOCTYPE svg PUBLIC "-//W3C//DTD SVG 1.1//EN" "http://www.w3.org/Graphics/SVG/1.1/DTD/svg11.dtd">
<svg width="100%" height="100%" viewBox="0 0 101 101" version="1.1" xmlns="http://www.w3.org/2000/svg" xmlns:xlink="http://www.w3.org/1999/xlink" xml:space="preserve" xmlns:serif="http://www.serif.com/" style="fill-rule:evenodd;clip-rule:evenodd;stroke-linejoin:round;stroke-miterlimit:1.41421;">
    <rect id="Bjorn" x="0.303" y="0.506" width="100" height="100" style="fill:none;"/>
    <g id="Bjorn1" serif:id="Bjorn">
        <path d="M89.616,56.917C89.2,56.597 88.704,56.421 88.192,56.293C87.007,56.005 85.823,56.037 84.623,56.117C84.255,56.133 82.75,56.437 82.494,56.069L69.644,38.273C69.628,38.241 69.612,38.209 69.596,38.161C68.747,32.032 68.667,25.519 64.907,20.333C63.946,19.005 62.794,17.805 61.514,16.765C61.546,16.637 61.562,16.541 61.578,16.493C61.77,15.644 61.978,14.796 62.266,13.996C62.81,12.46 63.37,10.907 64.202,9.499C65.995,6.458 69.564,4.314 73.1,5.754C74.461,6.298 75.549,7.291 76.653,8.235C77.069,8.603 79.054,10.251 79.518,9.067C79.774,8.395 78.782,6.602 78.462,6.026C77.901,5.018 77.149,4.122 76.253,3.402C68.539,-2.792 59.049,4.202 56.073,11.788C56.073,11.804 56.057,11.82 56.057,11.836C55.849,12.364 55.657,12.94 55.545,13.516C52.12,12.364 48.647,12.332 45.206,13.452C45.094,12.908 44.918,12.348 44.71,11.836C44.71,11.82 44.694,11.804 44.694,11.788C41.734,4.186 32.26,-2.808 24.53,3.386C23.634,4.106 22.866,5.002 22.321,6.01C22.001,6.586 21.009,8.379 21.265,9.051C21.729,10.251 23.714,8.587 24.13,8.219C25.234,7.275 26.322,6.282 27.683,5.738C31.219,4.298 34.788,6.442 36.581,9.483C37.413,10.891 37.973,12.46 38.517,13.98C38.805,14.796 39.029,15.644 39.205,16.477C39.205,16.509 39.221,16.541 39.237,16.605C37.893,17.677 36.677,18.925 35.668,20.301C31.892,25.487 31.827,32 30.979,38.129C30.979,38.161 30.963,38.209 30.931,38.241L18.081,56.037C17.824,56.389 16.32,56.101 15.952,56.085C14.736,56.005 13.568,55.973 12.383,56.261C11.871,56.389 11.375,56.565 10.959,56.885C10.351,57.365 10.223,58.022 10.207,58.742C10.191,60.47 12.383,61.062 13.776,60.902C15.136,60.742 16.384,60.15 17.616,59.558C17.824,59.462 18.033,59.686 17.92,59.878C17.776,60.15 17.664,60.422 17.584,60.55C17.248,61.078 17.04,61.494 16.912,62.102C16.736,62.919 16.384,63.751 16.464,64.599C16.608,66.119 18.865,66.343 19.905,65.671C20.721,65.143 21.041,64.023 21.137,63.111C21.201,62.567 21.201,62.022 21.185,61.494C21.185,61.398 21.201,61.238 21.201,61.078C21.217,60.854 21.521,60.774 21.633,60.966C22.241,61.99 22.93,63.207 23.906,63.607C24.482,63.847 25.33,63.927 25.938,63.735C26.754,63.479 26.882,62.439 26.834,61.718C26.722,60.438 26.146,59.526 25.058,58.838C24.85,58.71 23.058,57.766 22.305,57.477C22.161,57.429 22.113,57.237 22.209,57.109C23.378,55.621 28.739,48.788 30.259,46.851C30.387,46.675 30.675,46.771 30.675,46.995C30.675,46.995 18.761,94.142 19.866,95.383C23.146,99.068 23.064,97.247 28.066,98.883C29.315,99.291 34.513,101.996 41.63,97.166C44.958,94.907 48.365,97.737 53.953,97.264C57.991,96.922 60.047,100.463 66.401,99.453C74.688,98.135 74.268,93.388 74.397,92.173C75.197,84.646 69.932,46.995 69.932,46.995C69.932,46.771 70.22,46.675 70.348,46.851C71.868,48.788 77.229,55.605 78.398,57.109C78.494,57.237 78.446,57.413 78.302,57.477C77.549,57.766 75.757,58.71 75.549,58.838C74.461,59.526 73.885,60.422 73.773,61.718C73.709,62.439 73.853,63.479 74.669,63.735C75.261,63.927 76.125,63.847 76.701,63.607C77.677,63.207 78.366,61.99 78.974,60.95C79.086,60.758 79.39,60.822 79.406,61.062C79.422,61.238 79.422,61.398 79.422,61.478C79.406,62.022 79.406,62.567 79.47,63.095C79.582,64.007 79.886,65.127 80.702,65.655C81.742,66.327 84.015,66.087 84.143,64.583C84.223,63.735 83.871,62.887 83.695,62.086C83.567,61.478 83.343,61.062 83.023,60.534C82.943,60.406 82.814,60.134 82.686,59.862C82.59,59.67 82.798,59.446 82.991,59.542C84.223,60.118 85.471,60.726 86.831,60.886C88.224,61.046 90.416,60.454 90.4,58.726C90.352,58.038 90.208,57.381 89.616,56.917Z" style="fill:#11f1ce;fill-rule:nonzero;"/>
        <path d="M50.456,61.509C46.424,61.509 43.157,64.792 43.157,68.808C43.157,72.824 46.44,76.107 50.456,76.107C54.471,76.107 57.754,72.824 57.754,68.808C57.754,64.792 54.487,61.509 50.456,61.509Z" style="fill:#f9f8e8;fill-rule:nonzero;"/>
        <path d="M50.456,41.171C46.416,41.171 43.143,44.46 43.143,48.484C43.143,52.507 46.432,55.796 50.456,55.796C54.479,55.796 57.768,52.507 57.768,48.484C57.768,44.46 54.495,41.171 50.456,41.171Z" style="fill:#f9f8e8;fill-rule:nonzero;"/>
        <path d="M50.456,20.697C46.422,20.697 43.153,23.981 43.153,27.999C43.153,32.017 46.438,35.301 50.456,35.301C54.473,35.301 57.758,32.017 57.758,27.999C57.758,23.981 54.489,20.697 50.456,20.697Z" style="fill:#f9f8e8;fill-rule:nonzero;"/>
        <path d="M47.719,26.271C47.575,26.623 47.495,26.991 47.495,27.391C47.495,29.007 48.807,30.32 50.423,30.32C52.04,30.32 53.352,29.007 53.352,27.391C53.352,26.991 53.272,26.623 53.128,26.271L47.719,26.271Z" style="fill-rule:nonzero;"/>
        <path d="M47.719,46.883C47.575,47.235 47.495,47.603 47.495,48.003C47.495,49.62 48.807,50.932 50.423,50.932C52.04,50.932 53.352,49.62 53.352,48.003C53.352,47.603 53.272,47.235 53.128,46.883L47.719,46.883Z" style="fill-rule:nonzero;"/>
        <path d="M47.719,66.839C47.575,67.192 47.495,67.56 47.495,67.96C47.495,69.576 48.807,70.888 50.423,70.888C52.04,70.888 53.352,69.576 53.352,67.96C53.352,67.56 53.272,67.192 53.128,66.839L47.719,66.839Z" style="fill-rule:nonzero;"/>
        <path d="M50.456,20.67C47.015,20.67 44.118,23.054 43.334,26.271L57.593,26.271C56.809,23.054 53.896,20.67 50.456,20.67Z" style="fill:#ff00ec;fill-rule:nonzero;"/>
        <path d="M50.456,41.154C46.967,41.154 44.038,43.618 43.302,46.883L57.609,46.883C56.889,43.602 53.944,41.154 50.456,41.154Z" style="fill:#ff00ec;fill-rule:nonzero;"/>
        <path d="M50.456,61.478C47.095,61.478 44.262,63.751 43.398,66.839L57.529,66.839C56.649,63.751 53.816,61.478 50.456,61.478Z" style="fill:#ff00ec;fill-rule:nonzero;"/>
    </g>
</svg>
