<?xml version="1.0" encoding="UTF-8" standalone="no"?>
<!DOCTYPE svg PUBLIC "-//W3C//DTD SVG 1.1//EN" "http://www.w3.org/Graphics/SVG/1.1/DTD/svg11.dtd">
<svg width="100%" height="100%" viewBox="0 0 101 101" version="1.1" xmlns="http://www.w3.org/2000/svg" xmlns:xlink="http://www.w3.org/1999/xlink" xml:space="preserve" xmlns:serif="http://www.serif.com/" style="fill-rule:evenodd;clip-rule:evenodd;stroke-linejoin:round;stroke-miterlimit:1.41421;">
    <rect id="Freddie---Positive" serif:id="Freddie - Positive" x="0.044" y="0.506" width="100" height="100" style="fill:none;"/>
    <g id="Freddie">
        <rect x="6.026" y="17.67" width="39.076" height="13.652" style="fill:#f6fff6;"/>
        <rect x="7.596" y="38.847" width="37.134" height="7.463"/>
        <path d="M40.657,5.674C52.463,6.504 62.462,14.562 66.284,25.687C70.047,36.635 66.462,47.597 61.707,57.625C61.633,58.736 61.102,64.478 61.754,64.567C62.257,64.627 62.672,64.197 62.983,63.812C66.45,59.442 68.909,54.287 70.138,48.85C70.242,48.42 70.775,48.257 71.086,48.569L71.442,48.924C71.708,49.176 73.412,45.147 73.501,44.791C73.886,43.339 74.079,41.814 74.197,40.317C74.449,37.147 74.064,33.844 71.99,31.296C71.649,30.881 71.382,30.333 71.353,29.815C71.338,29.429 71.694,29.118 72.064,29.237C72.908,29.503 73.841,29.222 74.197,28.229C75.056,25.815 72.36,21.741 70.968,19.904C69.057,17.371 66.405,15.297 63.265,14.586C61.709,14.231 59.665,13.12 60.109,11.194C60.435,9.801 61.976,9.372 63.205,9.09C64.183,8.868 66.257,8.468 65.279,7.061C62.08,2.424 55.606,1.209 49.547,1.861C45.844,2.261 42.289,3.343 39.711,4.75C39.696,4.765 38.864,5.215 38.39,5.6C39.146,5.585 39.901,5.63 40.657,5.674Z" style="fill:#177fff;fill-rule:nonzero;"/>
        <path d="M34.585,20.912C31.46,20.912 28.927,23.445 28.927,26.57C28.927,29.696 31.46,32.229 34.585,32.229C37.711,32.229 40.244,29.696 40.244,26.57C40.244,23.445 37.711,20.912 34.585,20.912ZM32.467,26.896C31.549,26.896 30.793,26.156 30.793,25.222C30.793,24.304 31.534,23.548 32.467,23.548C33.386,23.548 34.141,24.289 34.141,25.222C34.141,26.141 33.386,26.896 32.467,26.896ZM35.771,30.807C35.059,30.807 34.482,30.229 34.482,29.518C34.482,28.807 35.059,28.229 35.771,28.229C36.482,28.229 37.059,28.807 37.059,29.518C37.059,30.229 36.482,30.807 35.771,30.807Z" style="fill-rule:nonzero;"/>
        <path d="M13.032,15.771C8.913,15.771 5.58,19.104 5.58,23.222C5.58,27.341 8.913,30.674 13.032,30.674C17.15,30.674 20.483,27.341 20.483,23.222C20.483,19.104 17.15,15.771 13.032,15.771ZM10.499,23.222C9.225,23.222 8.188,22.186 8.188,20.912C8.188,19.638 9.225,18.601 10.499,18.601C11.773,18.601 12.809,19.638 12.809,20.912C12.809,22.186 11.773,23.222 10.499,23.222ZM15.372,27.474C14.557,27.474 13.906,26.822 13.906,26.007C13.906,25.193 14.557,24.541 15.372,24.541C16.187,24.541 16.839,25.193 16.839,26.007C16.839,26.822 16.187,27.474 15.372,27.474Z" style="fill-rule:nonzero;"/>
        <path d="M98.321,87.247C96.469,87.751 94.44,87.721 92.558,87.291C88.737,86.402 86.04,83.958 82.722,82.077C79.389,80.166 77.155,81.656 74.059,82.589C70.297,83.73 69.947,80.053 66.996,78.614C66.529,78.386 65.934,73.218 64.7,70.555C63.479,67.919 57.695,66.152 59.191,63.234C65.101,51.739 71.101,38.643 66.598,25.578C62.776,14.453 52.777,6.409 40.97,5.565C34.778,5.12 28.793,5.861 23.535,8.364C21.164,6.705 18.29,5.742 15.18,5.742C7.106,5.742 0.544,12.305 0.544,20.378C0.544,25.341 3.018,29.726 6.795,32.377C6.573,33.814 6.484,35.251 6.543,36.644C6.84,36.17 7.21,35.784 7.728,35.725C8.514,35.636 9.358,36.57 9.862,37.236C10.469,38.036 11.032,38.984 11.432,39.962C11.654,40.495 11.861,41.028 12.01,41.577C12.024,41.636 12.039,41.68 12.054,41.74C14.987,42.539 18.187,42.954 21.638,42.969C22.735,42.969 23.816,42.939 24.897,42.88C24.794,42.302 24.823,41.665 24.868,41.236C24.957,40.332 25.075,39.266 25.905,38.732C26.705,38.214 27.964,38.584 28.779,38.91C29.741,39.295 30.719,39.843 31.534,40.495C32.038,40.91 32.541,41.325 32.986,41.814C33,41.828 33.015,41.843 33.03,41.858C36.689,41.177 40.096,40.273 43.029,39.429C43.385,39.325 43.74,39.532 43.844,39.888C43.948,40.243 43.74,40.599 43.385,40.703C40.526,41.517 37.222,42.391 33.667,43.073C33.623,43.132 33.549,43.191 33.43,43.206C32.882,43.206 32.289,43.369 31.741,43.458C31.104,43.547 30.467,43.636 29.83,43.725C29.623,43.754 28.986,43.828 28.927,43.843C28.453,43.902 27.979,43.962 27.519,44.021C27.134,44.065 26.749,44.11 26.364,44.154C26.171,44.184 25.831,44.258 25.608,44.169C24.349,44.258 23.09,44.317 21.816,44.317C21.742,44.317 21.683,44.317 21.609,44.317C18.231,44.302 15.076,43.917 12.158,43.162C12.143,43.162 12.143,43.176 12.143,43.176C12.113,43.176 12.069,43.176 12.039,43.162C11.624,43.043 11.21,42.91 10.795,42.776C10.721,42.762 10.661,42.732 10.587,42.717C9.802,42.465 9.017,42.214 8.247,41.917C7.551,41.651 6.854,41.369 6.158,41.058C5.936,40.954 5.758,40.851 5.669,40.673C5.506,40.584 5.329,40.495 5.166,40.406C4.988,40.347 4.81,40.258 4.662,40.154C3.966,39.71 2.055,38.169 1.284,39.117C0.618,39.917 1.003,41.68 1.047,42.643C1.107,44.006 1.225,45.354 1.403,46.702C1.759,49.354 2.381,51.976 3.373,54.45C5.936,60.849 7.136,67.708 10.617,73.737C13.743,79.129 18.261,83.751 23.638,86.921C27.012,88.913 32.084,91.698 37.286,93.799C42.954,96.088 48.777,97.564 52.725,96.313C59.02,94.328 64.753,99.542 70.99,99.305C76.708,99.098 81.878,95.854 87.655,96.135C89.981,96.254 92.573,96.979 94.44,95.602C95.136,95.098 95.625,94.372 96.099,93.646L99.343,88.728C99.906,87.958 99.195,87.01 98.321,87.247ZM15.194,33.903C7.714,33.903 1.655,27.844 1.655,20.363C1.655,12.883 7.714,6.839 15.194,6.839C21.016,6.839 25.979,10.512 27.89,15.668C25.371,17.786 23.772,20.971 23.772,24.511C23.772,26.378 24.216,28.141 25.001,29.696C22.542,32.288 19.061,33.903 15.194,33.903ZM35.326,34.955C29.549,34.955 24.868,30.274 24.868,24.496C24.868,18.719 29.549,14.038 35.326,14.038C41.103,14.038 45.785,18.719 45.785,24.496C45.785,30.274 41.103,34.955 35.326,34.955Z" style="fill:#00d03a;fill-rule:nonzero;"/>
        <path d="M35.326,14.038C29.549,14.038 24.868,18.719 24.868,24.496C24.868,30.274 29.549,34.955 35.326,34.955C41.103,34.955 45.785,30.274 45.785,24.496C45.785,18.719 41.103,14.038 35.326,14.038ZM34.585,32.229C31.46,32.229 28.927,29.696 28.927,26.57C28.927,23.445 31.46,20.912 34.585,20.912C37.711,20.912 40.244,23.445 40.244,26.57C40.244,29.696 37.711,32.229 34.585,32.229Z" style="fill:#ffdba2;fill-rule:nonzero;"/>
        <path d="M23.772,24.496C23.772,20.956 25.371,17.786 27.89,15.653C25.979,10.498 21.016,6.824 15.194,6.824C7.714,6.824 1.655,12.883 1.655,20.363C1.655,27.844 7.714,33.903 15.194,33.903C19.061,33.903 22.542,32.288 25.001,29.681C24.216,28.126 23.772,26.363 23.772,24.496ZM13.032,30.674C8.913,30.674 5.58,27.341 5.58,23.222C5.58,19.104 8.913,15.771 13.032,15.771C17.15,15.771 20.483,19.104 20.483,23.222C20.483,27.341 17.15,30.674 13.032,30.674Z" style="fill:#ffdba2;fill-rule:nonzero;"/>
        <path d="M12.039,41.562C11.876,41.014 11.669,40.48 11.461,39.947C11.061,38.984 10.513,38.021 9.891,37.221C9.373,36.54 8.543,35.621 7.758,35.71C6.943,35.799 6.484,36.703 6.114,37.458C5.817,38.066 5.58,38.732 5.536,39.414C5.521,39.754 5.546,40.173 5.62,40.514C5.679,40.825 5.902,40.958 6.183,41.092C6.864,41.403 7.561,41.699 8.272,41.951C9.516,42.425 10.79,42.825 12.064,43.195C12.094,43.21 12.138,43.21 12.168,43.21C12.39,43.181 12.276,42.628 12.247,42.495C12.202,42.184 12.128,41.873 12.039,41.562Z" style="fill:#ffdba2;fill-rule:nonzero;"/>
        <path d="M31.578,40.466C30.764,39.814 29.786,39.266 28.823,38.88C28.008,38.555 26.647,38.174 25.847,38.693C25.018,39.226 24.899,40.307 24.81,41.196C24.721,41.996 24.684,43.532 25.424,44.094C25.632,44.302 26.178,44.194 26.415,44.164C26.8,44.119 27.185,44.075 27.57,44.031C28.044,43.971 29.585,43.779 29.881,43.734C30.518,43.645 31.155,43.557 31.792,43.468C32.34,43.394 32.933,43.216 33.481,43.216C34.222,43.112 33.282,42.021 33.045,41.754C32.586,41.31 32.097,40.88 31.578,40.466Z" style="fill:#ffdba2;fill-rule:nonzero;"/>
    </g>
</svg>
