<?xml version="1.0" encoding="UTF-8" standalone="no"?>
<!DOCTYPE svg PUBLIC "-//W3C//DTD SVG 1.1//EN" "http://www.w3.org/Graphics/SVG/1.1/DTD/svg11.dtd">
<svg width="100%" height="100%" viewBox="0 0 101 101" version="1.1" xmlns="http://www.w3.org/2000/svg" xmlns:xlink="http://www.w3.org/1999/xlink" xml:space="preserve" xmlns:serif="http://www.serif.com/" style="fill-rule:evenodd;clip-rule:evenodd;stroke-linejoin:round;stroke-miterlimit:1.41421;">
    <rect id="Freddie---Positive" serif:id="Freddie - Positive" x="0.044" y="0.644" width="100" height="100" style="fill:none;"/>
    <g id="Freddie">
        <rect x="6.026" y="17.809" width="39.076" height="13.652" style="fill:#f6fff6;"/>
        <rect x="7.596" y="38.985" width="37.134" height="7.463"/>
        <path d="M40.657,5.813C52.463,6.643 62.462,14.701 66.284,25.826C70.047,36.773 66.462,47.735 61.707,57.764C61.633,58.875 61.102,64.617 61.754,64.706C62.257,64.765 62.672,64.336 62.983,63.951C66.45,59.581 68.909,54.425 70.138,48.989C70.242,48.559 70.775,48.396 71.086,48.707L71.442,49.063C71.708,49.315 73.412,45.285 73.501,44.93C73.886,43.478 74.079,41.952 74.197,40.456C74.449,37.286 74.064,33.983 71.99,31.435C71.649,31.02 71.382,30.472 71.353,29.953C71.338,29.568 71.694,29.257 72.064,29.376C72.908,29.642 73.841,29.361 74.197,28.368C75.056,25.954 72.36,21.88 70.968,20.043C69.057,17.51 66.405,15.436 63.265,14.725C61.709,14.37 59.665,13.258 60.109,11.333C60.435,9.94 61.976,9.511 63.205,9.229C64.183,9.007 66.257,8.607 65.279,7.2C62.08,2.563 55.606,1.348 49.547,2C45.844,2.4 42.289,3.482 39.711,4.889C39.696,4.904 38.864,5.354 38.39,5.739C39.146,5.724 39.901,5.769 40.657,5.813Z" style="fill:#ff4917;fill-rule:nonzero;"/>
        <path d="M34.585,21.05C31.46,21.05 28.927,23.584 28.927,26.709C28.927,29.835 31.46,32.368 34.585,32.368C37.711,32.368 40.244,29.835 40.244,26.709C40.244,23.584 37.711,21.05 34.585,21.05ZM32.467,27.035C31.549,27.035 30.793,26.294 30.793,25.361C30.793,24.443 31.534,23.687 32.467,23.687C33.386,23.687 34.141,24.428 34.141,25.361C34.141,26.28 33.386,27.035 32.467,27.035ZM35.771,30.946C35.059,30.946 34.482,30.368 34.482,29.657C34.482,28.946 35.059,28.368 35.771,28.368C36.482,28.368 37.059,28.946 37.059,29.657C37.059,30.368 36.482,30.946 35.771,30.946Z" style="fill-rule:nonzero;"/>
        <path d="M13.032,15.91C8.913,15.91 5.58,19.243 5.58,23.361C5.58,27.48 8.913,30.813 13.032,30.813C17.15,30.813 20.483,27.48 20.483,23.361C20.483,19.243 17.15,15.91 13.032,15.91ZM10.499,23.361C9.225,23.361 8.188,22.324 8.188,21.05C8.188,19.776 9.225,18.74 10.499,18.74C11.773,18.74 12.809,19.776 12.809,21.05C12.809,22.324 11.773,23.361 10.499,23.361ZM15.372,27.613C14.557,27.613 13.906,26.961 13.906,26.146C13.906,25.332 14.557,24.68 15.372,24.68C16.187,24.68 16.839,25.332 16.839,26.146C16.839,26.961 16.187,27.613 15.372,27.613Z" style="fill-rule:nonzero;"/>
        <path d="M98.321,87.386C96.469,87.889 94.44,87.86 92.558,87.43C88.737,86.541 86.04,84.097 82.722,82.216C79.389,80.305 77.155,81.795 74.059,82.728C70.297,83.869 69.947,80.192 66.996,78.752C66.529,78.525 65.934,73.357 64.7,70.694C63.479,68.058 57.695,66.291 59.191,63.373C65.101,51.878 71.101,38.782 66.598,25.717C62.776,14.592 52.777,6.548 40.97,5.704C34.778,5.259 28.793,6 23.535,8.503C21.164,6.844 18.29,5.881 15.18,5.881C7.106,5.881 0.544,12.444 0.544,20.517C0.544,25.48 3.018,29.865 6.795,32.516C6.573,33.953 6.484,35.39 6.543,36.782C6.84,36.308 7.21,35.923 7.728,35.864C8.514,35.775 9.358,36.708 9.862,37.375C10.469,38.175 11.032,39.123 11.432,40.101C11.654,40.634 11.861,41.167 12.01,41.715C12.024,41.775 12.039,41.819 12.054,41.878C14.987,42.678 18.187,43.093 21.638,43.108C22.735,43.108 23.816,43.078 24.897,43.019C24.794,42.441 24.823,41.804 24.868,41.375C24.957,40.471 25.075,39.404 25.905,38.871C26.705,38.353 27.964,38.723 28.779,39.049C29.741,39.434 30.719,39.982 31.534,40.634C32.038,41.049 32.541,41.464 32.986,41.952C33,41.967 33.015,41.982 33.03,41.997C36.689,41.315 40.096,40.412 43.029,39.567C43.385,39.464 43.74,39.671 43.844,40.027C43.948,40.382 43.74,40.738 43.385,40.841C40.526,41.656 37.222,42.53 33.667,43.212C33.623,43.271 33.549,43.33 33.43,43.345C32.882,43.345 32.289,43.508 31.741,43.597C31.104,43.686 30.467,43.775 29.83,43.863C29.623,43.893 28.986,43.967 28.927,43.982C28.453,44.041 27.979,44.1 27.519,44.16C27.134,44.204 26.749,44.249 26.364,44.293C26.171,44.323 25.831,44.397 25.608,44.308C24.349,44.397 23.09,44.456 21.816,44.456C21.742,44.456 21.683,44.456 21.609,44.456C18.231,44.441 15.076,44.056 12.158,43.3C12.143,43.3 12.143,43.315 12.143,43.315C12.113,43.315 12.069,43.315 12.039,43.3C11.624,43.182 11.21,43.049 10.795,42.915C10.721,42.901 10.661,42.871 10.587,42.856C9.802,42.604 9.017,42.352 8.247,42.056C7.551,41.789 6.854,41.508 6.158,41.197C5.936,41.093 5.758,40.99 5.669,40.812C5.506,40.723 5.329,40.634 5.166,40.545C4.988,40.486 4.81,40.397 4.662,40.293C3.966,39.849 2.055,38.308 1.284,39.256C0.618,40.056 1.003,41.819 1.047,42.782C1.107,44.145 1.225,45.493 1.403,46.841C1.759,49.493 2.381,52.115 3.373,54.588C5.936,60.988 7.136,67.847 10.617,73.876C13.743,79.268 18.261,83.89 23.638,87.06C27.012,89.052 32.084,91.837 37.286,93.938C42.954,96.227 48.777,97.703 52.725,96.452C59.02,94.467 64.753,99.681 70.99,99.444C76.708,99.237 81.878,95.992 87.655,96.274C89.981,96.392 92.573,97.118 94.44,95.741C95.136,95.237 95.625,94.511 96.099,93.785L99.343,88.867C99.906,88.097 99.195,87.149 98.321,87.386ZM15.194,34.042C7.714,34.042 1.655,27.983 1.655,20.502C1.655,13.021 7.714,6.978 15.194,6.978C21.016,6.978 25.979,10.651 27.89,15.806C25.371,17.925 23.772,21.11 23.772,24.65C23.772,26.517 24.216,28.279 25.001,29.835C22.542,32.427 19.061,34.042 15.194,34.042ZM35.326,35.094C29.549,35.094 24.868,30.413 24.868,24.635C24.868,18.858 29.549,14.177 35.326,14.177C41.103,14.177 45.785,18.858 45.785,24.635C45.785,30.413 41.103,35.094 35.326,35.094Z" style="fill:#00290c;fill-rule:nonzero;"/>
        <path d="M35.326,14.177C29.549,14.177 24.868,18.858 24.868,24.635C24.868,30.413 29.549,35.094 35.326,35.094C41.103,35.094 45.785,30.413 45.785,24.635C45.785,18.858 41.103,14.177 35.326,14.177ZM34.585,32.368C31.46,32.368 28.927,29.835 28.927,26.709C28.927,23.584 31.46,21.05 34.585,21.05C37.711,21.05 40.244,23.584 40.244,26.709C40.244,29.835 37.711,32.368 34.585,32.368Z" style="fill:#a9a9a9;fill-rule:nonzero;"/>
        <path d="M23.772,24.635C23.772,21.095 25.371,17.925 27.89,15.792C25.979,10.636 21.016,6.963 15.194,6.963C7.714,6.963 1.655,13.021 1.655,20.502C1.655,27.983 7.714,34.042 15.194,34.042C19.061,34.042 22.542,32.427 25.001,29.82C24.216,28.265 23.772,26.502 23.772,24.635ZM13.032,30.813C8.913,30.813 5.58,27.48 5.58,23.361C5.58,19.243 8.913,15.91 13.032,15.91C17.15,15.91 20.483,19.243 20.483,23.361C20.483,27.48 17.15,30.813 13.032,30.813Z" style="fill:#a9a9a9;fill-rule:nonzero;"/>
        <path d="M12.039,41.701C11.876,41.153 11.669,40.619 11.461,40.086C11.061,39.123 10.513,38.16 9.891,37.36C9.373,36.679 8.543,35.76 7.758,35.849C6.943,35.938 6.484,36.842 6.114,37.597C5.817,38.205 5.58,38.871 5.536,39.553C5.521,39.893 5.546,40.312 5.62,40.653C5.679,40.964 5.902,41.097 6.183,41.231C6.864,41.542 7.561,41.838 8.272,42.09C9.516,42.564 10.79,42.964 12.064,43.334C12.094,43.349 12.138,43.349 12.168,43.349C12.39,43.319 12.276,42.767 12.247,42.634C12.202,42.323 12.128,42.012 12.039,41.701Z" style="fill:#a9a9a9;fill-rule:nonzero;"/>
        <path d="M31.578,40.604C30.764,39.953 29.786,39.404 28.823,39.019C28.008,38.693 26.647,38.313 25.847,38.831C25.018,39.365 24.899,40.446 24.81,41.335C24.721,42.135 24.684,43.67 25.424,44.233C25.632,44.441 26.178,44.332 26.415,44.303C26.8,44.258 27.185,44.214 27.57,44.169C28.044,44.11 29.585,43.918 29.881,43.873C30.518,43.784 31.155,43.695 31.792,43.607C32.34,43.532 32.933,43.355 33.481,43.355C34.222,43.251 33.282,42.16 33.045,41.893C32.586,41.449 32.097,41.019 31.578,40.604Z" style="fill:#a9a9a9;fill-rule:nonzero;"/>
    </g>
</svg>
