<?xml version="1.0" encoding="UTF-8" standalone="no"?>
<!DOCTYPE svg PUBLIC "-//W3C//DTD SVG 1.1//EN" "http://www.w3.org/Graphics/SVG/1.1/DTD/svg11.dtd">
<svg width="100%" height="100%" viewBox="0 0 101 100" version="1.1" xmlns="http://www.w3.org/2000/svg" xmlns:xlink="http://www.w3.org/1999/xlink" xml:space="preserve" xmlns:serif="http://www.serif.com/" style="fill-rule:evenodd;clip-rule:evenodd;stroke-linejoin:round;stroke-miterlimit:1.41421;">
    <rect id="Marsha-Negative" serif:id="Marsha Negative" x="0.556" y="0" width="100" height="100" style="fill:none;"/>
    <rect id="Marsha-Negative1" serif:id="Marsha Negative" x="0.556" y="0" width="100" height="100" style="fill:none;"/>
    <g id="Marsha">
        <rect x="34.129" y="53.879" width="33.49" height="21.094" style="fill:#828282;"/>
        <g>
            <ellipse cx="17.226" cy="26.678" rx="11.607" ry="12.432"/>
            <ellipse cx="19.891" cy="27.53" rx="2.357" ry="2.18" style="fill:#fff;"/>
        </g>
        <g>
            <ellipse cx="81.63" cy="22.471" rx="11.607" ry="12.432"/>
            <ellipse cx="78.308" cy="22.999" rx="2.357" ry="2.18" style="fill:#fff;"/>
        </g>
        <path d="M80.295,19.116C77.043,19.116 74.389,21.754 74.389,25.023C74.389,28.292 77.026,30.929 80.295,30.929C83.564,30.929 86.202,28.292 86.202,25.023C86.202,21.754 83.548,19.116 80.295,19.116ZM78.467,24.748C77.463,24.748 76.638,23.939 76.638,22.919C76.638,21.916 77.447,21.091 78.467,21.091C79.486,21.091 80.295,21.9 80.295,22.919C80.295,23.939 79.486,24.748 78.467,24.748Z" style="fill-rule:nonzero;"/>
        <path d="M95.393,74.685C92.351,73.148 88.613,73.439 85.651,71.756C82.124,69.734 83.629,66.206 83.014,62.873C82.35,59.264 79.179,58.099 75.942,57.306C73.677,56.74 70.877,56.06 69.275,54.199C69,53.875 68.774,53.519 68.579,53.147C68.078,52.144 68.272,50.946 68.984,50.089L69,50.073C70.57,48.212 72.301,46.14 73.531,44.037C74.923,41.658 74.777,38.988 74.211,36.383C73.984,35.347 73.628,34.247 73.402,33.146C73.337,32.823 73.693,32.58 73.968,32.774C76.153,34.327 78.839,35.217 81.719,35.153C88.742,35.023 94.438,29.214 94.454,22.207C94.471,14.877 88.435,8.97 81.056,9.197C74.259,9.407 68.725,14.925 68.498,21.722C68.434,23.631 68.79,25.46 69.469,27.11C69.777,27.871 69.922,28.68 69.825,29.505L69.825,29.521C69.486,32.709 72.431,35.056 70.667,38.308C69.987,39.57 68.984,40.493 67.835,41.237C65.683,42.645 63.32,42.014 61.217,40.914C59.323,39.91 57.155,39.328 55.957,37.386C53.611,33.583 54.906,28.049 50.892,25.152C45.536,21.301 42.688,28.68 42.267,32.709C41.798,37.208 43.546,43.745 38.643,46.415C38.076,46.723 37.461,46.933 36.846,47.127C35.536,47.516 34.128,47.419 32.898,46.836C30.875,45.881 28.966,44.716 27.865,42.694C26.118,39.441 29.047,37.095 28.707,33.907L28.707,33.891C28.626,33.081 28.755,32.256 29.063,31.496C29.742,29.845 30.098,28.016 30.034,26.107C29.807,19.311 24.257,13.792 17.476,13.582C10.114,13.356 4.062,19.262 4.078,26.592C4.094,33.615 9.79,39.409 16.813,39.538C19.71,39.587 22.38,38.697 24.564,37.159C24.839,36.965 25.195,37.208 25.131,37.531C24.888,38.632 24.548,39.732 24.321,40.768C23.739,43.357 23.593,46.043 25.001,48.422C26.231,50.509 27.979,52.581 29.532,54.458C29.759,54.733 30.018,54.992 30.276,55.235C30.859,55.752 31.183,56.481 31.215,57.257C31.328,60.283 31.183,63.309 29.047,64.685C26.393,66.384 22.315,66.821 20.082,69.297C19.823,69.588 19.596,69.896 19.386,70.252C17.379,73.698 18.755,79.961 12.832,79.734C9.596,79.605 -0.566,75.543 1.278,82.857C2.12,86.223 5.421,88.197 8.609,88.796C12.347,89.492 16.473,90.528 20.405,90.787C24.176,91.029 27.202,89.298 30.697,88.165C34.937,86.806 39.533,86.369 43.902,87.324C46.459,87.89 49.29,88.926 52.041,89.152C55.31,89.427 57.705,88.278 60.634,87.065C65.537,85.026 70.958,84.605 76.185,85.495C82.965,86.66 91.461,91.207 97.739,86.175C102.06,82.679 99.794,76.902 95.393,74.685ZM70.99,22.417C70.99,16.721 75.602,12.11 81.298,12.11C86.994,12.11 91.606,16.721 91.606,22.417C91.606,28.114 86.994,32.725 81.298,32.725C75.602,32.725 70.99,28.114 70.99,22.417ZM17.234,37.111C11.538,37.111 6.926,32.499 6.926,26.803C6.926,21.107 11.538,16.495 17.234,16.495C22.93,16.495 27.542,21.107 27.542,26.803C27.542,32.499 22.93,37.111 17.234,37.111ZM64.404,64.475C62.479,68.132 59.21,70.43 55.181,70.964C53.805,71.142 52.171,71.32 50.472,71.32C49.177,71.32 47.834,71.222 46.507,70.964C41.021,69.863 37.461,64.313 36.361,59.28C36.021,57.71 36.215,56.594 36.943,55.963C38.27,54.83 41.054,55.558 43.174,56.367C47.219,57.921 51.896,59.264 55.909,57.322C56.313,57.128 56.815,56.837 57.333,56.545C57.673,56.351 58.045,56.141 58.417,55.93C60.634,54.717 63.11,53.697 64.712,55.396C66.832,57.63 65.942,61.562 64.404,64.475Z" style="fill:#828282;fill-rule:nonzero;"/>
        <path d="M17.234,16.479C11.538,16.479 6.926,21.091 6.926,26.787C6.926,32.483 11.538,37.095 17.234,37.095C22.93,37.095 27.542,32.483 27.542,26.787C27.542,21.091 22.93,16.479 17.234,16.479ZM18.237,35.298C14.984,35.298 12.331,32.661 12.331,29.392C12.331,26.123 14.968,23.485 18.237,23.485C21.506,23.485 24.143,26.123 24.143,29.392C24.143,32.661 21.506,35.298 18.237,35.298Z" style="fill:#b9c3d9;fill-rule:nonzero;"/>
        <path d="M18.237,23.502C14.984,23.502 12.331,26.139 12.331,29.408C12.331,32.677 14.968,35.315 18.237,35.315C21.506,35.315 24.143,32.677 24.143,29.408C24.143,26.139 21.506,23.502 18.237,23.502ZM20.066,29.117C19.062,29.117 18.237,28.308 18.237,27.288C18.237,26.285 19.046,25.46 20.066,25.46C21.069,25.46 21.894,26.269 21.894,27.288C21.878,28.308 21.069,29.117 20.066,29.117Z" style="fill-rule:nonzero;"/>
        <path d="M81.298,12.11C75.602,12.11 70.99,16.721 70.99,22.417C70.99,28.114 75.602,32.725 81.298,32.725C86.994,32.725 91.606,28.114 91.606,22.417C91.606,16.721 86.994,12.11 81.298,12.11ZM80.295,30.929C77.043,30.929 74.389,28.292 74.389,25.023C74.389,21.754 77.026,19.116 80.295,19.116C83.564,19.116 86.202,21.754 86.202,25.023C86.202,28.292 83.548,30.929 80.295,30.929Z" style="fill:#b9c3d9;fill-rule:nonzero;"/>
        <path d="M64.55,55.542C63.094,54.005 60.812,54.879 58.724,55.995C58.822,56.481 58.724,57.112 58.563,57.71C58.385,58.39 58.142,59.037 58.061,59.41C57.851,60.332 57.139,61.206 56.2,61.481C55.019,61.821 53.951,60.898 54.194,59.685C54.291,59.183 54.452,58.6 54.663,58.018C52.041,58.827 49.242,58.471 46.539,57.727C46.815,58.39 47.009,59.102 47.122,59.701C47.365,60.915 46.297,61.837 45.115,61.497C44.177,61.222 43.481,60.348 43.254,59.426C43.174,59.054 42.931,58.406 42.753,57.727C42.672,57.403 42.591,57.063 42.559,56.723C42.526,56.303 42.445,56.335 42.041,56.206C41.361,55.995 40.682,55.785 39.986,55.672C39.047,55.526 37.817,55.461 37.057,56.108C36.393,56.675 36.215,57.727 36.539,59.215C37.235,62.436 38.966,65.882 41.572,68.196C41.669,68.083 41.782,67.986 41.879,67.873C42.818,66.983 43.95,66.255 44.727,65.882C45.633,65.445 46.62,65.251 47.624,65.397C48.643,65.543 49.614,65.947 50.65,65.64C51.75,65.3 52.689,64.75 53.87,64.879C55.116,64.992 56.265,65.607 57.268,66.303C58.061,66.853 58.805,67.484 59.517,68.116C59.744,68.326 60.035,68.552 60.31,68.795C61.896,67.711 63.223,66.222 64.178,64.377C65.731,61.529 66.605,57.694 64.55,55.542Z" style="fill:#894b53;fill-rule:nonzero;"/>
        <path d="M57.43,56.723C56.896,57.031 56.41,57.306 55.99,57.516C55.553,57.727 55.116,57.888 54.663,58.034C54.452,58.617 54.291,59.199 54.194,59.701C53.951,60.915 55.019,61.837 56.2,61.497C57.139,61.222 57.834,60.348 58.061,59.426C58.142,59.054 58.385,58.406 58.563,57.727C58.724,57.128 58.822,56.497 58.724,56.011C58.644,56.044 58.579,56.092 58.498,56.125C58.142,56.319 57.77,56.529 57.43,56.723Z" style="fill:#ffdba2;fill-rule:nonzero;"/>
        <path d="M42.559,56.351C42.542,56.772 42.64,57.241 42.753,57.71C42.931,58.39 43.174,59.037 43.254,59.41C43.465,60.332 44.177,61.206 45.115,61.481C46.297,61.821 47.365,60.898 47.122,59.685C47.009,59.102 46.815,58.39 46.539,57.71C45.358,57.371 44.193,56.966 43.076,56.545C42.915,56.497 42.737,56.416 42.559,56.351Z" style="fill:#ffdba2;fill-rule:nonzero;"/>
        <path d="M55.1,69.604C55.359,68.585 55.488,67.501 54.711,67.145C53.935,66.805 52.769,67.355 52.268,67.938C51.588,68.714 51.103,70.025 50.828,71.109C52.219,71.093 53.546,70.964 54.728,70.818C54.841,70.462 54.986,70.041 55.1,69.604Z" style="fill:#ffdba2;fill-rule:nonzero;"/>
        <path d="M50.099,71.109C49.841,70.025 49.339,68.714 48.659,67.938C48.158,67.371 46.993,66.805 46.216,67.145C45.439,67.501 45.552,68.585 45.827,69.604C45.924,69.976 46.038,70.349 46.151,70.656C46.28,70.688 46.41,70.721 46.556,70.753C47.721,70.98 48.918,71.077 50.099,71.109Z" style="fill:#ffdba2;fill-rule:nonzero;"/>
        <path d="M59.566,68.116C58.838,67.468 58.11,66.837 57.317,66.303C56.313,65.607 55.148,64.992 53.918,64.879C52.737,64.766 51.799,65.316 50.698,65.64C49.663,65.963 48.692,65.543 47.672,65.397C46.669,65.251 45.682,65.445 44.776,65.882C44.015,66.255 42.866,66.983 41.928,67.873C41.814,67.97 41.717,68.083 41.62,68.196C42.915,69.345 44.452,70.219 46.167,70.656C46.07,70.349 45.957,69.976 45.844,69.604C45.585,68.585 45.455,67.501 46.232,67.145C47.009,66.805 48.174,67.355 48.675,67.938C49.355,68.714 49.841,70.025 50.116,71.109C50.358,71.109 50.617,71.109 50.86,71.109C51.119,70.025 51.621,68.714 52.3,67.938C52.802,67.371 53.967,66.805 54.744,67.145C55.52,67.501 55.407,68.585 55.132,69.604C55.019,70.041 54.873,70.462 54.76,70.818C54.906,70.802 55.035,70.786 55.181,70.769C57.122,70.51 58.87,69.847 60.391,68.811C60.084,68.552 59.792,68.326 59.566,68.116Z" style="fill:#ff0015;fill-rule:nonzero;"/>
    </g>
</svg>
