<?xml version="1.0" encoding="UTF-8" standalone="no"?>
<!DOCTYPE svg PUBLIC "-//W3C//DTD SVG 1.1//EN" "http://www.w3.org/Graphics/SVG/1.1/DTD/svg11.dtd">
<svg width="100%" height="100%" viewBox="0 0 101 101" version="1.1" xmlns="http://www.w3.org/2000/svg" xmlns:xlink="http://www.w3.org/1999/xlink" xml:space="preserve" xmlns:serif="http://www.serif.com/" style="fill-rule:evenodd;clip-rule:evenodd;stroke-linejoin:round;stroke-miterlimit:1.41421;">
    <rect id="Marsha-Negative" serif:id="Marsha Negative" x="0.457" y="0.644" width="100" height="100" style="fill:none;"/>
    <g id="Marsha">
        <rect x="34.03" y="54.523" width="33.49" height="21.094" style="fill:#220715;"/>
        <g>
            <ellipse cx="17.127" cy="27.323" rx="11.607" ry="12.432"/>
            <ellipse cx="19.792" cy="28.174" rx="2.357" ry="2.18" style="fill:#fff;"/>
        </g>
        <g>
            <ellipse cx="81.531" cy="23.116" rx="11.607" ry="12.432"/>
            <ellipse cx="78.21" cy="23.643" rx="2.357" ry="2.18" style="fill:#fff;"/>
        </g>
        <path d="M80.196,19.761C76.944,19.761 74.29,22.398 74.29,25.667C74.29,28.936 76.928,31.574 80.196,31.574C83.465,31.574 86.103,28.936 86.103,25.667C86.103,22.398 83.449,19.761 80.196,19.761ZM78.368,25.392C77.364,25.392 76.539,24.583 76.539,23.564C76.539,22.56 77.348,21.735 78.368,21.735C79.387,21.735 80.196,22.544 80.196,23.564C80.196,24.583 79.387,25.392 78.368,25.392Z" style="fill-rule:nonzero;"/>
        <path d="M95.294,75.33C92.252,73.793 88.514,74.084 85.553,72.401C82.025,70.378 83.53,66.85 82.915,63.517C82.251,59.908 79.08,58.743 75.843,57.95C73.578,57.384 70.778,56.704 69.176,54.843C68.901,54.52 68.675,54.164 68.481,53.792C67.979,52.788 68.173,51.591 68.885,50.733L68.901,50.717C70.471,48.856 72.202,46.785 73.432,44.681C74.824,42.302 74.678,39.632 74.112,37.027C73.885,35.991 73.529,34.891 73.303,33.791C73.238,33.467 73.594,33.224 73.869,33.418C76.054,34.972 78.74,35.862 81.62,35.797C88.643,35.668 94.339,29.858 94.356,22.851C94.372,15.521 88.336,9.615 80.957,9.841C74.16,10.052 68.626,15.57 68.4,22.366C68.335,24.276 68.691,26.104 69.371,27.755C69.678,28.515 69.824,29.324 69.727,30.15L69.727,30.166C69.387,33.354 72.332,35.7 70.568,38.953C69.888,40.215 68.885,41.137 67.736,41.882C65.584,43.289 63.221,42.658 61.118,41.558C59.224,40.555 57.056,39.972 55.859,38.03C53.512,34.227 54.807,28.693 50.794,25.797C45.437,21.945 42.589,29.324 42.169,33.354C41.699,37.852 43.447,44.39 38.544,47.06C37.977,47.367 37.362,47.578 36.748,47.772C35.437,48.16 34.029,48.063 32.799,47.481C30.776,46.526 28.867,45.361 27.767,43.338C26.019,40.085 28.948,37.739 28.608,34.551L28.608,34.535C28.527,33.726 28.657,32.901 28.964,32.14C29.644,30.489 30,28.661 29.935,26.751C29.708,19.955 24.158,14.437 17.378,14.226C10.015,14 3.963,19.906 3.979,27.237C3.995,34.26 9.691,40.053 16.714,40.182C19.611,40.231 22.281,39.341 24.465,37.804C24.74,37.61 25.096,37.852 25.032,38.176C24.789,39.276 24.449,40.377 24.223,41.412C23.64,44.001 23.494,46.688 24.902,49.066C26.132,51.154 27.88,53.225 29.433,55.102C29.66,55.377 29.919,55.636 30.178,55.879C30.76,56.397 31.084,57.125 31.116,57.902C31.229,60.928 31.084,63.954 28.948,65.329C26.294,67.028 22.216,67.465 19.983,69.941C19.724,70.232 19.498,70.54 19.287,70.896C17.281,74.343 18.656,80.605 12.733,80.379C9.497,80.249 -0.665,76.187 1.179,83.502C2.021,86.868 5.322,88.842 8.51,89.441C12.248,90.136 16.374,91.172 20.307,91.431C24.077,91.674 27.103,89.942 30.598,88.809C34.838,87.45 39.434,87.013 43.803,87.968C46.36,88.534 49.192,89.57 51.942,89.797C55.211,90.072 57.606,88.923 60.535,87.709C65.438,85.67 70.859,85.249 76.086,86.139C82.866,87.305 91.362,91.852 97.641,86.819C101.961,83.324 99.696,77.547 95.294,75.33ZM70.892,23.062C70.892,17.366 75.504,12.754 81.2,12.754C86.896,12.754 91.508,17.366 91.508,23.062C91.508,28.758 86.896,33.37 81.2,33.37C75.504,33.37 70.892,28.758 70.892,23.062ZM17.135,37.755C11.439,37.755 6.827,33.143 6.827,27.447C6.827,21.751 11.439,17.139 17.135,17.139C22.831,17.139 27.443,21.751 27.443,27.447C27.443,33.143 22.831,37.755 17.135,37.755ZM64.306,65.119C62.38,68.776 59.111,71.074 55.082,71.608C53.706,71.786 52.072,71.964 50.373,71.964C49.078,71.964 47.735,71.867 46.408,71.608C40.923,70.508 37.362,64.957 36.262,59.925C35.922,58.355 36.116,57.238 36.845,56.607C38.172,55.474 40.955,56.203 43.075,57.012C47.12,58.565 51.797,59.908 55.81,57.967C56.215,57.772 56.716,57.481 57.234,57.19C57.574,56.996 57.946,56.785 58.318,56.575C60.535,55.361 63.011,54.342 64.613,56.041C66.733,58.274 65.843,62.206 64.306,65.119Z" style="fill:#220715;fill-rule:nonzero;"/>
        <path d="M17.135,17.123C11.439,17.123 6.827,21.735 6.827,27.431C6.827,33.127 11.439,37.739 17.135,37.739C22.831,37.739 27.443,33.127 27.443,27.431C27.443,21.735 22.831,17.123 17.135,17.123ZM18.138,35.943C14.886,35.943 12.232,33.305 12.232,30.036C12.232,26.768 14.869,24.13 18.138,24.13C21.407,24.13 24.045,26.768 24.045,30.036C24.045,33.305 21.407,35.943 18.138,35.943Z" style="fill:#b9c3d9;fill-rule:nonzero;"/>
        <path d="M18.138,24.146C14.886,24.146 12.232,26.784 12.232,30.053C12.232,33.321 14.869,35.959 18.138,35.959C21.407,35.959 24.045,33.321 24.045,30.053C24.045,26.784 21.407,24.146 18.138,24.146ZM19.967,29.761C18.963,29.761 18.138,28.952 18.138,27.933C18.138,26.929 18.947,26.104 19.967,26.104C20.97,26.104 21.795,26.913 21.795,27.933C21.779,28.952 20.97,29.761 19.967,29.761Z" style="fill-rule:nonzero;"/>
        <path d="M81.2,12.754C75.504,12.754 70.892,17.366 70.892,23.062C70.892,28.758 75.504,33.37 81.2,33.37C86.896,33.37 91.508,28.758 91.508,23.062C91.508,17.366 86.896,12.754 81.2,12.754ZM80.196,31.574C76.944,31.574 74.29,28.936 74.29,25.667C74.29,22.398 76.928,19.761 80.196,19.761C83.465,19.761 86.103,22.398 86.103,25.667C86.103,28.936 83.449,31.574 80.196,31.574Z" style="fill:#b9c3d9;fill-rule:nonzero;"/>
        <path d="M64.451,56.186C62.995,54.649 60.713,55.523 58.626,56.64C58.723,57.125 58.626,57.756 58.464,58.355C58.286,59.035 58.043,59.682 57.962,60.054C57.752,60.976 57.04,61.85 56.101,62.125C54.92,62.465 53.852,61.543 54.095,60.329C54.192,59.827 54.354,59.245 54.564,58.662C51.942,59.471 49.143,59.115 46.441,58.371C46.716,59.035 46.91,59.747 47.023,60.345C47.266,61.559 46.198,62.481 45.017,62.141C44.078,61.866 43.382,60.993 43.156,60.07C43.075,59.698 42.832,59.051 42.654,58.371C42.573,58.047 42.492,57.708 42.46,57.368C42.427,56.947 42.347,56.979 41.942,56.85C41.262,56.64 40.583,56.429 39.887,56.316C38.948,56.17 37.718,56.106 36.958,56.753C36.294,57.319 36.116,58.371 36.44,59.86C37.136,63.08 38.867,66.527 41.473,68.841C41.57,68.728 41.683,68.63 41.78,68.517C42.719,67.627 43.851,66.899 44.628,66.527C45.534,66.09 46.521,65.896 47.525,66.041C48.544,66.187 49.515,66.592 50.551,66.284C51.651,65.944 52.59,65.394 53.771,65.524C55.017,65.637 56.166,66.252 57.169,66.948C57.962,67.498 58.707,68.129 59.419,68.76C59.645,68.97 59.936,69.197 60.212,69.44C61.797,68.355 63.124,66.867 64.079,65.022C65.632,62.174 66.506,58.339 64.451,56.186Z" style="fill:#894b53;fill-rule:nonzero;"/>
        <path d="M57.331,57.368C56.797,57.675 56.312,57.95 55.891,58.161C55.454,58.371 55.017,58.533 54.564,58.679C54.354,59.261 54.192,59.844 54.095,60.345C53.852,61.559 54.92,62.481 56.101,62.141C57.04,61.866 57.736,60.993 57.962,60.07C58.043,59.698 58.286,59.051 58.464,58.371C58.626,57.772 58.723,57.141 58.626,56.656C58.545,56.688 58.48,56.737 58.399,56.769C58.043,56.963 57.671,57.174 57.331,57.368Z" style="fill:#ffdba2;fill-rule:nonzero;"/>
        <path d="M42.46,56.996C42.444,57.416 42.541,57.886 42.654,58.355C42.832,59.035 43.075,59.682 43.156,60.054C43.366,60.976 44.078,61.85 45.017,62.125C46.198,62.465 47.266,61.543 47.023,60.329C46.91,59.747 46.716,59.035 46.441,58.355C45.259,58.015 44.094,57.611 42.978,57.19C42.816,57.141 42.638,57.06 42.46,56.996Z" style="fill:#ffdba2;fill-rule:nonzero;"/>
        <path d="M55.001,70.249C55.26,69.229 55.389,68.145 54.613,67.789C53.836,67.449 52.671,67.999 52.169,68.582C51.489,69.359 51.004,70.669 50.729,71.754C52.12,71.737 53.447,71.608 54.629,71.462C54.742,71.106 54.888,70.686 55.001,70.249Z" style="fill:#ffdba2;fill-rule:nonzero;"/>
        <path d="M50.001,71.754C49.742,70.669 49.24,69.359 48.56,68.582C48.059,68.016 46.894,67.449 46.117,67.789C45.34,68.145 45.453,69.229 45.729,70.249C45.826,70.621 45.939,70.993 46.052,71.301C46.182,71.333 46.311,71.365 46.457,71.398C47.622,71.624 48.819,71.721 50.001,71.754Z" style="fill:#ffdba2;fill-rule:nonzero;"/>
        <path d="M59.467,68.76C58.739,68.113 58.011,67.482 57.218,66.948C56.215,66.252 55.049,65.637 53.82,65.524C52.638,65.41 51.7,65.96 50.599,66.284C49.564,66.608 48.593,66.187 47.573,66.041C46.57,65.896 45.583,66.09 44.677,66.527C43.916,66.899 42.767,67.627 41.829,68.517C41.715,68.614 41.618,68.728 41.521,68.841C42.816,69.99 44.353,70.864 46.068,71.301C45.971,70.993 45.858,70.621 45.745,70.249C45.486,69.229 45.356,68.145 46.133,67.789C46.91,67.449 48.075,67.999 48.577,68.582C49.256,69.359 49.742,70.669 50.017,71.754C50.26,71.754 50.518,71.754 50.761,71.754C51.02,70.669 51.522,69.359 52.201,68.582C52.703,68.016 53.868,67.449 54.645,67.789C55.422,68.145 55.308,69.229 55.033,70.249C54.92,70.686 54.774,71.106 54.661,71.462C54.807,71.446 54.936,71.43 55.082,71.414C57.024,71.155 58.771,70.491 60.292,69.456C59.985,69.197 59.694,68.97 59.467,68.76Z" style="fill:#ff0015;fill-rule:nonzero;"/>
    </g>
</svg>
