<?xml version="1.0" encoding="UTF-8" standalone="no"?>
<!DOCTYPE svg PUBLIC "-//W3C//DTD SVG 1.1//EN" "http://www.w3.org/Graphics/SVG/1.1/DTD/svg11.dtd">
<svg width="100%" height="100%" viewBox="0 0 101 101" version="1.1" xmlns="http://www.w3.org/2000/svg" xmlns:xlink="http://www.w3.org/1999/xlink" xml:space="preserve" xmlns:serif="http://www.serif.com/" style="fill-rule:evenodd;clip-rule:evenodd;stroke-linejoin:round;stroke-miterlimit:1.41421;">
    <rect id="Marsha-Positive" serif:id="Marsha Positive" x="0.457" y="0.506" width="100" height="100" style="fill:none;"/>
    <g id="Marsha">
        <rect x="34.03" y="54.384" width="33.49" height="21.094" style="fill:#ff2e7a;"/>
        <g>
            <ellipse cx="17.127" cy="27.184" rx="11.607" ry="12.432"/>
            <ellipse cx="19.792" cy="28.035" rx="2.357" ry="2.18" style="fill:#fff;"/>
        </g>
        <g>
            <ellipse cx="81.531" cy="22.977" rx="11.607" ry="12.432"/>
            <ellipse cx="78.21" cy="23.504" rx="2.357" ry="2.18" style="fill:#fff;"/>
        </g>
        <path d="M80.196,19.622C76.944,19.622 74.29,22.26 74.29,25.528C74.29,28.797 76.928,31.435 80.196,31.435C83.465,31.435 86.103,28.797 86.103,25.528C86.103,22.26 83.449,19.622 80.196,19.622ZM78.368,25.253C77.364,25.253 76.539,24.444 76.539,23.425C76.539,22.421 77.348,21.596 78.368,21.596C79.387,21.596 80.196,22.405 80.196,23.425C80.196,24.444 79.387,25.253 78.368,25.253Z" style="fill-rule:nonzero;"/>
        <path d="M95.294,75.191C92.252,73.654 88.514,73.945 85.553,72.262C82.025,70.239 83.53,66.712 82.915,63.378C82.251,59.769 79.08,58.604 75.843,57.811C73.578,57.245 70.778,56.565 69.176,54.705C68.901,54.381 68.675,54.025 68.481,53.653C67.979,52.649 68.173,51.452 68.885,50.594L68.901,50.578C70.471,48.717 72.202,46.646 73.432,44.542C74.824,42.163 74.678,39.493 74.112,36.888C73.885,35.852 73.529,34.752 73.303,33.652C73.238,33.328 73.594,33.085 73.869,33.279C76.054,34.833 78.74,35.723 81.62,35.658C88.643,35.529 94.339,29.719 94.356,22.713C94.372,15.382 88.336,9.476 80.957,9.702C74.16,9.913 68.626,15.431 68.4,22.227C68.335,24.137 68.691,25.965 69.371,27.616C69.678,28.376 69.824,29.185 69.727,30.011L69.727,30.027C69.387,33.215 72.332,35.561 70.568,38.814C69.888,40.076 68.885,40.998 67.736,41.743C65.584,43.151 63.221,42.519 61.118,41.419C59.224,40.416 57.056,39.833 55.859,37.891C53.512,34.089 54.807,28.554 50.794,25.658C45.437,21.806 42.589,29.185 42.169,33.215C41.699,37.713 43.447,44.251 38.544,46.921C37.977,47.228 37.362,47.439 36.748,47.633C35.437,48.021 34.029,47.924 32.799,47.342C30.776,46.387 28.867,45.222 27.767,43.199C26.019,39.946 28.948,37.6 28.608,34.412L28.608,34.396C28.527,33.587 28.657,32.762 28.964,32.001C29.644,30.351 30,28.522 29.935,26.612C29.708,19.816 24.158,14.298 17.378,14.088C10.015,13.861 3.963,19.767 3.979,27.098C3.995,34.121 9.691,39.914 16.714,40.044C19.611,40.092 22.281,39.202 24.465,37.665C24.74,37.471 25.096,37.713 25.032,38.037C24.789,39.137 24.449,40.238 24.223,41.273C23.64,43.863 23.494,46.549 24.902,48.928C26.132,51.015 27.88,53.086 29.433,54.963C29.66,55.239 29.919,55.497 30.178,55.74C30.76,56.258 31.084,56.986 31.116,57.763C31.229,60.789 31.084,63.815 28.948,65.19C26.294,66.89 22.216,67.326 19.983,69.802C19.724,70.094 19.498,70.401 19.287,70.757C17.281,74.204 18.656,80.466 12.733,80.24C9.497,80.11 -0.665,76.049 1.179,83.363C2.021,86.729 5.322,88.703 8.51,89.302C12.248,89.998 16.374,91.033 20.307,91.292C24.077,91.535 27.103,89.803 30.598,88.671C34.838,87.311 39.434,86.874 43.803,87.829C46.36,88.396 49.192,89.431 51.942,89.658C55.211,89.933 57.606,88.784 60.535,87.57C65.438,85.531 70.859,85.111 76.086,86.001C82.866,87.166 91.362,91.713 97.641,86.68C101.961,83.185 99.696,77.408 95.294,75.191ZM70.892,22.923C70.892,17.227 75.504,12.615 81.2,12.615C86.896,12.615 91.508,17.227 91.508,22.923C91.508,28.619 86.896,33.231 81.2,33.231C75.504,33.231 70.892,28.619 70.892,22.923ZM17.135,37.616C11.439,37.616 6.827,33.004 6.827,27.308C6.827,21.612 11.439,17 17.135,17C22.831,17 27.443,21.612 27.443,27.308C27.443,33.004 22.831,37.616 17.135,37.616ZM64.306,64.98C62.38,68.637 59.111,70.935 55.082,71.469C53.706,71.647 52.072,71.825 50.373,71.825C49.078,71.825 47.735,71.728 46.408,71.469C40.923,70.369 37.362,64.818 36.262,59.786C35.922,58.216 36.116,57.099 36.845,56.468C38.172,55.336 40.955,56.064 43.075,56.873C47.12,58.426 51.797,59.769 55.81,57.828C56.215,57.633 56.716,57.342 57.234,57.051C57.574,56.857 57.946,56.646 58.318,56.436C60.535,55.222 63.011,54.203 64.613,55.902C66.733,58.135 65.843,62.067 64.306,64.98Z" style="fill:#ff2e7a;fill-rule:nonzero;"/>
        <path d="M17.135,16.984C11.439,16.984 6.827,21.596 6.827,27.292C6.827,32.988 11.439,37.6 17.135,37.6C22.831,37.6 27.443,32.988 27.443,27.292C27.443,21.596 22.831,16.984 17.135,16.984ZM18.138,35.804C14.886,35.804 12.232,33.166 12.232,29.897C12.232,26.629 14.869,23.991 18.138,23.991C21.407,23.991 24.045,26.629 24.045,29.897C24.045,33.166 21.407,35.804 18.138,35.804Z" style="fill:#ffdd73;fill-rule:nonzero;"/>
        <path d="M18.138,24.007C14.886,24.007 12.232,26.645 12.232,29.914C12.232,33.182 14.869,35.82 18.138,35.82C21.407,35.82 24.045,33.182 24.045,29.914C24.045,26.645 21.407,24.007 18.138,24.007ZM19.967,29.622C18.963,29.622 18.138,28.813 18.138,27.794C18.138,26.791 18.947,25.965 19.967,25.965C20.97,25.965 21.795,26.774 21.795,27.794C21.779,28.813 20.97,29.622 19.967,29.622Z" style="fill-rule:nonzero;"/>
        <path d="M81.2,12.615C75.504,12.615 70.892,17.227 70.892,22.923C70.892,28.619 75.504,33.231 81.2,33.231C86.896,33.231 91.508,28.619 91.508,22.923C91.508,17.227 86.896,12.615 81.2,12.615ZM80.196,31.435C76.944,31.435 74.29,28.797 74.29,25.528C74.29,22.26 76.928,19.622 80.196,19.622C83.465,19.622 86.103,22.26 86.103,25.528C86.103,28.797 83.449,31.435 80.196,31.435Z" style="fill:#ffdd73;fill-rule:nonzero;"/>
        <path d="M64.451,56.048C62.995,54.51 60.713,55.384 58.626,56.501C58.723,56.986 58.626,57.617 58.464,58.216C58.286,58.896 58.043,59.543 57.962,59.915C57.752,60.838 57.04,61.711 56.101,61.986C54.92,62.326 53.852,61.404 54.095,60.19C54.192,59.689 54.354,59.106 54.564,58.523C51.942,59.333 49.143,58.977 46.441,58.232C46.716,58.896 46.91,59.608 47.023,60.206C47.266,61.42 46.198,62.342 45.017,62.003C44.078,61.728 43.382,60.854 43.156,59.931C43.075,59.559 42.832,58.912 42.654,58.232C42.573,57.909 42.492,57.569 42.46,57.229C42.427,56.808 42.347,56.841 41.942,56.711C41.262,56.501 40.583,56.29 39.887,56.177C38.948,56.031 37.718,55.967 36.958,56.614C36.294,57.18 36.116,58.232 36.44,59.721C37.136,62.941 38.867,66.388 41.473,68.702C41.57,68.589 41.683,68.492 41.78,68.378C42.719,67.488 43.851,66.76 44.628,66.388C45.534,65.951 46.521,65.757 47.525,65.902C48.544,66.048 49.515,66.453 50.551,66.145C51.651,65.805 52.59,65.255 53.771,65.385C55.017,65.498 56.166,66.113 57.169,66.809C57.962,67.359 58.707,67.99 59.419,68.621C59.645,68.831 59.936,69.058 60.212,69.301C61.797,68.217 63.124,66.728 64.079,64.883C65.632,62.035 66.506,58.2 64.451,56.048Z" style="fill:#5c000d;fill-rule:nonzero;"/>
        <path d="M57.331,57.229C56.797,57.536 56.312,57.811 55.891,58.022C55.454,58.232 55.017,58.394 54.564,58.54C54.354,59.122 54.192,59.705 54.095,60.206C53.852,61.42 54.92,62.342 56.101,62.003C57.04,61.728 57.736,60.854 57.962,59.931C58.043,59.559 58.286,58.912 58.464,58.232C58.626,57.633 58.723,57.002 58.626,56.517C58.545,56.549 58.48,56.598 58.399,56.63C58.043,56.824 57.671,57.035 57.331,57.229Z" style="fill:#ffdba2;fill-rule:nonzero;"/>
        <path d="M42.46,56.857C42.444,57.277 42.541,57.747 42.654,58.216C42.832,58.896 43.075,59.543 43.156,59.915C43.366,60.838 44.078,61.711 45.017,61.986C46.198,62.326 47.266,61.404 47.023,60.19C46.91,59.608 46.716,58.896 46.441,58.216C45.259,57.876 44.094,57.472 42.978,57.051C42.816,57.002 42.638,56.921 42.46,56.857Z" style="fill:#ffdba2;fill-rule:nonzero;"/>
        <path d="M55.001,70.11C55.26,69.09 55.389,68.006 54.613,67.65C53.836,67.31 52.671,67.861 52.169,68.443C51.489,69.22 51.004,70.531 50.729,71.615C52.12,71.599 53.447,71.469 54.629,71.323C54.742,70.967 54.888,70.547 55.001,70.11Z" style="fill:#ffdba2;fill-rule:nonzero;"/>
        <path d="M50.001,71.615C49.742,70.531 49.24,69.22 48.56,68.443C48.059,67.877 46.894,67.31 46.117,67.65C45.34,68.006 45.453,69.09 45.729,70.11C45.826,70.482 45.939,70.854 46.052,71.162C46.182,71.194 46.311,71.226 46.457,71.259C47.622,71.485 48.819,71.582 50.001,71.615Z" style="fill:#ffdba2;fill-rule:nonzero;"/>
        <path d="M59.467,68.621C58.739,67.974 58.011,67.343 57.218,66.809C56.215,66.113 55.049,65.498 53.82,65.385C52.638,65.271 51.7,65.822 50.599,66.145C49.564,66.469 48.593,66.048 47.573,65.902C46.57,65.757 45.583,65.951 44.677,66.388C43.916,66.76 42.767,67.488 41.829,68.378C41.715,68.475 41.618,68.589 41.521,68.702C42.816,69.851 44.353,70.725 46.068,71.162C45.971,70.854 45.858,70.482 45.745,70.11C45.486,69.09 45.356,68.006 46.133,67.65C46.91,67.31 48.075,67.861 48.577,68.443C49.256,69.22 49.742,70.531 50.017,71.615C50.26,71.615 50.518,71.615 50.761,71.615C51.02,70.531 51.522,69.22 52.201,68.443C52.703,67.877 53.868,67.31 54.645,67.65C55.422,68.006 55.308,69.09 55.033,70.11C54.92,70.547 54.774,70.967 54.661,71.323C54.807,71.307 54.936,71.291 55.082,71.275C57.024,71.016 58.771,70.353 60.292,69.317C59.985,69.058 59.694,68.831 59.467,68.621Z" style="fill:#ff0015;fill-rule:nonzero;"/>
    </g>
</svg>
