<?xml version="1.0" encoding="UTF-8" standalone="no"?>
<!DOCTYPE svg PUBLIC "-//W3C//DTD SVG 1.1//EN" "http://www.w3.org/Graphics/SVG/1.1/DTD/svg11.dtd">
<svg width="100%" height="100%" viewBox="0 0 101 101" version="1.1" xmlns="http://www.w3.org/2000/svg" xmlns:xlink="http://www.w3.org/1999/xlink" xml:space="preserve" xmlns:serif="http://www.serif.com/" style="fill-rule:evenodd;clip-rule:evenodd;stroke-linejoin:round;stroke-miterlimit:1.41421;">
    <rect id="Pat---Negative" serif:id="Pat - Negative" x="0.189" y="0.129" width="100" height="100" style="fill:none;"/>
    <g id="Pat">
        <circle cx="49.863" cy="27.195" r="15.498" style="fill:#ffb9c6;"/>
        <path d="M92.599,79.965C89.28,76.819 84.318,75.504 80.138,77.868C78.448,78.822 76.663,79.621 74.816,80.231C74.221,80.435 73.626,80.623 73,80.67C71.92,80.764 70.808,80.544 69.806,80.09C69.493,79.95 69.603,79.48 69.947,79.48C71.998,79.48 74.831,78.447 76.193,78.008C79.528,76.913 81.375,75.41 82.361,71.95C83.3,68.663 83.113,64.452 79.7,62.495C79.042,62.119 78.291,61.947 77.54,62.025C73.548,62.511 77.289,67.911 76.976,69.993C76.522,73.124 73.172,74.518 70.307,74.627C67.505,74.737 64.969,72.686 64.907,69.79C64.844,67.301 66.222,65.031 67.427,62.855C73.203,52.32 75.833,40.062 74.878,28.071C74.393,22.029 72.969,15.939 69.681,10.867C60.821,-2.799 39.547,-2.768 30.702,10.867C27.415,15.955 25.974,22.044 25.505,28.071C24.55,40.062 27.164,52.304 32.956,62.855C34.162,65.047 35.523,67.301 35.477,69.79C35.414,72.686 32.878,74.737 30.076,74.627C27.211,74.518 23.861,73.124 23.407,69.993C23.11,67.911 26.835,62.511 22.843,62.025C22.092,61.931 21.341,62.119 20.683,62.495C17.271,64.452 17.083,68.678 18.022,71.95C19.008,75.394 20.855,76.913 24.19,78.008C25.552,78.447 28.369,79.48 30.436,79.48C30.78,79.48 30.89,79.95 30.577,80.09C29.59,80.544 28.463,80.764 27.383,80.67C26.757,80.623 26.162,80.435 25.567,80.231C23.72,79.605 21.936,78.822 20.245,77.868C16.081,75.519 11.103,76.834 7.784,79.965C6.187,81.468 1.413,89.248 6.359,88.857C8.629,88.669 10.148,85.883 11.901,84.724C13.827,83.456 16.723,82.423 18.805,83.754C23.611,86.806 29.293,94.085 35.977,90.861C35.993,90.861 39.093,89.358 41.378,88.246C42.302,87.792 43.398,88.419 43.492,89.452C43.679,91.581 44.024,94.258 45.026,96.183C45.746,97.592 48.485,99.564 50.113,99.627C51.679,99.705 54.653,97.498 55.342,96.183C56.328,94.258 56.672,91.581 56.876,89.452C56.97,88.419 58.066,87.808 58.989,88.246C61.29,89.358 64.39,90.861 64.39,90.861C71.059,94.085 76.757,86.822 81.563,83.754C83.645,82.423 86.557,83.456 88.466,84.724C90.22,85.883 91.738,88.669 94.008,88.857C98.97,89.248 94.196,81.468 92.599,79.965ZM61.682,55.075C61.353,55.435 60.79,55.466 60.429,55.137C60.069,54.809 60.038,54.245 60.367,53.885C61.071,53.087 61.447,51.991 61.337,50.926C61.29,50.519 61.134,50.206 60.899,50.05C60.711,49.925 60.445,49.909 60.132,50.003C59.24,50.269 58.786,50.989 58.207,51.897C58.144,51.991 58.097,52.085 58.034,52.163C58.003,52.21 57.972,52.273 57.925,52.335C57.455,53.087 56.344,54.856 54.841,54.12C53.589,53.494 53.291,52.022 53.041,50.723C52.665,48.86 52.414,48.437 51.71,48.453C51.24,48.469 50.896,49.064 50.755,49.565C50.693,49.768 50.646,50.065 50.583,50.379C50.317,51.803 49.832,54.449 47.405,54.104C46.059,53.916 45.464,52.758 45.026,51.913C44.932,51.725 44.838,51.568 44.76,51.412C44.165,50.426 43.382,49.705 42.615,49.439C42.177,49.283 41.801,49.33 41.519,49.565C41.128,49.878 40.94,50.488 41.002,51.114C41.175,52.601 41.801,54.668 42.787,55.936C43.085,56.327 43.022,56.891 42.631,57.188C42.474,57.313 42.27,57.376 42.083,57.376C41.817,57.376 41.55,57.266 41.378,57.032C40.11,55.404 39.437,53.009 39.234,51.333C39.093,50.097 39.531,48.891 40.392,48.187C41.159,47.561 42.161,47.42 43.178,47.764C44.76,48.312 45.793,49.705 46.262,50.504C46.372,50.692 46.481,50.895 46.591,51.099C46.967,51.819 47.233,52.288 47.64,52.351C48.188,52.429 48.485,51.881 48.814,50.065C48.877,49.705 48.939,49.361 49.033,49.079C49.362,47.952 50.223,46.747 51.647,46.7C54.011,46.622 54.465,48.891 54.778,50.394C54.95,51.255 55.154,52.226 55.561,52.508C55.749,52.398 56.031,52.038 56.422,51.412C56.469,51.333 56.516,51.271 56.547,51.224C56.61,51.13 56.657,51.052 56.719,50.958C57.377,49.94 58.113,48.782 59.631,48.328C60.461,48.077 61.259,48.171 61.901,48.61C62.574,49.064 63.028,49.862 63.122,50.801C63.247,52.288 62.731,53.916 61.682,55.075ZM49.863,42.692C41.3,42.692 34.365,35.757 34.365,27.195C34.365,18.632 41.3,11.697 49.863,11.697C58.426,11.697 65.361,18.632 65.361,27.195C65.361,35.757 58.426,42.692 49.863,42.692Z" style="fill:#282828;fill-rule:nonzero;"/>
        <path d="M49.91,29.871C49.91,27.116 52.148,24.878 54.904,24.878C56.469,24.878 57.862,25.598 58.77,26.725C58.661,22.076 54.857,18.334 50.176,18.334C48.61,18.334 47.139,18.757 45.887,19.477C47.076,19.931 47.906,21.074 47.906,22.42C47.906,24.173 46.497,25.582 44.744,25.582C43.617,25.582 42.615,24.987 42.067,24.095C41.754,24.987 41.582,25.927 41.582,26.928C41.582,31.672 45.433,35.523 50.176,35.523C51.46,35.523 52.681,35.241 53.776,34.724C51.569,34.223 49.91,32.251 49.91,29.871Z" style="fill:#773d23;fill-rule:nonzero;"/>
        <path d="M42.051,57.345C41.785,57.345 41.519,57.235 41.347,57C40.079,55.372 39.406,52.977 39.202,51.302C39.061,50.065 39.5,48.86 40.361,48.156C41.128,47.529 42.13,47.389 43.147,47.733C44.728,48.281 45.761,49.674 46.231,50.473C46.341,50.66 46.45,50.864 46.56,51.067C46.935,51.787 47.202,52.257 47.609,52.32C48.157,52.398 48.454,51.85 48.783,50.034C48.845,49.674 48.908,49.33 49.002,49.048C49.331,47.921 50.192,46.715 51.616,46.669C53.98,46.59 54.434,48.86 54.747,50.363C54.919,51.224 55.123,52.194 55.53,52.476C55.718,52.367 55.999,52.007 56.391,51.38C56.438,51.302 56.485,51.24 56.516,51.193C56.579,51.099 56.625,51.02 56.688,50.926C57.346,49.909 58.081,48.751 59.6,48.297C60.429,48.046 61.228,48.14 61.87,48.578C62.543,49.032 62.997,49.831 63.091,50.77C63.247,52.32 62.715,53.932 61.682,55.106C61.353,55.466 60.79,55.498 60.429,55.169C60.069,54.84 60.038,54.277 60.367,53.916C61.071,53.118 61.447,52.022 61.337,50.958C61.29,50.551 61.134,50.238 60.899,50.081C60.711,49.956 60.445,49.94 60.132,50.034C59.24,50.3 58.786,51.02 58.207,51.928C58.144,52.022 58.097,52.116 58.034,52.194C58.003,52.241 57.972,52.304 57.925,52.367C57.455,53.118 56.344,54.887 54.841,54.151C53.589,53.525 53.291,52.054 53.041,50.754C52.665,48.891 52.414,48.469 51.71,48.484C51.24,48.5 50.896,49.095 50.755,49.596C50.693,49.799 50.646,50.097 50.583,50.41C50.317,51.834 49.832,54.48 47.405,54.136C46.059,53.948 45.464,52.789 45.026,51.944C44.932,51.756 44.838,51.6 44.76,51.443C44.165,50.457 43.382,49.737 42.615,49.471C42.177,49.314 41.801,49.361 41.519,49.596C41.128,49.909 40.94,50.519 41.002,51.146C41.175,52.633 41.801,54.699 42.787,55.967C43.085,56.359 43.022,56.922 42.631,57.22C42.443,57.282 42.255,57.345 42.051,57.345Z" style="fill:#ffb9c6;fill-rule:nonzero;"/>
    </g>
</svg>
