<?xml version="1.0" encoding="UTF-8" standalone="no"?>
<!DOCTYPE svg PUBLIC "-//W3C//DTD SVG 1.1//EN" "http://www.w3.org/Graphics/SVG/1.1/DTD/svg11.dtd">
<svg width="100%" height="100%" viewBox="0 0 101 101" version="1.1" xmlns="http://www.w3.org/2000/svg" xmlns:xlink="http://www.w3.org/1999/xlink" xml:space="preserve" xmlns:serif="http://www.serif.com/" style="fill-rule:evenodd;clip-rule:evenodd;stroke-linejoin:round;stroke-miterlimit:1.41421;">
    <rect id="Pat---Positive" serif:id="Pat - Positive" x="0.189" y="0.506" width="100" height="100" style="fill:none;"/>
    <g id="Francine">
        <circle cx="49.863" cy="27.571" r="15.498" style="fill:#b9ffcd;"/>
        <path d="M92.599,80.342C89.28,77.195 84.318,75.88 80.138,78.244C78.448,79.199 76.663,79.997 74.816,80.608C74.221,80.811 73.626,80.999 73,81.046C71.92,81.14 70.808,80.921 69.806,80.467C69.493,80.326 69.603,79.856 69.947,79.856C71.998,79.856 74.831,78.823 76.193,78.385C79.528,77.289 81.375,75.786 82.361,72.327C83.3,69.039 83.113,64.828 79.7,62.871C79.042,62.496 78.291,62.324 77.54,62.402C73.548,62.887 77.289,68.288 76.976,70.37C76.522,73.501 73.172,74.894 70.307,75.004C67.505,75.113 64.969,73.062 64.907,70.166C64.844,67.677 66.222,65.407 67.427,63.231C73.203,52.696 75.833,40.439 74.878,28.448C74.393,22.405 72.969,16.315 69.681,11.243C60.821,-2.423 39.547,-2.391 30.702,11.243C27.415,16.331 25.974,22.421 25.505,28.448C24.55,40.439 27.164,52.68 32.956,63.231C34.162,65.423 35.523,67.677 35.477,70.166C35.414,73.062 32.878,75.113 30.076,75.004C27.211,74.894 23.861,73.501 23.407,70.37C23.11,68.288 26.835,62.887 22.843,62.402C22.092,62.308 21.341,62.496 20.683,62.871C17.271,64.828 17.083,69.055 18.022,72.327C19.008,75.771 20.855,77.289 24.19,78.385C25.552,78.823 28.369,79.856 30.436,79.856C30.78,79.856 30.89,80.326 30.577,80.467C29.59,80.921 28.463,81.14 27.383,81.046C26.757,80.999 26.162,80.811 25.567,80.608C23.72,79.982 21.936,79.199 20.245,78.244C16.081,75.896 11.103,77.211 7.784,80.342C6.187,81.844 1.413,89.625 6.359,89.233C8.629,89.045 10.148,86.259 11.901,85.101C13.827,83.833 16.723,82.799 18.805,84.13C23.611,87.183 29.293,94.462 35.977,91.237C35.993,91.237 39.093,89.734 41.378,88.623C42.302,88.169 43.398,88.795 43.492,89.828C43.679,91.957 44.024,94.634 45.026,96.56C45.746,97.968 48.485,99.941 50.113,100.004C51.679,100.082 54.653,97.875 55.342,96.56C56.328,94.634 56.672,91.957 56.876,89.828C56.97,88.795 58.066,88.184 58.989,88.623C61.29,89.734 64.39,91.237 64.39,91.237C71.059,94.462 76.757,87.198 81.563,84.13C83.645,82.799 86.557,83.833 88.466,85.101C90.22,86.259 91.738,89.045 94.008,89.233C98.97,89.625 94.196,81.844 92.599,80.342ZM61.682,55.451C61.353,55.811 60.79,55.843 60.429,55.514C60.069,55.185 60.038,54.622 60.367,54.262C61.071,53.463 61.447,52.367 61.337,51.303C61.29,50.896 61.134,50.583 60.899,50.426C60.711,50.301 60.445,50.285 60.132,50.379C59.24,50.645 58.786,51.366 58.207,52.273C58.144,52.367 58.097,52.461 58.034,52.54C58.003,52.587 57.972,52.649 57.925,52.712C57.455,53.463 56.344,55.232 54.841,54.496C53.589,53.87 53.291,52.399 53.041,51.099C52.665,49.237 52.414,48.814 51.71,48.83C51.24,48.845 50.896,49.44 50.755,49.941C50.693,50.144 50.646,50.442 50.583,50.755C50.317,52.18 49.832,54.825 47.405,54.481C46.059,54.293 45.464,53.134 45.026,52.289C44.932,52.101 44.838,51.945 44.76,51.788C44.165,50.802 43.382,50.082 42.615,49.816C42.177,49.659 41.801,49.706 41.519,49.941C41.128,50.254 40.94,50.865 41.002,51.491C41.175,52.978 41.801,55.044 42.787,56.312C43.085,56.704 43.022,57.267 42.631,57.565C42.474,57.69 42.27,57.752 42.083,57.752C41.817,57.752 41.55,57.643 41.378,57.408C40.11,55.78 39.437,53.385 39.234,51.71C39.093,50.473 39.531,49.268 40.392,48.563C41.159,47.937 42.161,47.796 43.178,48.141C44.76,48.689 45.793,50.082 46.262,50.88C46.372,51.068 46.481,51.272 46.591,51.475C46.967,52.195 47.233,52.665 47.64,52.727C48.188,52.806 48.485,52.258 48.814,50.442C48.877,50.082 48.939,49.737 49.033,49.456C49.362,48.329 50.223,47.123 51.647,47.076C54.011,46.998 54.465,49.268 54.778,50.771C54.95,51.632 55.154,52.602 55.561,52.884C55.749,52.774 56.031,52.414 56.422,51.788C56.469,51.71 56.516,51.647 56.547,51.6C56.61,51.506 56.657,51.428 56.719,51.334C57.377,50.317 58.113,49.158 59.631,48.704C60.461,48.454 61.259,48.548 61.901,48.986C62.574,49.44 63.028,50.238 63.122,51.178C63.247,52.665 62.731,54.293 61.682,55.451ZM49.863,43.069C41.3,43.069 34.365,36.134 34.365,27.571C34.365,19.008 41.3,12.073 49.863,12.073C58.426,12.073 65.361,19.008 65.361,27.571C65.361,36.134 58.426,43.069 49.863,43.069Z" style="fill:#016ab0;fill-rule:nonzero;"/>
        <path d="M49.91,30.248C49.91,27.493 52.148,25.254 54.904,25.254C56.469,25.254 57.862,25.974 58.77,27.101C58.661,22.452 54.857,18.711 50.176,18.711C48.61,18.711 47.139,19.133 45.887,19.853C47.076,20.307 47.906,21.45 47.906,22.796C47.906,24.55 46.497,25.959 44.744,25.959C43.617,25.959 42.615,25.364 42.067,24.471C41.754,25.364 41.582,26.303 41.582,27.305C41.582,32.048 45.433,35.899 50.176,35.899C51.46,35.899 52.681,35.617 53.776,35.101C51.569,34.6 49.91,32.627 49.91,30.248Z" style="fill:#235177;fill-rule:nonzero;"/>
        <path d="M42.051,57.721C41.785,57.721 41.519,57.612 41.347,57.377C40.079,55.749 39.406,53.354 39.202,51.679C39.061,50.442 39.5,49.237 40.361,48.532C41.128,47.906 42.13,47.765 43.147,48.109C44.728,48.657 45.761,50.051 46.231,50.849C46.341,51.037 46.45,51.24 46.56,51.444C46.935,52.164 47.202,52.634 47.609,52.696C48.157,52.774 48.454,52.227 48.783,50.411C48.845,50.051 48.908,49.706 49.002,49.424C49.331,48.297 50.192,47.092 51.616,47.045C53.98,46.967 54.434,49.237 54.747,50.739C54.919,51.6 55.123,52.571 55.53,52.853C55.718,52.743 55.999,52.383 56.391,51.757C56.438,51.679 56.485,51.616 56.516,51.569C56.579,51.475 56.625,51.397 56.688,51.303C57.346,50.285 58.081,49.127 59.6,48.673C60.429,48.423 61.228,48.516 61.87,48.955C62.543,49.409 62.997,50.207 63.091,51.146C63.247,52.696 62.715,54.309 61.682,55.483C61.353,55.843 60.79,55.874 60.429,55.545C60.069,55.216 60.038,54.653 60.367,54.293C61.071,53.495 61.447,52.399 61.337,51.334C61.29,50.927 61.134,50.614 60.899,50.458C60.711,50.332 60.445,50.317 60.132,50.411C59.24,50.677 58.786,51.397 58.207,52.305C58.144,52.399 58.097,52.493 58.034,52.571C58.003,52.618 57.972,52.68 57.925,52.743C57.455,53.495 56.344,55.263 54.841,54.528C53.589,53.902 53.291,52.43 53.041,51.131C52.665,49.268 52.414,48.845 51.71,48.861C51.24,48.876 50.896,49.471 50.755,49.972C50.693,50.176 50.646,50.473 50.583,50.786C50.317,52.211 49.832,54.856 47.405,54.512C46.059,54.324 45.464,53.166 45.026,52.32C44.932,52.133 44.838,51.976 44.76,51.819C44.165,50.833 43.382,50.113 42.615,49.847C42.177,49.691 41.801,49.737 41.519,49.972C41.128,50.285 40.94,50.896 41.002,51.522C41.175,53.009 41.801,55.076 42.787,56.344C43.085,56.735 43.022,57.299 42.631,57.596C42.443,57.659 42.255,57.721 42.051,57.721Z" style="fill:#081e2f;fill-rule:nonzero;"/>
    </g>
</svg>
