<?xml version="1.0" encoding="UTF-8" standalone="no"?>
<!DOCTYPE svg PUBLIC "-//W3C//DTD SVG 1.1//EN" "http://www.w3.org/Graphics/SVG/1.1/DTD/svg11.dtd">
<svg width="100%" height="100%" viewBox="0 0 89 93" version="1.1" xmlns="http://www.w3.org/2000/svg" xmlns:xlink="http://www.w3.org/1999/xlink" xml:space="preserve" xmlns:serif="http://www.serif.com/" style="fill-rule:evenodd;clip-rule:evenodd;stroke-linejoin:round;stroke-miterlimit:1.41421;">
    <path id="Plus" d="M88.402,46.336C88.402,48.176 88.303,49.687 88.106,50.87C87.909,52.053 87.613,53.038 87.219,53.827C86.825,54.615 86.365,55.174 85.839,55.502C85.313,55.831 84.788,55.995 84.262,55.995L54.298,55.995L54.298,88.522C54.298,89.179 54.134,89.738 53.805,90.198C53.476,90.658 52.918,91.085 52.129,91.479C51.341,91.873 50.322,92.169 49.074,92.366C47.825,92.563 46.215,92.662 44.244,92.662C42.273,92.662 40.663,92.563 39.414,92.366C38.166,92.169 37.147,91.873 36.359,91.479C35.57,91.085 35.012,90.658 34.683,90.198C34.355,89.738 34.19,89.179 34.19,88.522L34.19,55.995L4.226,55.995C3.701,55.995 3.208,55.831 2.748,55.502C2.288,55.174 1.861,54.615 1.466,53.827C1.072,53.038 0.744,52.053 0.481,50.87C0.218,49.687 0.087,48.176 0.087,46.336C0.087,44.627 0.185,43.149 0.382,41.9C0.579,40.652 0.875,39.666 1.269,38.943C1.664,38.22 2.091,37.695 2.551,37.366C3.011,37.038 3.504,36.873 4.029,36.873L34.19,36.873L34.19,4.347C34.19,3.69 34.355,3.098 34.683,2.572C35.012,2.047 35.57,1.587 36.359,1.193C37.147,0.798 38.166,0.503 39.414,0.305C40.663,0.108 42.273,0.01 44.244,0.01C46.215,0.01 47.825,0.108 49.074,0.305C50.322,0.503 51.341,0.798 52.129,1.193C52.918,1.587 53.476,2.047 53.805,2.572C54.134,3.098 54.298,3.69 54.298,4.347L54.298,36.873L84.459,36.873C84.985,36.873 85.478,37.038 85.938,37.366C86.398,37.695 86.825,38.22 87.219,38.943C87.613,39.666 87.909,40.652 88.106,41.9C88.303,43.149 88.402,44.627 88.402,46.336Z" style="fill:#250028;fill-rule:nonzero;"/>
    <clipPath id="_clip1">
        <path d="M88.402,46.336C88.402,48.176 88.303,49.687 88.106,50.87C87.909,52.053 87.613,53.038 87.219,53.827C86.825,54.615 86.365,55.174 85.839,55.502C85.313,55.831 84.788,55.995 84.262,55.995L54.298,55.995L54.298,88.522C54.298,89.179 54.134,89.738 53.805,90.198C53.476,90.658 52.918,91.085 52.129,91.479C51.341,91.873 50.322,92.169 49.074,92.366C47.825,92.563 46.215,92.662 44.244,92.662C42.273,92.662 40.663,92.563 39.414,92.366C38.166,92.169 37.147,91.873 36.359,91.479C35.57,91.085 35.012,90.658 34.683,90.198C34.355,89.738 34.19,89.179 34.19,88.522L34.19,55.995L4.226,55.995C3.701,55.995 3.208,55.831 2.748,55.502C2.288,55.174 1.861,54.615 1.466,53.827C1.072,53.038 0.744,52.053 0.481,50.87C0.218,49.687 0.087,48.176 0.087,46.336C0.087,44.627 0.185,43.149 0.382,41.9C0.579,40.652 0.875,39.666 1.269,38.943C1.664,38.22 2.091,37.695 2.551,37.366C3.011,37.038 3.504,36.873 4.029,36.873L34.19,36.873L34.19,4.347C34.19,3.69 34.355,3.098 34.683,2.572C35.012,2.047 35.57,1.587 36.359,1.193C37.147,0.798 38.166,0.503 39.414,0.305C40.663,0.108 42.273,0.01 44.244,0.01C46.215,0.01 47.825,0.108 49.074,0.305C50.322,0.503 51.341,0.798 52.129,1.193C52.918,1.587 53.476,2.047 53.805,2.572C54.134,3.098 54.298,3.69 54.298,4.347L54.298,36.873L84.459,36.873C84.985,36.873 85.478,37.038 85.938,37.366C86.398,37.695 86.825,38.22 87.219,38.943C87.613,39.666 87.909,40.652 88.106,41.9C88.303,43.149 88.402,44.627 88.402,46.336Z" clip-rule="nonzero"/>
    </clipPath>
    <g clip-path="url(#_clip1)">
        <ellipse cx="74.57" cy="55.947" rx="11.232" ry="7.568" style="fill:#435a53;"/>
        <ellipse cx="53.212" cy="40.216" rx="10.126" ry="10.99" style="fill:#435a53;"/>
        <ellipse cx="33.933" cy="74.231" rx="9.152" ry="5.757" style="fill:#435a53;"/>
        <ellipse cx="28.676" cy="15.329" rx="14.41" ry="15.319" style="fill:#435a53;"/>
        <ellipse cx="54.318" cy="8.127" rx="5.39" ry="8.117" style="fill:#435a53;"/>
        <ellipse cx="10.486" cy="34.599" rx="9.152" ry="13.78" style="fill:#435a53;"/>
    </g>
</svg>
