<?xml version="1.0" encoding="UTF-8" standalone="no"?>
<!DOCTYPE svg PUBLIC "-//W3C//DTD SVG 1.1//EN" "http://www.w3.org/Graphics/SVG/1.1/DTD/svg11.dtd">
<svg width="100%" height="100%" viewBox="0 0 79 76" version="1.1" xmlns="http://www.w3.org/2000/svg" xmlns:xlink="http://www.w3.org/1999/xlink" xml:space="preserve" xmlns:serif="http://www.serif.com/" style="fill-rule:evenodd;clip-rule:evenodd;stroke-linejoin:round;stroke-miterlimit:1.41421;">
    <path id="multiplicatoin-symbol" serif:id="multiplicatoin symbol" d="M38.39,0.521C54.839,0.604 78.244,20.041 78.06,40.252C77.901,57.747 53.294,76.429 38.696,75.277C25.747,74.255 -0.58,63.043 0.041,36.268C0.51,16.074 23.821,0.447 38.39,0.521Z" style="fill:#250028;"/>
    <clipPath id="_clip1">
        <path d="M38.39,0.521C54.839,0.604 78.244,20.041 78.06,40.252C77.901,57.747 53.294,76.429 38.696,75.277C25.747,74.255 -0.58,63.043 0.041,36.268C0.51,16.074 23.821,0.447 38.39,0.521Z"/>
    </clipPath>
    <g clip-path="url(#_clip1)">
        <ellipse cx="8.023" cy="17.764" rx="8.248" ry="7.548" style="fill:#435a53;"/>
        <ellipse cx="63.124" cy="46.691" rx="3.762" ry="4.083" style="fill:#435a53;"/>
        <ellipse cx="42.451" cy="55.194" rx="6.801" ry="4.331" style="fill:#435a53;"/>
        <ellipse cx="55.301" cy="27.168" rx="5.354" ry="5.692" style="fill:#435a53;"/>
        <ellipse cx="27.402" cy="35.41" rx="8.248" ry="7.548" style="fill:#435a53;"/>
        <ellipse cx="5.123" cy="51.091" rx="5.348" ry="8.433" style="fill:#435a53;"/>
    </g>
</svg>
